{
.formatVersion = 3;
axes = (
{
name = Weight;
tag = wght;
}
);
classes = (
{
code = "afii57414 afii57415 afii57416 afii57418 afii57420 afii57422 afii57423 afii57425 afii57426 afii57427 afii57428 afii57434 afii57441 afii57442 afii57443 afii57444 afii57445 afii57446 afii57448 afii57555 afii57450 afii57506 afii57507 afii57508 uni06AD afii57509 afii57470 uni06C6 uni06C7 uni06C8 uni06CB uni06D0 afii57534";
name = fina;
},
{
code = "afii62759 afii62760 afii62763 afii62767 afii62773 afii62779 afii62780 afii62782 afii62783 afii62786 afii62789 afii62807 afii62810 afii62813 afii62816 afii62819 afii62822 afii62825 afii62829 afii52364 afii57447 afii62958 afii62961 afii62962 uniFBD4 afii62967 afii62827 uniFBDA uniFBD8 uniFBDC uniFBDF uniFBE5 afii62828";
name = fina2;
},
{
code = "afii62757 afii62761 afii62765 afii62771 afii62777 afii62784 afii62787 afii62805 afii62808 afii62811 afii52305 afii62817 afii62820 afii62823 afii64242 afii62831 afii62956 afii62959 uniFBD5 afii62965 uniFB54";
name = init;
},
{
code = "afii57414 afii57416 afii57418 afii57420 afii57422 afii57427 afii57428 afii57434 afii57441 afii57442 afii57443 afii57444 afii57445 afii57446 afii57555 afii57450 afii57506 afii57507 uni06AD afii57509 uni06D0";
name = init_medi;
},
{
code = "afii62758 afii62762 afii62766 afii62772 afii62778 afii62785 afii62788 afii62806 afii62809 afii62812 afii52306 afii62818 afii62821 afii62824 afii57543 afii62832 afii52957 afii62960 uniFBD6 afii62966 uniFB55";
name = medi;
}
);
familyName = "CST Sans";
customParameters = (
{
name = glyphOrder;
value = (
.notdef,
.null,
A,
AE,
AEacute,
Aacute,
Abreve,
Acircumflex,
Adieresis,
Agrave,
Alpha,
Alphatonos,
Amacron,
Aogonek,
Aring,
Aringacute,
Atilde,
B,
Beta,
C,
Cacute,
Ccaron,
Ccedilla,
Ccircumflex,
Cdot,
Chi,
D,
Dcaron,
Delta,
Delta.1,
Dslash,
E,
Eacute,
Ebreve,
Ecaron,
Ecircumflex,
Edieresis,
Edot,
Egrave,
Emacron,
Eng,
Eogonek,
Epsilon,
Epsilontonos,
Eta,
Etatonos,
Eth,
Euro,
F,
G,
Gamma,
Gbreve,
Gcedilla,
Gcircumflex,
Gdot,
H,
H18533,

glyphs = (
{
glyphname = .notdef;
layers = (
{
layerId = "F13BA0ED-FC1D-44B0-ADA4-543E9A2824CE";
shapes = (
{
closed = 1;
nodes = (
(256,0,l),
(256,1536,l),
(1792,1536,l),
(1792,0,l)
);
},
{
closed = 1;
nodes = (
(384,128,l),
(1664,128,l),
(1664,1408,l),
(384,1408,l)
);
}
);
width = 2048;
},
{
layerId = "1D873A00-654D-4240-B6DF-C2B832D3BA68";
shapes = (
{
closed = 1;
nodes = (
(256,0,l),
(256,1536,l),
(1792,1536,l),
(1792,0,l)
);
},
{
closed = 1;
nodes = (
(384,128,l),
(1664,128,l),
(1664,1408,l),
(384,1408,l)
);
}
);
width = 2048;
},
{
layerId = "6CF7F53B-663E-4569-94B0-B9FCEE5B09F0";
shapes = (
{
closed = 1;
nodes = (
(256,0,l),
(256,1536,l),
(1792,1536,l),
(1792,0,l)
);
},
{
closed = 1;
nodes = (
(384,128,l),
(1664,128,l),
(1664,1408,l),
(384,1408,l)
);
}
);
width = 2048;
},
{
layerId = "C5AA7147-E6CF-43E6-A817-BB6994C58056";
shapes = (
{
closed = 1;
nodes = (
(256,0,l),
(256,1536,l),
(1792,1536,l),
(1792,0,l)
);
},
{
closed = 1;
nodes = (
(384,128,l),
(1664,128,l),
(1664,1408,l),
(384,1408,l)
);
}
);
width = 2048;
}
);
},
{
glyphname = A;
layers = (
{
layerId = "F13BA0ED-FC1D-44B0-ADA4-543E9A2824CE";
shapes = (
{
closed = 1;
nodes = (
(-64,0,l),
(725,1489,l),
(965,1489,l),
(1159,0,l),
(954,0,l),
(905,416,l),
(347,416,l),
(132,0,l)
);
},
{
closed = 1;
nodes = (
(885,585,l),
(800,1287,l),
(435,585,l)
);
}
);
width = 1204;
},
{
layerId = "1D873A00-654D-4240-B6DF-C2B832D3BA68";
shapes = (
{
closed = 1;
nodes = (
(-65,0,l),
(724,1489,l),
(910,1489,l),
(1103,0,l),
(956,0,l),
(901,453,l),
(310,453,l),
(73,0,l)
);
},
{
closed = 1;
nodes = (
(883,589,l),
(786,1361,l),
(382,589,l)
);
}
);
width = 1148;
},
{
layerId = "6CF7F53B-663E-4569-94B0-B9FCEE5B09F0";
shapes = (
{
closed = 1;
nodes = (
(-60,0,l),
(732,1489,l),
(1185,1489,l),
(1381,0,l),
(946,0,l),
(922,267,l),
(497,267,l),
(366,0,l)
);
},
{
closed = 1;
nodes = (
(893,570,l),
(854,991,l),
(646,570,l)
);
}
);
width = 1431;
},
{
layerId = "C5AA7147-E6CF-43E6-A817-BB6994C58056";
shapes = (
{
closed = 1;
nodes = (
(-60,0,l),
(730,1489,l),
(1130,1489,l),
(1325,0,l),
(948,0,l),
(918,304,l),
(459,304,l),
(307,0,l)
);
},
{
closed = 1;
nodes = (
(891,574,l),
(840,1065,l),
(593,574,l)
);
}
);
width = 1374;
}
);
unicode = 65;
},
{
glyphname = AE;
layers = (
{
layerId = "F13BA0ED-FC1D-44B0-ADA4-543E9A2824CE";
shapes = (
{
closed = 1;
nodes = (
(1714,0,l),
(820,0,l),
(931,557,l),
(436,557,l),
(112,0,l),
(-90,0,l),
(798,1489,l),
(2011,1489,l),
(1976,1313,l),
(1274,1313,l),
(1193,905,l),
(1846,905,l),
(1810,729,l),
(1158,729,l),
(1047,176,l),
(1749,176,l)
);
},
{
closed = 1;
nodes = (
(964,723,l),
(1084,1324,l),
(894,1324,l),
(534,723,l)
);
}
);
width = 1830;
},
{
layerId = "1D873A00-654D-4240-B6DF-C2B832D3BA68";
shapes = (
{
closed = 1;
nodes = (
(1674,0,l),
(812,0,l),
(933,608,l),
(408,608,l),
(48,0,l),
(-97,0,l),
(809,1489,l),
(1972,1489,l),
(1944,1349,l),
(1215,1349,l),
(1124,892,l),
(1803,892,l),
(1775,752,l),
(1096,752,l),
(974,140,l),
(1702,140,l)
);
},
{
closed = 1;
nodes = (
(959,736,l),
(1083,1359,l),
(870,1359,l),
(486,736,l)
);
}
);
width = 1780;
},
{
layerId = "6CF7F53B-663E-4569-94B0-B9FCEE5B09F0";
shapes = (
{
closed = 1;
nodes = (
(1872,0,l),
(854,0,l),
(925,353,l),
(551,353,l),
(370,0,l),
(-65,0,l),
(754,1489,l),
(2170,1489,l),
(2106,1169,l),
(1510,1169,l),
(1468,957,l),
(2015,957,l),
(1951,637,l),
(1404,637,l),
(1341,320,l),
(1936,320,l)
);
},
{
closed = 1;
nodes = (
(988,671,l),
(1091,1184,l),
(995,1184,l),
(725,671,l)
);
}
);
width = 2028;
},
{
layerId = "C5AA7147-E6CF-43E6-A817-BB6994C58056";
shapes = (
{
closed = 1;
nodes = (
(1833,0,l),
(846,0,l),
(927,404,l),
(523,404,l),
(306,0,l),
(-71,0,l),
(765,1489,l),
(2130,1489,l),
(2074,1205,l),
(1451,1205,l),
(1399,944,l),
(1972,944,l),
(1916,660,l),
(1342,660,l),
(1267,284,l),
(1890,284,l)
);
},
{
closed = 1;
nodes = (
(983,684,l),
(1089,1219,l),
(970,1219,l),
(677,684,l)
);
}
);
width = 1978;
}
);
unicode = 198;
},
{
glyphname = Aogonek;
layers = (
{
layerId = "F13BA0ED-FC1D-44B0-ADA4-543E9A2824CE";
shapes = (
{
closed = 1;
nodes = (
(882,-40,o),
(920,33,o),
(945,78,c),
(905,416,l),
(347,416,l),
(132,0,l),
(-64,0,l),
(725,1489,l),
(965,1489,l),
(1159,0,l),
(1062,0,l),
(1045,-39,o),
(1037,-53,o),
(1026,-107,cs),
(1005,-213,o),
(1027,-268,o),
(1145,-268,cs),
(1185,-268,o),
(1238,-251,o),
(1265,-238,c),
(1274,-238,l),
(1242,-396,l),
(1194,-408,o),
(1132,-417,o),
(1090,-417,cs),
(929,-417,o),
(827,-319,o),
(867,-117,cs)
);
},
{
closed = 1;
nodes = (
(885,585,l),
(800,1287,l),
(435,585,l)
);
}
);
width = 1216;
},
{
layerId = "1D873A00-654D-4240-B6DF-C2B832D3BA68";
shapes = (
{
closed = 1;
nodes = (
(881,-45,o),
(921,35,o),
(947,81,c),
(901,453,l),
(310,453,l),
(73,0,l),
(-65,0,l),
(724,1489,l),
(910,1489,l),
(1103,0,l),
(1047,0,l),
(1028,-43,o),
(1019,-52,o),
(1006,-115,cs),
(984,-227,o),
(995,-282,o),
(1118,-282,cs),
(1156,-282,o),
(1205,-264,o),
(1227,-253,c),
(1236,-253,l),
(1207,-397,l),
(1163,-407,o),
(1114,-417,o),
(1073,-417,cs),
(930,-417,o),
(825,-324,o),
(865,-123,cs)
);
},
{
closed = 1;
nodes = (
(883,589,l),
(786,1361,l),
(382,589,l)
);
}
);
width = 1161;
},
{
layerId = "6CF7F53B-663E-4569-94B0-B9FCEE5B09F0";
shapes = (
{
closed = 1;
nodes = (
(889,-19,o),
(918,26,o),
(940,67,c),
(922,267,l),
(497,267,l),
(366,0,l),
(-60,0,l),
(732,1489,l),
(1185,1489,l),
(1381,0,l),
(1120,0,l),
(1113,-24,o),
(1109,-57,o),
(1105,-76,cs),
(1089,-158,o),
(1156,-213,o),
(1249,-213,cs),
(1296,-213,o),
(1369,-200,o),
(1417,-178,c),
(1426,-178,l),
(1383,-392,l),
(1319,-411,o),
(1208,-417,o),
(1162,-417,cs),
(930,-417,o),
(833,-299,o),
(874,-93,cs)
);
},
{
closed = 1;
nodes = (
(893,570,l),
(854,991,l),
(646,570,l)
);
}
);
width = 1437;
},
{
layerId = "C5AA7147-E6CF-43E6-A817-BB6994C58056";
shapes = (
{
closed = 1;
nodes = (
(887,-24,o),
(918,28,o),
(941,70,c),
(918,304,l),
(459,304,l),
(307,0,l),
(-60,0,l),
(730,1489,l),
(1130,1489,l),
(1325,0,l),
(1106,0,l),
(1096,-28,o),
(1091,-56,o),
(1085,-84,cs),
(1067,-172,o),
(1124,-227,o),
(1223,-227,cs),
(1268,-227,o),
(1336,-213,o),
(1379,-193,c),
(1388,-193,l),
(1348,-393,l),
(1289,-410,o),
(1189,-417,o),
(1144,-417,cs),
(929,-417,o),
(831,-304,o),
(872,-99,cs)
);
},
{
closed = 1;
nodes = (
(891,574,l),
(840,1065,l),
(593,574,l)
);
}
);
width = 1382;
}
);
unicode = 260;
},
{
glyphname = Aring;
layers = (
{
layerId = "F13BA0ED-FC1D-44B0-ADA4-543E9A2824CE";
shapes = (
{
closed = 1;
nodes = (
(1162,1574,o),
(1074,1474,o),
(973,1425,c),
(1159,0,l),
(954,0,l),
(905,416,l),
(347,416,l),
(132,0,l),
(-64,0,l),
(689,1422,l),
(605,1474,o),
(561,1569,o),
(584,1685,cs),
(618,1853,o),
(776,1986,o),
(944,1986,cs),
(1112,1986,o),
(1218,1854,o),
(1184,1685,cs)
);
},
{
closed = 1;
nodes = (
(885,584,l),
(800,1289,l),
(435,584,l)
);
},
{
closed = 1;
nodes = (
(1059,1779,o),
(1009,1853,o),
(918,1853,cs),
(826,1853,o),
(747,1778,o),
(728,1683,cs),
(708,1584,o),
(760,1512,o),
(850,1512,cs),
(940,1512,o),
(1020,1584,o),
(1040,1683,cs)
);
}
);
width = 1204;
},
{
layerId = "1D873A00-654D-4240-B6DF-C2B832D3BA68";
shapes = (
{
closed = 1;
nodes = (
(1129,1584,o),
(1029,1477,o),
(918,1430,c),
(1103,0,l),
(956,0,l),
(901,453,l),
(310,453,l),
(73,0,l),
(-65,0,l),
(689,1425,l),
(594,1477,o),
(541,1577,o),
(567,1705,cs),
(600,1872,o),
(751,2003,o),
(919,2003,cs),
(1086,2003,o),
(1187,1874,o),
(1153,1705,cs)
);
},
{
closed = 1;
nodes = (
(882,587,l),
(787,1364,l),
(382,587,l)
);
},
{
closed = 1;
nodes = (
(1041,1801,o),
(988,1877,o),
(894,1877,cs),
(796,1877,o),
(715,1798,o),
(695,1699,cs),
(674,1594,o),
(729,1520,o),
(823,1520,cs),
(917,1520,o),
(1000,1595,o),
(1021,1699,cs)
);
}
);
width = 1148;
},
{
layerId = "6CF7F53B-663E-4569-94B0-B9FCEE5B09F0";
shapes = (
{
closed = 1;
nodes = (
(1296,1535,o),
(1252,1461,o),
(1193,1405,c),
(1381,0,l),
(946,0,l),
(922,267,l),
(497,267,l),
(366,0,l),
(-60,0,l),
(691,1409,l),
(655,1463,o),
(641,1536,o),
(655,1606,cs),
(689,1777,o),
(875,1918,o),
(1045,1918,cs),
(1216,1918,o),
(1344,1775,o),
(1310,1606,cs)
);
},
{
closed = 1;
nodes = (
(893,571,l),
(854,990,l),
(646,571,l)
);
},
{
closed = 1;
nodes = (
(1127,1692,o),
(1090,1756,o),
(1013,1756,cs),
(942,1756,o),
(876,1698,o),
(860,1619,cs),
(845,1543,o),
(882,1481,o),
(958,1481,cs),
(1032,1481,o),
(1096,1540,o),
(1112,1619,cs)
);
}
);
width = 1431;
},
{
layerId = "C5AA7147-E6CF-43E6-A817-BB6994C58056";
shapes = (
{
closed = 1;
nodes = (
(1263,1545,o),
(1209,1464,o),
(1139,1410,c),
(1325,0,l),
(948,0,l),
(918,304,l),
(459,304,l),
(307,0,l),
(-60,0,l),
(691,1412,l),
(643,1466,o),
(622,1544,o),
(638,1626,cs),
(672,1796,o),
(850,1935,o),
(1020,1935,cs),
(1190,1935,o),
(1313,1795,o),
(1279,1626,cs)
);
},
{
closed = 1;
nodes = (
(891,574,l),
(840,1065,l),
(593,574,l)
);
},
{
closed = 1;
nodes = (
(1109,1714,o),
(1069,1780,o),
(989,1780,cs),
(913,1780,o),
(844,1718,o),
(827,1635,cs),
(811,1553,o),
(851,1489,o),
(931,1489,cs),
(1009,1489,o),
(1076,1551,o),
(1093,1635,cs)
);
}
);
width = 1374;
}
);
unicode = 197;
},
{
glyphname = Aringacute;
layers = (
{
layerId = "F13BA0ED-FC1D-44B0-ADA4-543E9A2824CE";
shapes = (
{
closed = 1;
nodes = (
(1112,1480,o),
(1055,1403,o),
(982,1364,c),
(1159,0,l),
(954,0,l),
(905,416,l),
(347,416,l),
(132,0,l),
(-64,0,l),
(658,1364,l),
(598,1405,o),
(572,1477,o),
(589,1563,cs),
(618,1708,o),
(761,1816,o),
(910,1816,cs),
(1056,1816,o),
(1158,1709,o),
(1129,1563,cs)
);
},
{
closed = 1;
nodes = (
(885,584,l),
(800,1289,l),
(435,584,l)
);
},
{
closed = 1;
nodes = (
(999,1634,o),
(959,1692,o),
(886,1692,cs),
(811,1692,o),
(747,1634,o),
(733,1563,cs),
(718,1487,o),
(758,1431,o),
(833,1431,cs),
(905,1431,o),
(970,1487,o),
(985,1563,cs)
);
},
{
closed = 1;
nodes = (
(1242,2117,l),
(949,1843,l),
(803,1843,l),
(1004,2117,l)
);
}
);
width = 1204;
},
{
layerId = "1D873A00-654D-4240-B6DF-C2B832D3BA68";
shapes = (
{
closed = 1;
nodes = (
(1062,1458,o),
(1004,1383,o),
(930,1349,c),
(1103,0,l),
(956,0,l),
(901,453,l),
(310,453,l),
(73,0,l),
(-65,0,l),
(647,1348,l),
(583,1385,o),
(556,1455,o),
(573,1542,cs),
(600,1679,o),
(732,1776,o),
(874,1776,cs),
(1012,1776,o),
(1107,1680,o),
(1079,1542,cs)
);
},
{
closed = 1;
nodes = (
(882,587,l),
(787,1364,l),
(382,587,l)
);
},
{
closed = 1;
nodes = (
(963,1607,o),
(921,1663,o),
(851,1663,cs),
(776,1663,o),
(715,1606,o),
(702,1539,cs),
(687,1465,o),
(727,1412,o),
(801,1412,cs),
(870,1412,o),
(934,1466,o),
(949,1539,cs)
);
},
{
closed = 1;
nodes = (
(1176,2095,l),
(904,1832,l),
(787,1832,l),
(963,2095,l)
);
}
);
width = 1148;
},
{
layerId = "6CF7F53B-663E-4569-94B0-B9FCEE5B09F0";
shapes = (
{
closed = 1;
nodes = (
(1313,1567,o),
(1259,1484,o),
(1190,1425,c),
(1381,0,l),
(946,0,l),
(922,267,l),
(497,267,l),
(366,0,l),
(-60,0,l),
(702,1428,l),
(658,1486,o),
(638,1566,o),
(654,1647,cs),
(690,1825,o),
(880,1975,o),
(1056,1975,cs),
(1233,1975,o),
(1364,1824,o),
(1329,1647,cs)
);
},
{
closed = 1;
nodes = (
(893,571,l),
(854,990,l),
(646,571,l)
);
},
{
closed = 1;
nodes = (
(1145,1741,o),
(1106,1809,o),
(1023,1809,cs),
(947,1809,o),
(875,1746,o),
(858,1659,cs),
(841,1575,o),
(882,1508,o),
(963,1508,cs),
(1044,1508,o),
(1112,1572,o),
(1129,1659,cs)
);
},
{
closed = 1;
nodes = (
(1506,2204,l),
(1131,1888,l),
(867,1888,l),
(1166,2204,l)
);
}
);
width = 1431;
},
{
layerId = "C5AA7147-E6CF-43E6-A817-BB6994C58056";
shapes = (
{
closed = 1;
nodes = (
(1263,1545,o),
(1209,1464,o),
(1139,1410,c),
(1325,0,l),
(948,0,l),
(918,304,l),
(459,304,l),
(307,0,l),
(-60,0,l),
(691,1412,l),
(643,1466,o),
(622,1544,o),
(638,1626,cs),
(672,1796,o),
(850,1935,o),
(1020,1935,cs),
(1190,1935,o),
(1313,1795,o),
(1279,1626,cs)
);
},
{
closed = 1;
nodes = (
(891,574,l),
(840,1065,l),
(593,574,l)
);
},
{
closed = 1;
nodes = (
(1109,1714,o),
(1069,1780,o),
(989,1780,cs),
(913,1780,o),
(844,1718,o),
(827,1635,cs),
(811,1553,o),
(851,1489,o),
(931,1489,cs),
(1009,1489,o),
(1076,1551,o),
(1093,1635,cs)
);
},
{
closed = 1;
nodes = (
(1440,2182,l),
(1086,1877,l),
(851,1877,l),
(1125,2182,l)
);
}
);
width = 1374;
}
);
unicode = 506;
},
{
glyphname = B;
layers = (
{
layerId = "F13BA0ED-FC1D-44B0-ADA4-543E9A2824CE";
shapes = (
{
closed = 1;
nodes = (
(1116,217,o),
(926,75,o),
(749,27,cs),
(683,9,o),
(600,0,o),
(501,0,cs),
(82,0,l),
(380,1489,l),
(767,1489,ls),
(980,1489,o),
(1049,1484,o),
(1138,1429,cs),
(1230,1371,o),
(1259,1277,o),
(1234,1153,cs),
(1206,1012,o),
(1103,896,o),
(966,835,c),
(964,827,l),
(1126,779,o),
(1202,647,o),
(1164,457,cs)
);
},
{
closed = 1;
nodes = (
(1066,1319,o),
(912,1320,o),
(633,1320,cs),
(540,1320,l),
(453,884,l),
(563,884,ls),
(742,884,o),
(813,879,o),
(907,933,cs),
(972,970,o),
(1008,1032,o),
(1027,1125,cs)
);
},
{
closed = 1;
nodes = (
(982,561,o),
(973,627,o),
(888,680,c),
(828,714,o),
(777,719,o),
(641,719,cs),
(420,719,l),
(310,169,l),
(468,169,ls),
(639,169,o),
(724,178,o),
(811,232,cs),
(894,284,o),
(939,342,o),
(960,449,cs)
);
}
);
width = 1169;
},
{
layerId = "1D873A00-654D-4240-B6DF-C2B832D3BA68";
shapes = (
{
closed = 1;
nodes = (
(1055,214,o),
(862,73,o),
(691,27,cs),
(626,9,o),
(543,0,o),
(445,0,cs),
(81,0,l),
(379,1489,l),
(748,1489,ls),
(944,1489,o),
(1004,1483,o),
(1090,1431,c),
(1182,1372,o),
(1209,1280,o),
(1184,1156,cs),
(1156,1016,o),
(1052,902,o),
(915,839,c),
(913,831,l),
(1072,779,o),
(1141,643,o),
(1104,457,cs)
);
},
{
closed = 1;
nodes = (
(1078,1356,o),
(914,1355,o),
(605,1355,cs),
(489,1355,l),
(394,878,l),
(525,878,ls),
(719,878,o),
(806,873,o),
(912,936,cs),
(978,976,o),
(1015,1041,o),
(1036,1144,cs)
);
},
{
closed = 1;
nodes = (
(981,563,o),
(977,635,o),
(886,697,c),
(818,737,o),
(766,743,o),
(609,743,cs),
(367,743,l),
(245,134,l),
(425,134,ls),
(607,134,o),
(711,148,o),
(801,209,cs),
(887,268,o),
(933,325,o),
(957,444,cs)
);
}
);
width = 1104;
},
{
layerId = "6CF7F53B-663E-4569-94B0-B9FCEE5B09F0";
shapes = (
{
closed = 1;
nodes = (
(1357,228,o),
(1185,84,o),
(983,28,cs),
(913,9,o),
(827,0,o),
(725,0,cs),
(86,0,l),
(384,1489,l),
(844,1489,ls),
(1125,1489,o),
(1231,1487,o),
(1333,1422,c),
(1427,1366,o),
(1459,1264,o),
(1434,1140,cs),
(1405,996,o),
(1306,871,o),
(1170,820,c),
(1169,812,l),
(1343,779,o),
(1444,663,o),
(1403,456,cs)
);
},
{
closed = 1;
nodes = (
(1012,1172,o),
(908,1181,o),
(746,1181,cs),
(743,1181,l),
(689,907,l),
(713,907,ls),
(832,907,o),
(837,903,o),
(885,921,cs),
(949,946,o),
(976,995,o),
(987,1049,cs)
);
},
{
closed = 1;
nodes = (
(987,552,o),
(958,594,o),
(893,613,cs),
(867,621,o),
(821,622,o),
(765,622,cs),
(632,622,l),
(569,308,l),
(642,308,ls),
(764,308,o),
(770,299,o),
(849,325,cs),
(919,348,o),
(958,410,o),
(970,468,cs)
);
}
);
width = 1426;
},
{
layerId = "C5AA7147-E6CF-43E6-A817-BB6994C58056";
shapes = (
{
closed = 1;
nodes = (
(1297,225,o),
(1121,82,o),
(925,28,cs),
(856,9,o),
(770,0,o),
(669,0,cs),
(85,0,l),
(383,1489,l),
(825,1489,ls),
(1090,1489,o),
(1186,1486,o),
(1284,1424,cs),
(1377,1367,o),
(1409,1267,o),
(1384,1143,cs),
(1355,1000,o),
(1255,877,o),
(1119,824,c),
(1117,816,l),
(1288,779,o),
(1384,659,o),
(1343,456,cs)
);
},
{
closed = 1;
nodes = (
(1024,1209,o),
(909,1216,o),
(718,1216,cs),
(693,1216,l),
(630,901,l),
(676,901,ls),
(809,901,o),
(831,897,o),
(890,924,cs),
(954,952,o),
(983,1004,o),
(996,1068,cs)
);
},
{
closed = 1;
nodes = (
(986,554,o),
(961,602,o),
(891,630,c),
(857,644,o),
(810,646,o),
(734,646,cs),
(579,646,l),
(504,273,l),
(598,273,ls),
(731,273,o),
(758,269,o),
(839,302,cs),
(913,332,o),
(954,393,o),
(968,463,cs)
);
}
);
width = 1361;
}
);
unicode = 66;
},
{
glyphname = C;
layers = (
{
layerId = "F13BA0ED-FC1D-44B0-ADA4-543E9A2824CE";
shapes = (
{
closed = 1;
nodes = (
(273,-27,o),
(52,233,o),
(154,743,cs),
(246,1203,o),
(549,1516,o),
(965,1516,cs),
(1152,1516,o),
(1275,1462,o),
(1390,1390,c),
(1342,1151,l),
(1327,1151,l),
(1274,1209,o),
(1160,1347,o),
(929,1347,cs),
(668,1347,o),
(432,1127,o),
(355,743,cs),
(275,343,o),
(440,144,o),
(688,144,cs),
(897,144,o),
(1067,254,o),
(1165,337,c),
(1180,337,l),
(1133,101,l),
(1003,43,o),
(856,-27,o),
(653,-27,c)
);
}
);
width = 1198;
},
{
layerId = "1D873A00-654D-4240-B6DF-C2B832D3BA68";
shapes = (
{
closed = 1;
nodes = (
(265,-26,o),
(52,235,o),
(154,743,cs),
(247,1207,o),
(544,1515,o),
(945,1515,cs),
(1129,1515,o),
(1252,1455,o),
(1356,1389,c),
(1316,1188,l),
(1307,1188,l),
(1257,1243,o),
(1146,1383,o),
(896,1383,cs),
(614,1383,o),
(375,1133,o),
(297,743,cs),
(213,324,o),
(380,109,o),
(640,109,cs),
(856,109,o),
(1027,211,o),
(1129,300,c),
(1138,300,l),
(1099,102,l),
(975,46,o),
(835,-27,o),
(633,-26,c)
);
}
);
width = 1154;
},
{
layerId = "6CF7F53B-663E-4569-94B0-B9FCEE5B09F0";
shapes = (
{
closed = 1;
nodes = (
(305,-30,o),
(50,224,o),
(154,743,cs),
(243,1188,o),
(568,1519,o),
(1044,1519,cs),
(1241,1519,o),
(1369,1489,o),
(1528,1395,c),
(1450,1002,l),
(1406,1002,l),
(1340,1072,o),
(1218,1203,o),
(1061,1203,cs),
(888,1203,o),
(663,1102,o),
(591,742,cs),
(526,419,o),
(681,285,o),
(880,285,cs),
(1061,285,o),
(1228,427,o),
(1308,486,c),
(1347,486,l),
(1269,98,l),
(1094.524,23.707,o),
(926.225,-30,o),
(735,-30,cs)
);
}
);
width = 1374;
},
{
layerId = "C5AA7147-E6CF-43E6-A817-BB6994C58056";
shapes = (
{
closed = 1;
nodes = (
(298,-29,o),
(51,226,o),
(154,743,cs),
(244,1192,o),
(563,1518,o),
(1025,1518,cs),
(1219,1518,o),
(1346,1482,o),
(1494,1394,c),
(1423,1039,l),
(1386,1039,l),
(1323,1106,o),
(1203,1239,o),
(1028,1239,cs),
(833,1239,o),
(606,1108,o),
(533,742,cs),
(465,400,o),
(621,250,o),
(832,250,cs),
(1020,250,o),
(1187,384,o),
(1272,449,c),
(1305,449,l),
(1235,99,l),
(1061.682,24.555,o),
(906.152,-29,o),
(715,-29,cs)
);
}
);
width = 1330;
}
);
unicode = 67;
},
{
glyphname = Ccedilla;
layers = (
{
layerId = "F13BA0ED-FC1D-44B0-ADA4-543E9A2824CE";
shapes = (
{
closed = 1;
nodes = (
(273,-27,o),
(52,233,o),
(154,743,cs),
(246,1203,o),
(549,1516,o),
(965,1516,cs),
(1152,1516,o),
(1275,1462,o),
(1390,1390,c),
(1342,1151,l),
(1327,1151,l),
(1274,1209,o),
(1160,1347,o),
(929,1347,cs),
(668,1347,o),
(432,1127,o),
(355,743,cs),
(275,343,o),
(440,144,o),
(688,144,cs),
(897,144,o),
(1067,254,o),
(1165,337,c),
(1180,337,l),
(1133,101,l),
(1053,65,o),
(999,37,o),
(897,8,cs),
(887,5,o),
(880,3,o),
(876,3,c),
(872,-17,o),
(870,-50,o),
(862,-89,cs),
(823,-286,o),
(681,-423,o),
(493,-423,cs),
(445,-423,o),
(368,-414,o),
(324,-399,c),
(356,-239,l),
(365,-239,l),
(392,-252,o),
(446,-273,o),
(497,-273,cs),
(617,-273,o),
(685,-225,o),
(709,-107,cs),
(714,-81,o),
(718,-55,o),
(724,-24,c),
(699,-24,o),
(681,-27,o),
(653,-27,c)
);
}
);
width = 1198;
},
{
layerId = "1D873A00-654D-4240-B6DF-C2B832D3BA68";
shapes = (
{
closed = 1;
nodes = (
(267,-27,o),
(52,232,o),
(154,743,cs),
(248,1211,o),
(550,1515,o),
(945,1515,cs),
(1128,1515,o),
(1250,1457,o),
(1356,1389,c),
(1316,1188,l),
(1307,1188,l),
(1257,1243,o),
(1147,1383,o),
(896,1383,cs),
(610,1383,o),
(374,1129,o),
(297,743,cs),
(214,327,o),
(377,109,o),
(640,109,cs),
(850,109,o),
(1019,204,o),
(1129,300,c),
(1138,300,l),
(1099,102,l),
(1018,65,o),
(976,40,o),
(868,9,cs),
(858,6,o),
(853,4,o),
(851,5,c),
(847,-14,o),
(847,-46,o),
(838,-90,cs),
(800,-281,o),
(664,-423,o),
(480,-423,cs),
(431,-423,o),
(366,-415,o),
(320,-399,c),
(350,-252,l),
(355,-252,l),
(382,-265,o),
(433,-286,o),
(484,-286,cs),
(619,-286,o),
(691,-231,o),
(711,-95,c),
(714,-67,o),
(716,-41,o),
(722,-9,c),
(721.808,-9.023,o),
(601.149,-27,o),
(633,-27,c)
);
}
);
width = 1154;
},
{
layerId = "6CF7F53B-663E-4569-94B0-B9FCEE5B09F0";
shapes = (
{
closed = 1;
nodes = (
(296,-27,o),
(53,238,o),
(154,743,cs),
(240,1171,o),
(544,1519,o),
(1044,1519,cs),
(1247,1519,o),
(1378,1483,o),
(1528,1395,c),
(1450,1002,l),
(1406,1002,l),
(1342,1072,o),
(1214,1203,o),
(1061,1203,cs),
(902,1203,o),
(666,1119,o),
(591,742,cs),
(524,408,o),
(692,285,o),
(880,285,cs),
(1086,285,o),
(1261,454,o),
(1308,486,c),
(1347,486,l),
(1269,98,l),
(1195,66,o),
(1090,24,o),
(1014,5,cs),
(1003,2,o),
(990,0,o),
(975,-4,c),
(970,-29,o),
(965,-67,o),
(961,-85,cs),
(917,-307,o),
(748,-423,o),
(544,-423,cs),
(499,-423,o),
(376,-410,o),
(341,-399,c),
(383,-186,l),
(406,-186,l),
(434,-200,o),
(501,-221,o),
(551,-221,cs),
(607,-221,o),
(664,-200,o),
(700,-155,c),
(727.737,-117.357,o),
(735.658,-68.423,o),
(764,-27,c),
(754.667,-27,o),
(745.333,-27,o),
(736,-27,cs)
);
}
);
width = 1374;
},
{
layerId = "C5AA7147-E6CF-43E6-A817-BB6994C58056";
shapes = (
{
closed = 1;
nodes = (
(290,-27,o),
(53,237,o),
(154,743,cs),
(241,1179,o),
(546,1518,o),
(1025,1518,cs),
(1224,1518,o),
(1353,1478,o),
(1494,1394,c),
(1423,1039,l),
(1386,1039,l),
(1325,1106,o),
(1200,1239,o),
(1028,1239,cs),
(844,1239,o),
(609,1121,o),
(533,742,cs),
(463,392,o),
(629,250,o),
(832,250,cs),
(1039,250,o),
(1213,404,o),
(1272,449,c),
(1305,449,l),
(1235,99,l),
(1160,66,o),
(1068,27,o),
(985,6,cs),
(974,3,o),
(962,1,o),
(950,-2,c),
(945,-26,o),
(941,-63,o),
(936,-86,cs),
(893,-302,o),
(731,-423,o),
(531,-423,cs),
(485,-423,o),
(374,-411,o),
(337,-399,c),
(377,-199,l),
(395,-199,l),
(423,-213,o),
(487,-234,o),
(537,-234,cs),
(609,-234,o),
(670,-206,o),
(703,-143,cs),
(722.053,-106.627,o),
(728.508,-66.628,o),
(737,-27,c),
(729.667,-27,o),
(722.333,-27,o),
(715,-27,cs)
);
}
);
width = 1330;
}
);
unicode = 199;
},
{
glyphname = D;
layers = (
{
layerId = "F13BA0ED-FC1D-44B0-ADA4-543E9A2824CE";
shapes = (
{
closed = 1;
nodes = (
(1304,359,o),
(1020,85,o),
(714,24,cs),
(634,8,o),
(537,0,o),
(419,0,cs),
(82,0,l),
(380,1489,l),
(712,1489,ls),
(989,1489,o),
(1113,1445,o),
(1211,1371,c),
(1373,1243,o),
(1439,1033,o),
(1381,743,cs)
);
},
{
closed = 1;
nodes = (
(1256,1127,o),
(1089,1319,o),
(688,1319,cs),
(664,1319,o),
(638,1319,o),
(614,1319,cs),
(540,1319,l),
(310,170,l),
(384,170,ls),
(580,170,o),
(730,176,o),
(882,269,cs),
(1034,362,o),
(1133,512,o),
(1180,746,cs)
);
}
);
width = 1346;
},
{
layerId = "1D873A00-654D-4240-B6DF-C2B832D3BA68";
shapes = (
{
closed = 1;
nodes = (
(1254,361,o),
(978,89,o),
(675,25,cs),
(600,8,o),
(500,0,o),
(377,0,cs),
(81,0,l),
(379,1489,l),
(701,1489,ls),
(990,1489,o),
(1086,1429,o),
(1164,1371,c),
(1323,1242,o),
(1388,1034,o),
(1330,743,cs)
);
},
{
closed = 1;
nodes = (
(1268,1155,o),
(1081,1359,o),
(648,1355,cs),
(626,1355,o),
(606,1355,o),
(585,1355,cs),
(488,1355,l),
(244,134,l),
(341,134,ls),
(546,134,o),
(714,145,o),
(877,246,cs),
(1034,345,o),
(1136,498,o),
(1186,746,cs)
);
}
);
width = 1293;
},
{
layerId = "6CF7F53B-663E-4569-94B0-B9FCEE5B09F0";
shapes = (
{
closed = 1;
nodes = (
(1510,350,o),
(1189,69,o),
(869,20,c),
(772,7,o),
(678,0,o),
(583,0,cs),
(86,0,l),
(384,1489,l),
(756,1489,ls),
(984,1489,o),
(1218,1508,o),
(1399,1372,cs),
(1569,1246,o),
(1646,1029,o),
(1589,743,cs)
);
},
{
closed = 1;
nodes = (
(1209,1016,o),
(1121,1160,o),
(846,1174,cs),
(811,1175,o),
(770,1175,o),
(729,1175,c),
(745,1175,l),
(573,315,l),
(558,315,l),
(718,315,o),
(794,301,o),
(900,360,cs),
(1031,431,o),
(1119,568,o),
(1155,746,cs)
);
}
);
width = 1557;
},
{
layerId = "C5AA7147-E6CF-43E6-A817-BB6994C58056";
shapes = (
{
closed = 1;
nodes = (
(1459,352,o),
(1147,73,o),
(830,21,cs),
(738,7,o),
(643,0,o),
(542,0,cs),
(85,0,l),
(383,1489,l),
(745,1489,ls),
(985,1489,o),
(1192,1492,o),
(1352,1372,c),
(1520,1245,o),
(1594,1030,o),
(1537,743,cs)
);
},
{
closed = 1;
nodes = (
(1221,1044,o),
(1113,1200,o),
(806,1210,cs),
(774,1211,o),
(738,1211,o),
(701,1211,cs),
(694,1211,l),
(507,279,l),
(514,279,ls),
(683,279,o),
(778,270,o),
(895,337,cs),
(1031,414,o),
(1123,554,o),
(1161,746,cs)
);
}
);
width = 1504;
}
);
unicode = 68;
},
{
glyphname = Delta;
layers = (
{
layerId = "F13BA0ED-FC1D-44B0-ADA4-543E9A2824CE";
shapes = (
{
closed = 1;
nodes = (
(1198,0,l),
(-64,0,l),
(745,1489,l),
(984,1489,l)
);
},
{
closed = 1;
nodes = (
(970,172,l),
(820,1292,l),
(224,172,l)
);
}
);
width = 1244;
},
{
layerId = "1D873A00-654D-4240-B6DF-C2B832D3BA68";
shapes = (
{
closed = 1;
nodes = (
(1142,0,l),
(-65,0,l),
(743,1489,l),
(929,1489,l)
);
},
{
closed = 1;
nodes = (
(973,137,l),
(807,1368,l),
(152,137,l)
);
}
);
width = 1187;
},
{
layerId = "6CF7F53B-663E-4569-94B0-B9FCEE5B09F0";
shapes = (
{
closed = 1;
nodes = (
(1420,0,l),
(-60,0,l),
(752,1489,l),
(1204,1489,l)
);
},
{
closed = 1;
nodes = (
(958,312,l),
(873,989,l),
(515,312,l)
);
}
);
width = 1470;
},
{
layerId = "C5AA7147-E6CF-43E6-A817-BB6994C58056";
shapes = (
{
closed = 1;
nodes = (
(1364,0,l),
(-60,0,l),
(750,1489,l),
(1149,1489,l)
);
},
{
closed = 1;
nodes = (
(961,277,l),
(860,1065,l),
(443,277,l)
);
}
);
width = 1413;
}
);
unicode = 8710;
},
{
glyphname = Dslash;
layers = (
{
layerId = "F13BA0ED-FC1D-44B0-ADA4-543E9A2824CE";
shapes = (
{
closed = 1;
nodes = (
(1354,361,o),
(1064,79,o),
(764,22,cs),
(685,7,o),
(586,0,o),
(468,0,cs),
(131,0,l),
(279,740,l),
(115,740,l),
(143,883,l),
(308,883,l),
(429,1489,l),
(761,1489,ls),
(1038,1489,o),
(1162,1445,o),
(1260,1371,c),
(1422,1243,o),
(1488,1033,o),
(1430,743,cs)
);
},
{
closed = 1;
nodes = (
(1307,1134,o),
(1131,1319,o),
(737,1319,cs),
(713,1319,o),
(687,1319,o),
(663,1319,cs),
(589,1319,l),
(502,883,l),
(822,883,l),
(794,740,l),
(473,740,l),
(359,170,l),
(507,170,ls),
(864,170,o),
(1141,305,o),
(1229,746,cs)
);
}
);
width = 1395;
},
{
layerId = "1D873A00-654D-4240-B6DF-C2B832D3BA68";
shapes = (
{
closed = 1;
nodes = (
(1304,364,o),
(1022,81,o),
(728,22,cs),
(652,7,o),
(551,0,o),
(428,0,cs),
(132,0,l),
(284,760,l),
(121,760,l),
(143,874,l),
(307,874,l),
(430,1489,l),
(783,1489,ls),
(1061,1489,o),
(1144,1424,o),
(1215,1371,c),
(1375,1242,o),
(1438,1035,o),
(1380,743,cs)
);
},
{
closed = 1;
nodes = (
(1322,1165,o),
(1122,1358,o),
(700,1355,cs),
(677,1355,o),
(656,1355,o),
(635,1355,cs),
(540,1355,l),
(444,874,l),
(767,874,l),
(744,760,l),
(421,760,l),
(296,134,l),
(471,134,ls),
(866,134,o),
(1149,300,o),
(1238,746,cs)
);
}
);
width = 1344;
},
{
layerId = "6CF7F53B-663E-4569-94B0-B9FCEE5B09F0";
shapes = (
{
closed = 1;
nodes = (
(1551,348,o),
(1237,72,o),
(910,22,cs),
(814,7,o),
(719,0,o),
(624,0,cs),
(128,0,l),
(260,661,l),
(92,661,l),
(143,919,l),
(312,919,l),
(426,1489,l),
(677,1489,ls),
(948,1489,o),
(1234,1528,o),
(1440,1372,cs),
(1608,1246,o),
(1687,1026,o),
(1630,743,cs)
);
},
{
closed = 1;
nodes = (
(1248,1011,o),
(1166,1162,o),
(886,1174,cs),
(852,1175,o),
(812,1175,o),
(771,1175,c),
(784,1175,l),
(733,919,l),
(1045,919,l),
(993,661,l),
(682,661,l),
(612,315,l),
(656,315,ls),
(859,315,o),
(1111,326,o),
(1195,746,cs)
);
}
);
width = 1598;
},
{
layerId = "C5AA7147-E6CF-43E6-A817-BB6994C58056";
shapes = (
{
closed = 1;
nodes = (
(1502,351,o),
(1193,74,o),
(873,22,cs),
(781,7,o),
(686,0,o),
(585,0,cs),
(129,0,l),
(265,681,l),
(97,681,l),
(143,910,l),
(311,910,l),
(426,1489,l),
(698,1489,ls),
(970,1489,o),
(1216,1507,o),
(1395,1372,c),
(1562,1245,o),
(1637,1028,o),
(1580,743,cs)
);
},
{
closed = 1;
nodes = (
(1263,1042,o),
(1157,1201,o),
(849,1210,cs),
(817,1211,o),
(780,1211,o),
(743,1211,cs),
(736,1211,l),
(675,910,l),
(989,910,l),
(943,681,l),
(630,681,l),
(549,279,l),
(619,279,ls),
(860,279,o),
(1119,321,o),
(1204,746,cs)
);
}
);
width = 1547;
}
);
unicode = 272;
},
{
glyphname = E;
layers = (
{
layerId = "F13BA0ED-FC1D-44B0-ADA4-543E9A2824CE";
shapes = (
{
closed = 1;
nodes = (
(82,0,l),
(380,1489,l),
(1292,1489,l),
(1257,1313,l),
(539,1313,l),
(457,905,l),
(1127,905,l),
(1091,729,l),
(422,729,l),
(312,176,l),
(1030,176,l),
(995,0,l)
);
}
);
width = 1110;
},
{
layerId = "1D873A00-654D-4240-B6DF-C2B832D3BA68";
shapes = (
{
closed = 1;
nodes = (
(81,0,l),
(379,1489,l),
(1267,1489,l),
(1239,1349,l),
(488,1349,l),
(397,892,l),
(1099,892,l),
(1071,752,l),
(369,752,l),
(247,140,l),
(997,140,l),
(969,0,l)
);
}
);
width = 1075;
},
{
layerId = "6CF7F53B-663E-4569-94B0-B9FCEE5B09F0";
shapes = (
{
closed = 1;
nodes = (
(86,0,l),
(384,1489,l),
(1395,1489,l),
(1331,1169,l),
(741,1169,l),
(699,957,l),
(1240,957,l),
(1176,637,l),
(635,637,l),
(571,320,l),
(1161,320,l),
(1097,0,l)
);
}
);
width = 1252;
},
{
layerId = "C5AA7147-E6CF-43E6-A817-BB6994C58056";
shapes = (
{
closed = 1;
nodes = (
(85,0,l),
(383,1489,l),
(1370,1489,l),
(1313,1205,l),
(690,1205,l),
(638,944,l),
(1212,944,l),
(1155,660,l),
(582,660,l),
(506,284,l),
(1129,284,l),
(1072,0,l)
);
}
);
width = 1217;
}
);
unicode = 69;
},
{
glyphname = Eng;
layers = (
{
layerId = "F13BA0ED-FC1D-44B0-ADA4-543E9A2824CE";
shapes = (
{
closed = 1;
nodes = (
(520,1284,l),
(264,0,l),
(82,0,l),
(380,1489,l),
(655,1489,l),
(1019,371,l),
(1242,1489,l),
(1424,1489,l),
(1121,-27,ls),
(1070,-281,o),
(899,-423,o),
(665,-423,cs),
(624,-423,o),
(570,-419,o),
(526,-411,c),
(559,-243,l),
(570,-243,l),
(595,-249,o),
(632,-256,o),
(663,-256,cs),
(845,-256,o),
(911,-175,o),
(944,-11,c)
);
}
);
width = 1318;
},
{
layerId = "1D873A00-654D-4240-B6DF-C2B832D3BA68";
shapes = (
{
closed = 1;
nodes = (
(485,1366,l),
(212,0,l),
(81,0,l),
(379,1489,l),
(597,1489,l),
(980,268,l),
(1224,1489,l),
(1354,1489,l),
(1051,-30,ls),
(1000,-284,o),
(838,-423,o),
(603,-423,cs),
(590,-423,o),
(553,-422,o),
(508,-416,c),
(536,-278,l),
(541,-278,l),
(562,-281,o),
(583,-287,o),
(615,-287,cs),
(829,-287,o),
(888,-187,o),
(923,-14,c)
);
}
);
width = 1249;
},
{
layerId = "6CF7F53B-663E-4569-94B0-B9FCEE5B09F0";
shapes = (
{
closed = 1;
nodes = (
(1031,42,l),
(663,956,l),
(472,0,l),
(86,0,l),
(384,1489,l),
(891,1489,l),
(1175,783,l),
(1317,1489,l),
(1703,1489,l),
(1402,-15,ls),
(1351,-269,o),
(1145,-423,o),
(915,-423,cs),
(761,-423,o),
(640,-406,o),
(595,-392,c),
(652,-104,l),
(684,-104,l),
(726,-120,o),
(828,-132,o),
(857,-132,cs),
(913,-132,o),
(997,-128,o),
(1023,0,cs)
);
}
);
width = 1593;
},
{
layerId = "C5AA7147-E6CF-43E6-A817-BB6994C58056";
shapes = (
{
closed = 1;
nodes = (
(1009,29,l),
(628,1038,l),
(420,0,l),
(85,0,l),
(383,1489,l),
(832,1489,l),
(1136,680,l),
(1298,1489,l),
(1633,1489,l),
(1332,-18,ls),
(1281,-272,o),
(1083,-423,o),
(852,-423,cs),
(727,-423,o),
(623,-409,o),
(577,-397,c),
(629,-139,l),
(655,-139,l),
(693,-152,o),
(779,-163,o),
(809,-163,cs),
(896,-163,o),
(976,-140,o),
(1003,-3,c)
);
}
);
width = 1525;
}
);
unicode = 330;
},
{
glyphname = Eogonek;
layers = (
{
layerId = "F13BA0ED-FC1D-44B0-ADA4-543E9A2824CE";
shapes = (
{
closed = 1;
nodes = (
(82,0,l),
(380,1489,l),
(1292,1489,l),
(1257,1313,l),
(539,1313,l),
(457,905,l),
(1127,905,l),
(1091,729,l),
(422,729,l),
(312,176,l),
(1030,176,l),
(995,0,l),
(771,0,l),
(754,-39,o),
(746,-53,o),
(735,-107,cs),
(714,-213,o),
(736,-268,o),
(854,-268,cs),
(894,-268,o),
(948,-251,o),
(975,-238,c),
(983,-238,l),
(952,-396,l),
(904,-408,o),
(842,-417,o),
(800,-417,cs),
(639,-417,o),
(536,-319,o),
(576,-117,cs),
(580,-95,o),
(585,-74,o),
(593,-56,c),
(600,-38,o),
(606,-20,o),
(616,0,c)
);
}
);
width = 1113;
},
{
layerId = "1D873A00-654D-4240-B6DF-C2B832D3BA68";
shapes = (
{
closed = 1;
nodes = (
(81,0,l),
(379,1489,l),
(1267,1489,l),
(1239,1349,l),
(488,1349,l),
(397,892,l),
(1099,892,l),
(1071,752,l),
(369,752,l),
(247,140,l),
(997,140,l),
(969,0,l),
(756,0,l),
(738,-43,o),
(728,-52,o),
(715,-115,cs),
(693,-227,o),
(704,-282,o),
(827,-282,cs),
(866,-282,o),
(914,-264,o),
(936,-253,c),
(945,-253,l),
(917,-397,l),
(872,-407,o),
(822,-417,o),
(781,-417,cs),
(627,-417,o),
(522,-313,o),
(577,-92,c),
(584,-72,o),
(588,-54,o),
(595,-42,cs),
(601,-33,o),
(607,-19,o),
(618,0,c)
);
}
);
width = 1077;
},
{
layerId = "6CF7F53B-663E-4569-94B0-B9FCEE5B09F0";
shapes = (
{
closed = 1;
nodes = (
(86,0,l),
(384,1489,l),
(1395,1489,l),
(1331,1169,l),
(741,1169,l),
(699,957,l),
(1240,957,l),
(1176,637,l),
(635,637,l),
(571,320,l),
(1161,320,l),
(1097,0,l),
(833,0,l),
(825,-24,o),
(821,-57,o),
(817,-76,cs),
(801,-157,o),
(868,-213,o),
(962,-213,cs),
(1008,-213,o),
(1080,-200,o),
(1128,-178,c),
(1137,-178,l),
(1095,-392,l),
(1032,-411,o),
(920,-417,o),
(874,-417,cs),
(687,-417,o),
(594,-344,o),
(575,-218,c),
(571,-187,o),
(574,-153,o),
(581,-113,cs),
(591,-59,o),
(601,-25,o),
(606,0,c)
);
}
);
width = 1257;
},
{
layerId = "C5AA7147-E6CF-43E6-A817-BB6994C58056";
shapes = (
{
closed = 1;
nodes = (
(85,0,l),
(383,1489,l),
(1370,1489,l),
(1313,1205,l),
(690,1205,l),
(638,944,l),
(1212,944,l),
(1155,660,l),
(582,660,l),
(506,284,l),
(1129,284,l),
(1072,0,l),
(817,0,l),
(807,-28,o),
(802,-56,o),
(796,-84,cs),
(779,-171,o),
(835,-227,o),
(935,-227,cs),
(980,-227,o),
(1047,-213,o),
(1090,-193,c),
(1099,-193,l),
(1059,-393,l),
(1000,-410,o),
(900,-417,o),
(855,-417,cs),
(675,-417,o),
(579,-338,o),
(575,-193,cs),
(574,-164,o),
(577,-133,o),
(584,-99,cs),
(593,-54,o),
(602,-24,o),
(608,0,c)
);
}
);
width = 1221;
}
);
unicode = 280;
},
{
glyphname = Eth;
layers = (
{
layerId = "F13BA0ED-FC1D-44B0-ADA4-543E9A2824CE";
shapes = (
{
closed = 1;
nodes = (
(1354,361,o),
(1064,79,o),
(764,22,cs),
(685,7,o),
(586,0,o),
(468,0,cs),
(131,0,l),
(279,740,l),
(115,740,l),
(143,883,l),
(308,883,l),
(429,1489,l),
(761,1489,ls),
(1038,1489,o),
(1162,1445,o),
(1260,1371,c),
(1422,1243,o),
(1488,1033,o),
(1430,743,cs)
);
},
{
closed = 1;
nodes = (
(1305,1127,o),
(1138,1319,o),
(737,1319,cs),
(713,1319,o),
(687,1319,o),
(663,1319,cs),
(589,1319,l),
(502,883,l),
(822,883,l),
(794,740,l),
(473,740,l),
(359,170,l),
(433,170,ls),
(629,170,o),
(779,176,o),
(931,269,cs),
(1083,362,o),
(1182,512,o),
(1229,746,cs)
);
}
);
width = 1395;
},
{
layerId = "1D873A00-654D-4240-B6DF-C2B832D3BA68";
shapes = (
{
closed = 1;
nodes = (
(1305,366,o),
(1024,81,o),
(728,22,cs),
(652,7,o),
(551,0,o),
(428,0,cs),
(132,0,l),
(284,760,l),
(121,760,l),
(143,874,l),
(307,874,l),
(430,1489,l),
(752,1489,ls),
(1042,1489,o),
(1138,1429,o),
(1215,1371,c),
(1375,1242,o),
(1438,1033,o),
(1380,743,cs)
);
},
{
closed = 1;
nodes = (
(1320,1154,o),
(1132,1359,o),
(700,1355,cs),
(677,1355,o),
(656,1355,o),
(635,1355,cs),
(540,1355,l),
(444,874,l),
(767,874,l),
(744,760,l),
(421,760,l),
(296,134,l),
(391,134,ls),
(594,134,o),
(765,145,o),
(928,246,cs),
(1085,345,o),
(1188,498,o),
(1238,746,cs)
);
}
);
width = 1344;
},
{
layerId = "6CF7F53B-663E-4569-94B0-B9FCEE5B09F0";
shapes = (
{
closed = 1;
nodes = (
(1550,341,o),
(1228,71,o),
(910,22,cs),
(814,7,o),
(719,0,o),
(624,0,cs),
(128,0,l),
(260,661,l),
(92,661,l),
(143,919,l),
(312,919,l),
(426,1489,l),
(797,1489,ls),
(1024,1489,o),
(1258,1508,o),
(1440,1372,cs),
(1607,1248,o),
(1688,1032,o),
(1630,743,cs)
);
},
{
closed = 1;
nodes = (
(1249,1018,o),
(1161,1160,o),
(886,1174,cs),
(852,1175,o),
(812,1175,o),
(771,1175,c),
(784,1175,l),
(733,919,l),
(1045,919,l),
(993,661,l),
(682,661,l),
(612,315,l),
(599,315,l),
(768,315,o),
(837,301,o),
(941,360,c),
(1074,431,o),
(1160,569,o),
(1195,746,cs)
);
}
);
width = 1598;
},
{
layerId = "C5AA7147-E6CF-43E6-A817-BB6994C58056";
shapes = (
{
closed = 1;
nodes = (
(1501,346,o),
(1187,73,o),
(873,22,cs),
(781,7,o),
(686,0,o),
(585,0,cs),
(129,0,l),
(265,681,l),
(97,681,l),
(143,910,l),
(311,910,l),
(426,1489,l),
(788,1489,ls),
(1028,1489,o),
(1235,1492,o),
(1395,1372,c),
(1561,1247,o),
(1638,1032,o),
(1580,743,cs)
);
},
{
closed = 1;
nodes = (
(1264,1045,o),
(1155,1200,o),
(849,1210,cs),
(817,1211,o),
(780,1211,o),
(743,1211,cs),
(736,1211,l),
(675,910,l),
(989,910,l),
(943,681,l),
(630,681,l),
(549,279,l),
(557,279,ls),
(732,279,o),
(823,270,o),
(938,337,cs),
(1076,414,o),
(1166,555,o),
(1204,746,cs)
);
}
);
width = 1547;
}
);
unicode = 208;
},
{
glyphname = Euro;
layers = (
{
layerId = "F13BA0ED-FC1D-44B0-ADA4-543E9A2824CE";
shapes = (
{
closed = 1;
nodes = (
(1005,662,l),
(951,524,l),
(344,524,l),
(356,281,o),
(483,144,o),
(695,144,cs),
(817,144,o),
(928,174,o),
(1031,236,c),
(1045,236,l),
(1006,43,l),
(885,-3,o),
(770,-27,o),
(660,-27,cs),
(320,-27,o),
(132,174,o),
(136,524,c),
(24,524,l),
(79,662,l),
(147,662,l),
(150,688,o),
(154,715,o),
(160,743,cs),
(164,762,o),
(167,781,o),
(172,800,c),
(79,800,l),
(134,938,l),
(216,938,l),
(348,1297,o),
(628,1516,o),
(971,1516,cs),
(1087,1516,o),
(1192,1492,o),
(1286,1445,c),
(1247,1250,l),
(1232,1250,l),
(1153,1314,o),
(1053,1347,o),
(935,1347,cs),
(710,1347,o),
(527,1196,o),
(421,938,c),
(1115,938,l),
(1061,800,l),
(375,800,l),
(369,781,o),
(366,762,o),
(362,743,cs),
(356,715,o),
(352,688,o),
(349,662,c)
);
}
);
width = 1084;
},
{
layerId = "1D873A00-654D-4240-B6DF-C2B832D3BA68";
shapes = (
{
closed = 1;
nodes = (
(1005,662,l),
(957,541,l),
(279,541,l),
(282,267,o),
(421,109,o),
(648,109,cs),
(775,109,o),
(884,133,o),
(974,182,c),
(980,182,l),
(951,36,l),
(841,-5,o),
(736,-26,o),
(639,-26,cs),
(303,-26,o),
(121,182,o),
(134,541,c),
(30,541,l),
(79,662,l),
(147,662,l),
(150,688,o),
(154,715,o),
(160,743,cs),
(164,762,o),
(167,781,o),
(172,800,c),
(82,800,l),
(131,921,l),
(208,921,l),
(335,1289,o),
(611,1515,o),
(951,1515,cs),
(1056,1515,o),
(1151,1494,o),
(1234,1452,c),
(1204,1303,l),
(1195,1303,l),
(1123,1355,o),
(1024,1383,o),
(902,1383,cs),
(660,1383,o),
(461,1210,o),
(350,921,c),
(1109,921,l),
(1061,800,l),
(316,800,l),
(309,781,o),
(307,762,o),
(303,743,cs),
(297,715,o),
(293,688,o),
(289,662,c)
);
}
);
width = 1022;
},
{
layerId = "6CF7F53B-663E-4569-94B0-B9FCEE5B09F0";
shapes = (
{
closed = 1;
nodes = (
(1006,662,l),
(926,457,l),
(603,457,l),
(651,338,o),
(737,284,o),
(886,284,cs),
(983,284,o),
(1107,339,o),
(1260,451,c),
(1305,451,l),
(1229,71,l),
(1065,4,o),
(903,-30,o),
(743,-30,cs),
(388,-30,o),
(172,142,o),
(142,457,c),
(-1,457,l),
(80,662,l),
(149,662,l),
(152,689,o),
(157,716,o),
(162,743,cs),
(166,762,o),
(169,781,o),
(174,800,c),
(68,800,l),
(149,1005,l),
(247,1005,l),
(400,1329,o),
(695,1519,o),
(1052,1519,cs),
(1209,1519,o),
(1357,1485,o),
(1498,1417,c),
(1423,1039,l),
(1379,1039,l),
(1271,1149,o),
(1166,1203,o),
(1068,1203,cs),
(910,1203,o),
(791,1139,o),
(701,1005,c),
(1142,1005,l),
(1062,800,l),
(612,800,l),
(608,781,o),
(603,761,o),
(599,742,cs),
(594,715,o),
(589,688,o),
(588,662,c)
);
}
);
width = 1328;
},
{
layerId = "C5AA7147-E6CF-43E6-A817-BB6994C58056";
shapes = (
{
closed = 1;
nodes = (
(1006,662,l),
(932,474,l),
(538,474,l),
(577,324,o),
(673,249,o),
(838,249,cs),
(941,249,o),
(1063,298,o),
(1203,397,c),
(1240,397,l),
(1174,64,l),
(1020,2,o),
(869,-29,o),
(722,-29,cs),
(371,-29,o),
(161,150,o),
(140,474,c),
(5,474,l),
(80,662,l),
(149,662,l),
(152,689,o),
(157,716,o),
(162,743,cs),
(166,762,o),
(169,781,o),
(174,800,c),
(70,800,l),
(145,988,l),
(239,988,l),
(387,1321,o),
(678,1518,o),
(1032,1518,cs),
(1178,1518,o),
(1315,1487,o),
(1445,1424,c),
(1379,1092,l),
(1342,1092,l),
(1241,1190,o),
(1138,1239,o),
(1035,1239,cs),
(861,1239,o),
(726,1153,o),
(631,988,c),
(1136,988,l),
(1062,800,l),
(553,800,l),
(548,781,o),
(544,761,o),
(540,742,cs),
(535,715,o),
(530,688,o),
(528,662,c)
);
}
);
width = 1267;
}
);
unicode = 8364;
},
{
glyphname = F;
layers = (
{
layerId = "F13BA0ED-FC1D-44B0-ADA4-543E9A2824CE";
shapes = (
{
closed = 1;
nodes = (
(1218,1313,l),
(539,1313,l),
(455,893,l),
(1106,893,l),
(1070,717,l),
(420,717,l),
(276,0,l),
(82,0,l),
(380,1489,l),
(1253,1489,l)
);
}
);
width = 1034;
},
{
layerId = "1D873A00-654D-4240-B6DF-C2B832D3BA68";
shapes = (
{
closed = 1;
nodes = (
(1190,1349,l),
(488,1349,l),
(395,883,l),
(1075,883,l),
(1047,743,l),
(367,743,l),
(219,0,l),
(81,0,l),
(379,1489,l),
(1218,1489,l)
);
}
);
width = 994;
},
{
layerId = "6CF7F53B-663E-4569-94B0-B9FCEE5B09F0";
shapes = (
{
closed = 1;
nodes = (
(1331,1169,l),
(741,1169,l),
(694,934,l),
(1228,934,l),
(1164,614,l),
(630,614,l),
(507,0,l),
(86,0,l),
(384,1489,l),
(1395,1489,l)
);
}
);
width = 1192;
},
{
layerId = "C5AA7147-E6CF-43E6-A817-BB6994C58056";
shapes = (
{
closed = 1;
nodes = (
(1303,1205,l),
(690,1205,l),
(634,924,l),
(1198,924,l),
(1141,640,l),
(578,640,l),
(450,0,l),
(85,0,l),
(383,1489,l),
(1360,1489,l)
);
}
);
width = 1152;
}
);
unicode = 70;
},
{
glyphname = G;
layers = (
{
layerId = "F13BA0ED-FC1D-44B0-ADA4-543E9A2824CE";
shapes = (
{
closed = 1;
nodes = (
(277,-29,o),
(51,229,o),
(154,746,cs),
(246,1204,o),
(563,1516,o),
(1004,1516,cs),
(1185,1516,o),
(1306,1465,o),
(1455,1388,c),
(1408,1149,l),
(1391,1149,l),
(1340,1204,o),
(1280,1276,o),
(1107,1325,cs),
(1059,1339,o),
(1004,1345,o),
(946,1345,cs),
(664,1345,o),
(428,1108,o),
(357,752,cs),
(279,360,o),
(424,142,o),
(719,142,cs),
(774,142,o),
(829,146,o),
(885,154,cs),
(940,162,o),
(990,174,o),
(1030,190,c),
(1107,575,l),
(770,575,l),
(804,749,l),
(1334,749,l),
(1204,99,l),
(1017,19,o),
(830,-29,o),
(693,-29,cs)
);
}
);
width = 1328;
},
{
layerId = "1D873A00-654D-4240-B6DF-C2B832D3BA68";
shapes = (
{
closed = 1;
nodes = (
(264,-28,o),
(51,229,o),
(154,746,cs),
(247,1211,o),
(561,1515,o),
(981,1515,cs),
(1142,1515,o),
(1267,1463,o),
(1414,1389,c),
(1373,1186,l),
(1362,1186,l),
(1317,1238,o),
(1269,1302,o),
(1086,1357,cs),
(1032,1373,o),
(971,1380,o),
(906,1380,cs),
(610,1380,o),
(371,1117,o),
(298,752,cs),
(212,322,o),
(379,90,o),
(694,105,cs),
(755,107,o),
(816,114,o),
(877,124,cs),
(942,135,o),
(994,151,o),
(1038,171,c),
(1121,587,l),
(766,587,l),
(794,726,l),
(1287,726,l),
(1163,104,l),
(959,15,o),
(791,-28,o),
(674,-28,cs)
);
}
);
width = 1276;
},
{
layerId = "6CF7F53B-663E-4569-94B0-B9FCEE5B09F0";
shapes = (
{
closed = 1;
nodes = (
(326,-32,o),
(52,230,o),
(155,746,cs),
(241,1177,o),
(572,1519,o),
(1095,1519,cs),
(1357,1519,o),
(1464,1474,o),
(1623,1385,c),
(1546,1000,l),
(1507,1000,l),
(1433,1068,o),
(1327,1171,o),
(1190,1197,cs),
(1164,1202,o),
(1135,1205,o),
(1107,1205,cs),
(880,1205,o),
(657,1073,o),
(593,752,cs),
(545,512,o),
(602,349,o),
(819,290,c),
(849,281,o),
(883,275,o),
(921,273,c),
(938,270,o),
(974,267,o),
(997,266,c),
(1049,527,l),
(784,527,l),
(846,841,l),
(1521,841,l),
(1368,80,l),
(1251,35,o),
(992,-32,o),
(772,-32,cs)
);
}
);
width = 1533;
},
{
layerId = "C5AA7147-E6CF-43E6-A817-BB6994C58056";
shapes = (
{
closed = 1;
nodes = (
(313,-31,o),
(52,230,o),
(155,746,cs),
(243,1184,o),
(570,1518,o),
(1073,1518,cs),
(1314,1518,o),
(1425,1472,o),
(1581,1386,c),
(1512,1037,l),
(1478,1037,l),
(1410,1102,o),
(1315,1197,o),
(1169,1229,cs),
(1137,1236,o),
(1102,1240,o),
(1067,1240,cs),
(826,1240,o),
(601,1082,o),
(535,752,cs),
(479,474,o),
(558,297,o),
(794,253,cs),
(830,246,o),
(870,243,o),
(912,243,cs),
(938,243,o),
(978,244,o),
(1005,247,c),
(1063,539,l),
(780,539,l),
(836,818,l),
(1474,818,l),
(1327,85,l),
(1193,31,o),
(951,-31,o),
(752,-31,cs)
);
}
);
width = 1481;
}
);
unicode = 71;
},
{
glyphname = Gamma;
layers = (
{
layerId = "F13BA0ED-FC1D-44B0-ADA4-543E9A2824CE";
shapes = (
{
closed = 1;
nodes = (
(1210,1313,l),
(539,1313,l),
(276,0,l),
(82,0,l),
(380,1489,l),
(1245,1489,l)
);
}
);
width = 1007;
},
{
layerId = "1D873A00-654D-4240-B6DF-C2B832D3BA68";
shapes = (
{
closed = 1;
nodes = (
(1177,1349,l),
(487,1349,l),
(218,0,l),
(81,0,l),
(379,1489,l),
(1205,1489,l)
);
}
);
width = 968;
},
{
layerId = "6CF7F53B-663E-4569-94B0-B9FCEE5B09F0";
shapes = (
{
closed = 1;
nodes = (
(1343,1169,l),
(744,1169,l),
(510,0,l),
(86,0,l),
(384,1489,l),
(1407,1489,l)
);
}
);
width = 1163;
},
{
layerId = "C5AA7147-E6CF-43E6-A817-BB6994C58056";
shapes = (
{
closed = 1;
nodes = (
(1310,1205,l),
(692,1205,l),
(452,0,l),
(85,0,l),
(383,1489,l),
(1367,1489,l)
);
}
);
width = 1124;
}
);
unicode = 915;
},
{
glyphname = Gcedilla;
layers = (
{
layerId = "F13BA0ED-FC1D-44B0-ADA4-543E9A2824CE";
shapes = (
{
closed = 1;
nodes = (
(277,-28,o),
(50,225,o),
(154,746,cs),
(246,1204,o),
(563,1516,o),
(1004,1516,cs),
(1185,1516,o),
(1306,1465,o),
(1455,1388,c),
(1408,1149,l),
(1391,1149,l),
(1340,1204,o),
(1280,1276,o),
(1107,1325,cs),
(1059,1339,o),
(1004,1345,o),
(946,1345,cs),
(663,1345,o),
(428,1107,o),
(357,752,cs),
(279,360,o),
(424,142,o),
(719,142,cs),
(774,142,o),
(829,146,o),
(885,154,cs),
(940,162,o),
(990,174,o),
(1030,190,c),
(1107,575,l),
(770,575,l),
(804,749,l),
(1334,749,l),
(1204,99,l),
(1130,67,o),
(956,8,o),
(904,-2,cs),
(888,-5,o),
(872,-8,o),
(857,-12,c),
(855,-21,o),
(854,-32,o),
(852,-45,cs),
(851,-57,o),
(848,-72,o),
(845,-89,cs),
(802,-306,o),
(646,-423,o),
(475,-423,cs),
(427,-423,o),
(351,-414,o),
(307,-399,c),
(339,-239,l),
(347,-239,l),
(374,-252,o),
(429,-273,o),
(480,-273,cs),
(601,-273,o),
(670,-224,o),
(693,-107,cs),
(698,-83,o),
(701,-58,o),
(707,-28,c),
(702.333,-28,o),
(697.667,-28,o),
(693,-28,c)
);
}
);
width = 1328;
},
{
layerId = "1D873A00-654D-4240-B6DF-C2B832D3BA68";
shapes = (
{
closed = 1;
nodes = (
(265,-28,o),
(50,224,o),
(154,746,cs),
(247,1209,o),
(559,1515,o),
(981,1515,cs),
(1140,1515,o),
(1265,1464,o),
(1414,1389,c),
(1373,1186,l),
(1362,1186,l),
(1317,1237,o),
(1270,1300,o),
(1090,1356,cs),
(1036,1373,o),
(973,1380,o),
(906,1380,cs),
(609,1380,o),
(371,1115,o),
(298,752,cs),
(214,330,o),
(373,95,o),
(686,106,c),
(750,108,o),
(813,114,o),
(877,124,cs),
(942,135,o),
(994,151,o),
(1038,171,c),
(1121,587,l),
(766,587,l),
(794,726,l),
(1287,726,l),
(1163,104,l),
(1091,71,o),
(896,4,o),
(864,-3,c),
(848,-6,o),
(833,-9,o),
(818,-13,c),
(817,-18,o),
(815,-22,o),
(814,-31,c),
(815,-35,o),
(816,-44,o),
(816,-57,c),
(779,-295,o),
(620,-423,o),
(448,-423,cs),
(397,-423,o),
(334,-415,o),
(288,-399,c),
(317,-252,l),
(322,-252,l),
(349,-265,o),
(401,-286,o),
(452,-286,cs),
(586,-286,o),
(658,-233,o),
(678,-102,cs),
(682,-75,o),
(681.149,-62,o),
(688.149,-28,c),
(683.432,-28,o),
(678.716,-28,o),
(674,-28,c)
);
}
);
width = 1276;
},
{
layerId = "6CF7F53B-663E-4569-94B0-B9FCEE5B09F0";
shapes = (
{
closed = 1;
nodes = (
(327,-29,o),
(52,229,o),
(155,746,cs),
(243,1184,o),
(578,1519,o),
(1095,1519,cs),
(1366,1519,o),
(1470,1469,o),
(1623,1385,c),
(1546,1000,l),
(1507,1000,l),
(1430,1071,o),
(1319,1179,o),
(1171,1201,c),
(1150,1203,o),
(1129,1205,o),
(1107,1205,cs),
(879,1205,o),
(657,1074,o),
(593,752,cs),
(539,481,o),
(631,329,o),
(853,285,c),
(872,279,o),
(895,275,o),
(921,273,c),
(938,270,o),
(974,267,o),
(997,266,c),
(1049,527,l),
(784,527,l),
(846,841,l),
(1521,841,l),
(1368,80,l),
(1286,52,o),
(1199,25,o),
(1066,1,cs),
(1050,-2,o),
(1031,-5,o),
(1015,-8,c),
(1011,-32,o),
(1006,-72,o),
(1000,-100,cs),
(990,-144,o),
(978,-184,o),
(961,-218,c),
(890,-349,o),
(747,-423,o),
(585,-423,cs),
(548,-423,o),
(417,-410,o),
(382,-399,c),
(425,-186,l),
(447,-186,l),
(475,-200,o),
(542,-221,o),
(592,-221,cs),
(659,-221,o),
(720,-187,o),
(756,-127,c),
(771.546,-95.907,o),
(776.419,-62.002,o),
(786,-29,c),
(781.333,-29,o),
(776.667,-29,o),
(772,-29,cs)
);
}
);
width = 1533;
},
{
layerId = "C5AA7147-E6CF-43E6-A817-BB6994C58056";
shapes = (
{
closed = 1;
nodes = (
(315,-29,o),
(51,228,o),
(155,746,cs),
(244,1189,o),
(574,1518,o),
(1073,1518,cs),
(1322,1518,o),
(1429,1468,o),
(1581,1386,c),
(1512,1037,l),
(1478,1037,l),
(1407,1104,o),
(1310,1203,o),
(1155,1232,cs),
(1128,1237,o),
(1097,1240,o),
(1067,1240,cs),
(825,1240,o),
(601,1082,o),
(535,752,cs),
(475,451,o),
(579,282,o),
(819,249,cs),
(848,245,o),
(879,243,o),
(912,243,cs),
(938,243,o),
(978,244,o),
(1005,247,c),
(1063,539,l),
(780,539,l),
(836,818,l),
(1474,818,l),
(1327,85,l),
(1247,56,o),
(1138,21,o),
(1025,0,cs),
(1009,-3,o),
(991,-6,o),
(975,-9,c),
(972,-29,o),
(968,-62,o),
(963,-86,cs),
(956,-122,o),
(945,-156,o),
(932,-186,cs),
(867,-338,o),
(721,-423,o),
(557,-423,cs),
(517,-423,o),
(400,-411,o),
(363,-399,c),
(403,-199,l),
(422,-199,l),
(450,-213,o),
(514,-234,o),
(564,-234,cs),
(644,-234,o),
(708,-196,o),
(740,-122,c),
(754.229,-86.426,o),
(755.265,-64.582,o),
(763,-29,c),
(759.667,-29,o),
(756.333,-29,o),
(753,-29,c)
);
}
);
width = 1481;
}
);
unicode = 290;
},
{
glyphname = H;
layers = (
{
layerId = "F13BA0ED-FC1D-44B0-ADA4-543E9A2824CE";
shapes = (
{
closed = 1;
nodes = (
(1142,0,l),
(948,0,l),
(1093,729,l),
(422,729,l),
(276,0,l),
(82,0,l),
(380,1489,l),
(574,1489,l),
(457,905,l),
(1129,905,l),
(1245,1489,l),
(1439,1489,l)
);
}
);
width = 1334;
},
{
layerId = "1D873A00-654D-4240-B6DF-C2B832D3BA68";
shapes = (
{
closed = 1;
nodes = (
(1083,0,l),
(947,0,l),
(1097,752,l),
(368,752,l),
(218,0,l),
(81,0,l),
(379,1489,l),
(515,1489,l),
(396,892,l),
(1125,892,l),
(1244,1489,l),
(1381,1489,l)
);
}
);
width = 1274;
},
{
layerId = "6CF7F53B-663E-4569-94B0-B9FCEE5B09F0";
shapes = (
{
closed = 1;
nodes = (
(1376,0,l),
(951,0,l),
(1079,637,l),
(638,637,l),
(510,0,l),
(86,0,l),
(384,1489,l),
(808,1489,l),
(702,957,l),
(1143,957,l),
(1249,1489,l),
(1673,1489,l)
);
}
);
width = 1571;
},
{
layerId = "C5AA7147-E6CF-43E6-A817-BB6994C58056";
shapes = (
{
closed = 1;
nodes = (
(1317,0,l),
(950,0,l),
(1082,660,l),
(584,660,l),
(452,0,l),
(85,0,l),
(383,1489,l),
(749,1489,l),
(640,944,l),
(1139,944,l),
(1248,1489,l),
(1615,1489,l)
);
}
);
width = 1512;
}
);
unicode = 72;
},
{
glyphname = H18533;
layers = (
{
layerId = "F13BA0ED-FC1D-44B0-ADA4-543E9A2824CE";
shapes = (
{
closed = 1;
nodes = (
(269,818,o),
(504,1017,o),
(741,1017,cs),
(977,1017,o),
(1133,818,o),
(1085,576,cs),
(1037,334,o),
(800,136,o),
(565,136,cs),
(328,136,o),
(173,334,o),
(221,576,cs)
);
}
);
width = 1187;
},
{
layerId = "1D873A00-654D-4240-B6DF-C2B832D3BA68";
shapes = (
{
closed = 1;
nodes = (
(269,818,o),
(504,1017,o),
(741,1017,cs),
(977,1017,o),
(1133,818,o),
(1085,576,cs),
(1037,334,o),
(800,136,o),
(565,136,cs),
(327,136,o),
(173,335,o),
(221,576,cs)
);
}
);
width = 1187;
},
{
layerId = "6CF7F53B-663E-4569-94B0-B9FCEE5B09F0";
shapes = (
{
closed = 1;
nodes = (
(269,818,o),
(504,1017,o),
(741,1017,cs),
(977,1017,o),
(1133,818,o),
(1085,576,cs),
(1037,335,o),
(801,136,o),
(565,136,cs),
(331,136,o),
(172,331,o),
(221,576,cs)
);
}
);
width = 1187;
},
{
layerId = "C5AA7147-E6CF-43E6-A817-BB6994C58056";
shapes = (
{
closed = 1;
nodes = (
(269,818,o),
(504,1017,o),
(741,1017,cs),
(977,1017,o),
(1133,818,o),
(1085,576,cs),
(1037,335,o),
(801,136,o),
(565,136,cs),
(330,136,o),
(172,332,o),
(221,576,cs)
);
}
);
width = 1187;
}
);
unicode = 9679;
},
{
glyphname = H18543;
layers = (
{
layerId = "F13BA0ED-FC1D-44B0-ADA4-543E9A2824CE";
shapes = (
{
closed = 1;
nodes = (
(699,908,l),
(607,445,l),
(153,445,l),
(246,908,l)
);
}
);
width = 693;
},
{
layerId = "1D873A00-654D-4240-B6DF-C2B832D3BA68";
shapes = (
{
closed = 1;
nodes = (
(699,908,l),
(607,445,l),
(153,445,l),
(246,908,l)
);
}
);
width = 693;
},
{
layerId = "6CF7F53B-663E-4569-94B0-B9FCEE5B09F0";
shapes = (
{
closed = 1;
nodes = (
(699,908,l),
(607,445,l),
(153,445,l),
(246,908,l)
);
}
);
width = 693;
},
{
layerId = "C5AA7147-E6CF-43E6-A817-BB6994C58056";
shapes = (
{
closed = 1;
nodes = (
(699,908,l),
(607,445,l),
(153,445,l),
(246,908,l)
);
}
);
width = 693;
}
);
unicode = 9642;
},
{
glyphname = H18551;
layers = (
{
layerId = "F13BA0ED-FC1D-44B0-ADA4-543E9A2824CE";
shapes = (
{
closed = 1;
nodes = (
(699,908,l),
(607,445,l),
(153,445,l),
(246,908,l)
);
},
{
closed = 1;
nodes = (
(610,832,l),
(305,832,l),
(243,521,l),
(548,521,l)
);
}
);
width = 693;
},
{
layerId = "1D873A00-654D-4240-B6DF-C2B832D3BA68";
shapes = (
{
closed = 1;
nodes = (
(699,908,l),
(607,445,l),
(153,445,l),
(246,908,l)
);
},
{
closed = 1;
nodes = (
(610,832,l),
(305,832,l),
(243,521,l),
(548,521,l)
);
}
);
width = 693;
},
{
layerId = "6CF7F53B-663E-4569-94B0-B9FCEE5B09F0";
shapes = (
{
closed = 1;
nodes = (
(699,908,l),
(607,445,l),
(153,445,l),
(246,908,l)
);
},
{
closed = 1;
nodes = (
(610,832,l),
(305,832,l),
(243,521,l),
(548,521,l)
);
}
);
width = 693;
},
{
layerId = "C5AA7147-E6CF-43E6-A817-BB6994C58056";
shapes = (
{
closed = 1;
nodes = (
(699,908,l),
(607,445,l),
(153,445,l),
(246,908,l)
);
},
{
closed = 1;
nodes = (
(610,832,l),
(305,832,l),
(243,521,l),
(548,521,l)
);
}
);
width = 693;
}
);
unicode = 9643;
},
{
glyphname = H22073;
layers = (
{
layerId = "F13BA0ED-FC1D-44B0-ADA4-543E9A2824CE";
shapes = (
{
closed = 1;
nodes = (
(266,944,l),
(1192,944,l),
(1003,0,l),
(78,0,l)
);
},
{
closed = 1;
nodes = (
(326,868,l),
(168,76,l),
(944,76,l),
(1102,868,l)
);
}
);
width = 1191;
},
{
layerId = "1D873A00-654D-4240-B6DF-C2B832D3BA68";
shapes = (
{
closed = 1;
nodes = (
(266,944,l),
(1192,944,l),
(1003,0,l),
(78,0,l)
);
},
{
closed = 1;
nodes = (
(326,868,l),
(168,76,l),
(944,76,l),
(1102,868,l)
);
}
);
width = 1191;
},
{
layerId = "6CF7F53B-663E-4569-94B0-B9FCEE5B09F0";
shapes = (
{
closed = 1;
nodes = (
(266,944,l),
(1192,944,l),
(1003,0,l),
(78,0,l)
);
},
{
closed = 1;
nodes = (
(326,868,l),
(168,76,l),
(944,76,l),
(1102,868,l)
);
}
);
width = 1191;
},
{
layerId = "C5AA7147-E6CF-43E6-A817-BB6994C58056";
shapes = (
{
closed = 1;
nodes = (
(266,944,l),
(1192,944,l),
(1003,0,l),
(78,0,l)
);
},
{
closed = 1;
nodes = (
(326,868,l),
(168,76,l),
(944,76,l),
(1102,868,l)
);
}
);
width = 1191;
}
);
unicode = 9633;
},
{
glyphname = Hbar;
layers = (
{
layerId = "F13BA0ED-FC1D-44B0-ADA4-543E9A2824CE";
shapes = (
{
closed = 1;
nodes = (
(1191,0,l),
(997,0,l),
(1142,729,l),
(471,729,l),
(326,0,l),
(131,0,l),
(353,1109,l),
(188,1109,l),
(216,1249,l),
(381,1249,l),
(429,1489,l),
(623,1489,l),
(575,1249,l),
(1246,1249,l),
(1294,1489,l),
(1488,1489,l),
(1440,1249,l),
(1605,1249,l),
(1577,1109,l),
(1412,1109,l)
);
},
{
closed = 1;
nodes = (
(1178,905,l),
(1218,1109,l),
(547,1109,l),
(506,905,l)
);
}
);
width = 1432;
},
{
layerId = "1D873A00-654D-4240-B6DF-C2B832D3BA68";
shapes = (
{
closed = 1;
nodes = (
(1140,0,l),
(1004,0,l),
(1154,752,l),
(425,752,l),
(275,0,l),
(139,0,l),
(361,1111,l),
(184,1111,l),
(207,1225,l),
(383,1225,l),
(436,1489,l),
(572,1489,l),
(520,1225,l),
(1249,1225,l),
(1302,1489,l),
(1438,1489,l),
(1385,1225,l),
(1560,1225,l),
(1538,1111,l),
(1362,1111,l)
);
},
{
closed = 1;
nodes = (
(1182,893,l),
(1226,1110,l),
(497,1110,l),
(453,893,l)
);
}
);
width = 1388;
},
{
layerId = "6CF7F53B-663E-4569-94B0-B9FCEE5B09F0";
shapes = (
{
closed = 1;
nodes = (
(1393,0,l),
(969,0,l),
(1096,637,l),
(655,637,l),
(528,0,l),
(104,0,l),
(324,1102,l),
(205,1102,l),
(254,1344,l),
(372,1344,l),
(401,1489,l),
(825,1489,l),
(797,1344,l),
(1238,1344,l),
(1266,1489,l),
(1691,1489,l),
(1662,1344,l),
(1784,1344,l),
(1736,1102,l),
(1614,1102,l)
);
},
{
closed = 1;
nodes = (
(1160,954,l),
(1190,1105,l),
(749,1105,l),
(719,954,l)
);
}
);
width = 1607;
},
{
layerId = "C5AA7147-E6CF-43E6-A817-BB6994C58056";
shapes = (
{
closed = 1;
nodes = (
(1343,0,l),
(976,0,l),
(1108,660,l),
(609,660,l),
(477,0,l),
(111,0,l),
(331,1104,l),
(201,1104,l),
(244,1320,l),
(375,1320,l),
(408,1489,l),
(775,1489,l),
(741,1320,l),
(1240,1320,l),
(1274,1489,l),
(1640,1489,l),
(1606,1320,l),
(1740,1320,l),
(1697,1104,l),
(1563,1104,l)
);
},
{
closed = 1;
nodes = (
(1164,942,l),
(1197,1106,l),
(698,1106,l),
(666,942,l)
);
}
);
width = 1563;
}
);
unicode = 294;
},
{
glyphname = I;
layers = (
{
layerId = "F13BA0ED-FC1D-44B0-ADA4-543E9A2824CE";
shapes = (
{
closed = 1;
nodes = (
(596,0,l),
(30,0,l),
(60,152,l),
(246,152,l),
(483,1337,l),
(297,1337,l),
(327,1489,l),
(894,1489,l),
(863,1337,l),
(677,1337,l),
(440,152,l),
(626,152,l)
);
}
);
width = 735;
},
{
layerId = "1D873A00-654D-4240-B6DF-C2B832D3BA68";
shapes = (
{
closed = 1;
nodes = (
(523,0,l),
(30,0,l),
(53,116,l),
(231,116,l),
(482,1373,l),
(304,1373,l),
(327,1489,l),
(820,1489,l),
(797,1373,l),
(619,1373,l),
(367,116,l),
(546,116,l)
);
}
);
width = 662;
},
{
layerId = "6CF7F53B-663E-4569-94B0-B9FCEE5B09F0";
shapes = (
{
closed = 1;
nodes = (
(890,0,l),
(31,0,l),
(90,296,l),
(307,296,l),
(486,1193,l),
(269,1193,l),
(328,1489,l),
(1188,1489,l),
(1128,1193,l),
(911,1193,l),
(732,296,l),
(949,296,l)
);
}
);
width = 1030;
},
{
layerId = "C5AA7147-E6CF-43E6-A817-BB6994C58056";
shapes = (
{
closed = 1;
nodes = (
(817,0,l),
(31,0,l),
(82,260,l),
(292,260,l),
(486,1229,l),
(276,1229,l),
(328,1489,l),
(1114,1489,l),
(1062,1229,l),
(852,1229,l),
(659,260,l),
(868,260,l)
);
}
);
width = 957;
}
);
unicode = 73;
},
{
glyphname = IJ;
layers = (
{
layerId = "F13BA0ED-FC1D-44B0-ADA4-543E9A2824CE";
shapes = (
{
closed = 1;
nodes = (
(586,0,l),
(30,0,l),
(60,152,l),
(246,152,l),
(483,1337,l),
(297,1337,l),
(327,1489,l),
(894,1489,l),
(863,1337,l),
(677,1337,l),
(440,152,l),
(617,152,l)
);
},
{
closed = 1;
nodes = (
(1345,387,ls),
(1292,124,o),
(1093,-21,o),
(834,-21,cs),
(801,-21,o),
(737,-19,o),
(686,-11,c),
(721,166,l),
(732,166,l),
(771,154,o),
(804,149,o),
(841,149,cs),
(1080,149,o),
(1125,256,o),
(1166,462,cs),
(1339,1331,l),
(1071,1331,l),
(1102,1489,l),
(1565,1489,l)
);
}
);
width = 1450;
},
{
layerId = "1D873A00-654D-4240-B6DF-C2B832D3BA68";
shapes = (
{
closed = 1;
nodes = (
(513,0,l),
(30,0,l),
(53,116,l),
(231,116,l),
(482,1373,l),
(304,1373,l),
(327,1489,l),
(820,1489,l),
(797,1373,l),
(619,1373,l),
(367,116,l),
(536,116,l)
);
},
{
closed = 1;
nodes = (
(1199,370,ls),
(1147,109,o),
(950,-20,o),
(720,-20,cs),
(696,-20,o),
(667,-21,o),
(613,-15,c),
(641,126,l),
(645,126,l),
(693,110,o),
(716,113,o),
(740,113,cs),
(977,113,o),
(1029,200,o),
(1071,409,cs),
(1262,1365,l),
(1002,1365,l),
(1027,1489,l),
(1423,1489,l)
);
}
);
width = 1310;
},
{
layerId = "6CF7F53B-663E-4569-94B0-B9FCEE5B09F0";
shapes = (
{
closed = 1;
nodes = (
(880,0,l),
(31,0,l),
(90,296,l),
(307,296,l),
(486,1193,l),
(269,1193,l),
(328,1489,l),
(1188,1489,l),
(1128,1193,l),
(911,1193,l),
(732,296,l),
(939,296,l)
);
},
{
closed = 1;
nodes = (
(1925,454,ls),
(1871,184,o),
(1660,-24,o),
(1287,-24,cs),
(1218,-24,o),
(1021,-10,o),
(978,4,c),
(1042,325,l),
(1082,325,l),
(1084,329,o),
(1153,292,o),
(1247,292,cs),
(1494,292,o),
(1506,479,o),
(1545,675,cs),
(1649,1195,l),
(1346,1195,l),
(1405,1489,l),
(2132,1489,l)
);
}
);
width = 2010;
},
{
layerId = "C5AA7147-E6CF-43E6-A817-BB6994C58056";
shapes = (
{
closed = 1;
nodes = (
(807,0,l),
(31,0,l),
(82,260,l),
(292,260,l),
(486,1229,l),
(276,1229,l),
(328,1489,l),
(1114,1489,l),
(1062,1229,l),
(852,1229,l),
(659,260,l),
(859,260,l)
);
},
{
closed = 1;
nodes = (
(1780,437,ls),
(1726,169,o),
(1519,-23,o),
(1174,-23,cs),
(1114,-23,o),
(951,-12,o),
(905,0,c),
(962,285,l),
(995,285,l),
(1006,285,o),
(1066,256,o),
(1146,256,cs),
(1391,256,o),
(1410,423,o),
(1450,622,cs),
(1572,1229,l),
(1278,1229,l),
(1330,1489,l),
(1990,1489,l)
);
}
);
width = 1870;
}
);
unicode = 306;
},
{
glyphname = Ibreve;
layers = (
{
layerId = "F13BA0ED-FC1D-44B0-ADA4-543E9A2824CE";
shapes = (
{
closed = 1;
nodes = (
(597,0,l),
(30,0,l),
(61,152,l),
(247,152,l),
(484,1337,l),
(297,1337,l),
(328,1489,l),
(894,1489,l),
(864,1337,l),
(678,1337,l),
(441,152,l),
(627,152,l)
);
},
{
closed = 1;
nodes = (
(1007,2003,l),
(963,1783,o),
(842,1628,o),
(640,1628,cs),
(439,1628,o),
(378,1783,o),
(422,2003,c),
(577,2003,l),
(541,1822,o),
(566,1755,o),
(665,1755,cs),
(756,1755,o),
(814,1813,o),
(852,2003,c)
);
}
);
width = 737;
},
{
layerId = "1D873A00-654D-4240-B6DF-C2B832D3BA68";
shapes = (
{
closed = 1;
nodes = (
(524,0,l),
(31,0,l),
(54,116,l),
(233,116,l),
(484,1373,l),
(306,1373,l),
(329,1489,l),
(822,1489,l),
(799,1373,l),
(620,1373,l),
(369,116,l),
(547,116,l)
);
},
{
closed = 1;
nodes = (
(947,2001,l),
(904,1784,o),
(794,1628,o),
(604,1628,cs),
(412,1628,o),
(368,1794,o),
(409,2001,c),
(549,2001,l),
(508,1798,o),
(535,1738,o),
(625,1738,cs),
(709,1738,o),
(763,1788,o),
(806,2001,c)
);
}
);
width = 665;
},
{
layerId = "6CF7F53B-663E-4569-94B0-B9FCEE5B09F0";
shapes = (
{
closed = 1;
nodes = (
(890,0,l),
(31,0,l),
(90,296,l),
(307,296,l),
(486,1193,l),
(269,1193,l),
(328,1489,l),
(1188,1489,l),
(1128,1193,l),
(911,1193,l),
(732,296,l),
(949,296,l)
);
},
{
closed = 1;
nodes = (
(1250,2011,l),
(1204,1780,o),
(1038,1628,o),
(788,1628,cs),
(551,1628,o),
(424,1740,o),
(478,2011,c),
(691,2011,l),
(672,1917,o),
(694,1822,o),
(827,1822,cs),
(945,1822,o),
(1017,1913,o),
(1037,2011,c)
);
}
);
width = 1030;
},
{
layerId = "C5AA7147-E6CF-43E6-A817-BB6994C58056";
shapes = (
{
closed = 1;
nodes = (
(817,0,l),
(31,0,l),
(82,260,l),
(292,260,l),
(486,1229,l),
(276,1229,l),
(328,1489,l),
(1114,1489,l),
(1062,1229,l),
(852,1229,l),
(659,260,l),
(868,260,l)
);
},
{
closed = 1;
nodes = (
(1189,2009,l),
(1143,1781,o),
(989,1628,o),
(751,1628,cs),
(523,1628,o),
(412,1751,o),
(464,2009,c),
(662,2009,l),
(639,1893,o),
(662,1805,o),
(786,1805,cs),
(897,1805,o),
(967,1888,o),
(991,2009,c)
);
}
);
width = 957;
}
);
unicode = 300;
},
{
glyphname = Imacron;
layers = (
{
layerId = "F13BA0ED-FC1D-44B0-ADA4-543E9A2824CE";
shapes = (
{
closed = 1;
nodes = (
(599,0,l),
(32,0,l),
(63,152,l),
(249,152,l),
(486,1337,l),
(299,1337,l),
(330,1489,l),
(896,1489,l),
(866,1337,l),
(680,1337,l),
(443,152,l),
(629,152,l)
);
},
{
closed = 1;
nodes = (
(975,1698,l),
(334,1698,l),
(365,1852,l),
(1006,1852,l)
);
}
);
width = 741;
},
{
layerId = "1D873A00-654D-4240-B6DF-C2B832D3BA68";
shapes = (
{
closed = 1;
nodes = (
(526,0,l),
(33,0,l),
(57,116,l),
(235,116,l),
(486,1373,l),
(308,1373,l),
(331,1489,l),
(824,1489,l),
(801,1373,l),
(622,1373,l),
(371,116,l),
(550,116,l)
);
},
{
closed = 1;
nodes = (
(917,1691,l),
(317,1691,l),
(344,1826,l),
(944,1826,l)
);
}
);
width = 669;
},
{
layerId = "6CF7F53B-663E-4569-94B0-B9FCEE5B09F0";
shapes = (
{
closed = 1;
nodes = (
(890,0,l),
(31,0,l),
(90,296,l),
(307,296,l),
(486,1193,l),
(269,1193,l),
(328,1489,l),
(1188,1489,l),
(1128,1193,l),
(911,1193,l),
(732,296,l),
(949,296,l)
);
},
{
closed = 1;
nodes = (
(1210,1726,l),
(403,1726,l),
(449,1955,l),
(1256,1955,l)
);
}
);
width = 1030;
},
{
layerId = "C5AA7147-E6CF-43E6-A817-BB6994C58056";
shapes = (
{
closed = 1;
nodes = (
(817,0,l),
(31,0,l),
(82,260,l),
(292,260,l),
(486,1229,l),
(276,1229,l),
(328,1489,l),
(1114,1489,l),
(1062,1229,l),
(852,1229,l),
(659,260,l),
(868,260,l)
);
},
{
closed = 1;
nodes = (
(1151,1719,l),
(385,1719,l),
(427,1929,l),
(1193,1929,l)
);
}
);
width = 957;
}
);
unicode = 298;
},
{
glyphname = Iogonek;
layers = (
{
layerId = "F13BA0ED-FC1D-44B0-ADA4-543E9A2824CE";
shapes = (
{
closed = 1;
nodes = (
(30,0,l),
(60,152,l),
(246,152,l),
(483,1337,l),
(297,1337,l),
(327,1489,l),
(894,1489,l),
(863,1337,l),
(677,1337,l),
(440,152,l),
(626,152,l),
(596,0,l),
(406,0,l),
(389,-39,o),
(381,-53,o),
(370,-107,cs),
(349,-213,o),
(371,-268,o),
(489,-268,cs),
(529,-268,o),
(582,-251,o),
(609,-238,c),
(618,-238,l),
(587,-396,l),
(539,-408,o),
(476,-417,o),
(434,-417,cs),
(273,-417,o),
(171,-319,o),
(211,-117,cs),
(220.165,-74.84,o),
(234.08,-39.799,o),
(250,0,c)
);
}
);
width = 740;
},
{
layerId = "1D873A00-654D-4240-B6DF-C2B832D3BA68";
shapes = (
{
closed = 1;
nodes = (
(30,0,l),
(53,116,l),
(231,116,l),
(482,1373,l),
(304,1373,l),
(327,1489,l),
(820,1489,l),
(797,1373,l),
(619,1373,l),
(367,116,l),
(546,116,l),
(523,0,l),
(351,0,l),
(331,-43,o),
(321,-53,o),
(309,-115,cs),
(286,-228,o),
(299,-282,o),
(421,-282,cs),
(459,-282,o),
(509,-264,o),
(531,-253,c),
(540,-253,l),
(511,-397,l),
(465,-408,o),
(418,-417,o),
(376,-417,cs),
(233,-417,o),
(129,-323,o),
(169,-123,cs),
(181.1,-60.484,o),
(187.072,-52.626,o),
(212,0,c)
);
}
);
width = 667;
},
{
layerId = "6CF7F53B-663E-4569-94B0-B9FCEE5B09F0";
shapes = (
{
closed = 1;
nodes = (
(31.333,0,l),
(89.333,296,l),
(307.333,296,l),
(487,1193,l),
(269,1193,l),
(328.333,1489,l),
(1187.333,1489,l),
(1128.333,1193,l),
(910.333,1193,l),
(732,296,l),
(948.667,296,l),
(890.667,0,l),
(626,0,l),
(623.667,-23,o),
(617,-51.667,o),
(612.667,-76.333,c),
(597,-153,o),
(659,-213.333,o),
(757,-213.333,cs),
(805,-213.333,o),
(876.667,-199,o),
(925,-178,c),
(932.667,-178,l),
(889.667,-392,l),
(829.667,-409.333,o),
(713.333,-417,o),
(670,-417,cs),
(439.667,-417,o),
(340.333,-301.667,o),
(381.667,-93,cs),
(390.612,-47.053,o),
(399.307,-18.734,o),
(402,0,c)
);
}
);
width = 1036;
},
{
layerId = "C5AA7147-E6CF-43E6-A817-BB6994C58056";
shapes = (
{
closed = 1;
nodes = (
(31,0,l),
(82,260,l),
(292,260,l),
(486,1229,l),
(276,1229,l),
(328,1489,l),
(1114,1489,l),
(1062,1229,l),
(852,1229,l),
(659,260,l),
(868,260,l),
(817,0,l),
(571,0,l),
(565,-27,o),
(558,-52,o),
(552,-84,cs),
(535,-168,o),
(587,-227,o),
(690,-227,cs),
(736,-227,o),
(803,-212,o),
(846,-193,c),
(854,-193,l),
(814,-393,l),
(757,-409,o),
(654,-417,o),
(611,-417,cs),
(398,-417,o),
(298,-306,o),
(339,-99,c),
(348,-54,o),
(358,-24,o),
(364,0,c)
);
}
);
width = 962;
}
);
unicode = 302;
},
{
glyphname = Itilde;
layers = (
{
layerId = "F13BA0ED-FC1D-44B0-ADA4-543E9A2824CE";
shapes = (
{
closed = 1;
nodes = (
(602,0,l),
(35,0,l),
(66,152,l),
(252,152,l),
(489,1337,l),
(303,1337,l),
(333,1489,l),
(899,1489,l),
(869,1337,l),
(683,1337,l),
(446,152,l),
(632,152,l)
);
},
{
closed = 1;
nodes = (
(1082,1992,l),
(1031,1787,o),
(928,1689,o),
(801,1689,cs),
(731,1689,o),
(689,1710,o),
(653,1763,c),
(621,1802,o),
(594,1830,o),
(568,1842,cs),
(559,1846,o),
(550,1848,o),
(541,1848,cs),
(478,1848,o),
(441,1780,o),
(419,1682,c),
(290,1682,l),
(334,1883,o),
(452,1984,o),
(570,1984,cs),
(632,1984,o),
(678,1959,o),
(717,1911,cs),
(752,1869,o),
(776,1843,o),
(803,1835,c),
(812,1832,o),
(821,1830,o),
(831,1830,cs),
(889,1830,o),
(933,1898,o),
(954,1992,c)
);
}
);
width = 747;
},
{
layerId = "1D873A00-654D-4240-B6DF-C2B832D3BA68";
shapes = (
{
closed = 1;
nodes = (
(529,0,l),
(37,0,l),
(60,116,l),
(238,116,l),
(489,1373,l),
(311,1373,l),
(334,1489,l),
(827,1489,l),
(804,1373,l),
(625,1373,l),
(374,116,l),
(553,116,l)
);
},
{
closed = 1;
nodes = (
(1025,1994,l),
(976,1792,o),
(877,1697,o),
(765,1697,cs),
(691,1697,o),
(655,1715,o),
(618,1777,c),
(586,1821,o),
(566,1847,o),
(542,1863,c),
(533,1868,o),
(524,1871,o),
(515,1872,c),
(448,1877,o),
(404,1800,o),
(380,1690,c),
(277,1690,l),
(320,1892,o),
(433,1986,o),
(536,1986,cs),
(590,1986,o),
(631,1970,o),
(662,1919,c),
(702,1867,o),
(728,1835,o),
(759,1824,c),
(767,1820,o),
(777,1817,o),
(787,1816,cs),
(849,1811,o),
(899,1888,o),
(922,1994,c)
);
}
);
width = 676;
},
{
layerId = "6CF7F53B-663E-4569-94B0-B9FCEE5B09F0";
shapes = (
{
closed = 1;
nodes = (
(891,0,l),
(32,0,l),
(91,296,l),
(309,296,l),
(488,1193,l),
(270,1193,l),
(330,1489,l),
(1189,1489,l),
(1130,1193,l),
(912,1193,l),
(733,296,l),
(951,296,l)
);
},
{
closed = 1;
nodes = (
(1312,1984,l),
(1255,1766,o),
(1137,1656,o),
(947,1656,cs),
(893,1656,o),
(831,1690,o),
(796,1708,c),
(763,1727,o),
(707,1763,o),
(673,1759,c),
(662,1758,o),
(651,1755,o),
(642,1752,c),
(597,1733,o),
(585,1699,o),
(572,1650,c),
(341,1650,l),
(389,1848,o),
(528,1977,o),
(705,1977,cs),
(798,1977,o),
(866,1916,o),
(938,1879,c),
(953,1876,o),
(971,1876,o),
(981,1879,c),
(993,1880,o),
(1002,1883,o),
(1011,1886,c),
(1054,1906,o),
(1069,1937,o),
(1081,1984,c)
);
}
);
width = 1033;
},
{
layerId = "C5AA7147-E6CF-43E6-A817-BB6994C58056";
shapes = (
{
closed = 1;
nodes = (
(819,0,l),
(33,0,l),
(85,260,l),
(295,260,l),
(488,1229,l),
(279,1229,l),
(331,1489,l),
(1117,1489,l),
(1065,1229,l),
(855,1229,l),
(661,260,l),
(871,260,l)
);
},
{
closed = 1;
nodes = (
(1255,1986,l),
(1199,1771,o),
(1085,1664,o),
(911,1664,cs),
(853,1664,o),
(795,1695,o),
(760,1722,c),
(727,1746,o),
(679,1780,o),
(647,1780,cs),
(636,1780,o),
(625,1778,o),
(616,1776,c),
(567,1762,o),
(549,1719,o),
(534,1658,c),
(328,1658,l),
(376,1857,o),
(509,1979,o),
(672,1979,cs),
(757,1979,o),
(819,1927,o),
(883,1887,cs),
(903,1874,o),
(922,1868,o),
(937,1868,cs),
(948,1868,o),
(957,1870,o),
(966,1872,c),
(1013,1887,o),
(1034,1927,o),
(1049,1986,c)
);
}
);
width = 962;
}
);
unicode = 296;
},
{
glyphname = J;
layers = (
{
layerId = "F13BA0ED-FC1D-44B0-ADA4-543E9A2824CE";
shapes = (
{
closed = 1;
nodes = (
(719,387,ls),
(666,123,o),
(466,-21,o),
(207,-21,cs),
(151,-21,o),
(15,-6,o),
(-45,8,c),
(-7,197,l),
(3,197,l),
(50,177,o),
(134,149,o),
(214,149,cs),
(459,149,o),
(501,266,o),
(540,462,cs),
(714,1331,l),
(405,1331,l),
(437,1489,l),
(940,1489,l)
);
}
);
width = 825;
},
{
layerId = "1D873A00-654D-4240-B6DF-C2B832D3BA68";
shapes = (
{
closed = 1;
nodes = (
(658,370,ls),
(607,115,o),
(418,-20,o),
(183,-20,cs),
(151,-20,o),
(8,-4,o),
(-44,9,c),
(-14,160,l),
(-11,160,l),
(33,142,o),
(128,112,o),
(202,112,cs),
(445,112,o),
(491,221,o),
(529,409,cs),
(720,1368,l),
(421,1368,l),
(445,1489,l),
(882,1489,l)
);
}
);
width = 769;
},
{
layerId = "6CF7F53B-663E-4569-94B0-B9FCEE5B09F0";
shapes = (
{
closed = 1;
nodes = (
(965,454,ls),
(905,156,o),
(652,-24,o),
(301,-24,cs),
(149,-24,o),
(42,-14,o),
(-49,5,c),
(18,345,l),
(60,345,l),
(119,318,o),
(155,296,o),
(263,296,cs),
(517,296,o),
(540,446,o),
(586,675,cs),
(687,1182,l),
(344,1182,l),
(406,1489,l),
(1172,1489,l)
);
}
);
width = 1050;
},
{
layerId = "C5AA7147-E6CF-43E6-A817-BB6994C58056";
shapes = (
{
closed = 1;
nodes = (
(904,437,ls),
(846,148,o),
(605,-23,o),
(278,-23,cs),
(150,-23,o),
(36,-12,o),
(-48,6,c),
(12,308,l),
(45,308,l),
(102,283,o),
(150,259,o),
(251,259,cs),
(503,259,o),
(531,401,o),
(575,622,cs),
(694,1219,l),
(360,1219,l),
(414,1489,l),
(1114,1489,l)
);
}
);
width = 994;
}
);
unicode = 74;
},
{
glyphname = K;
layers = (
{
layerId = "F13BA0ED-FC1D-44B0-ADA4-543E9A2824CE";
shapes = (
{
closed = 1;
nodes = (
(1146,0,l),
(894,0,l),
(500,693,l),
(395,595,l),
(276,0,l),
(82,0,l),
(380,1489,l),
(574,1489,l),
(437,804,l),
(1172,1489,l),
(1408,1489,l),
(671,824,l)
);
}
);
width = 1171;
},
{
layerId = "1D873A00-654D-4240-B6DF-C2B832D3BA68";
shapes = (
{
closed = 1;
nodes = (
(1073,0,l),
(885,0,l),
(452,722,l),
(343,626,l),
(218,0,l),
(81,0,l),
(379,1489,l),
(515,1489,l),
(377,796,l),
(1157,1489,l),
(1331,1489,l),
(568,833,l)
);
}
);
width = 1099;
},
{
layerId = "6CF7F53B-663E-4569-94B0-B9FCEE5B09F0";
shapes = (
{
closed = 1;
nodes = (
(1436,0,l),
(930,0,l),
(692,576,l),
(605,472,l),
(510,0,l),
(86,0,l),
(384,1489,l),
(808,1489,l),
(677,836,l),
(1230,1489,l),
(1717,1489,l),
(1085,789,l)
);
}
);
width = 1461;
},
{
layerId = "C5AA7147-E6CF-43E6-A817-BB6994C58056";
shapes = (
{
closed = 1;
nodes = (
(1364,0,l),
(921,0,l),
(644,605,l),
(552,503,l),
(452,0,l),
(85,0,l),
(383,1489,l),
(749,1489,l),
(617,828,l),
(1216,1489,l),
(1640,1489,l),
(982,798,l)
);
}
);
width = 1389;
}
);
unicode = 75;
},
{
glyphname = L;
layers = (
{
layerId = "F13BA0ED-FC1D-44B0-ADA4-543E9A2824CE";
shapes = (
{
closed = 1;
nodes = (
(928,0,l),
(82,0,l),
(380,1489,l),
(574,1489,l),
(312,176,l),
(963,176,l)
);
}
);
width = 987;
},
{
layerId = "1D873A00-654D-4240-B6DF-C2B832D3BA68";
shapes = (
{
closed = 1;
nodes = (
(884,0,l),
(81,0,l),
(379,1489,l),
(515,1489,l),
(246,140,l),
(912,140,l)
);
}
);
width = 938;
},
{
layerId = "6CF7F53B-663E-4569-94B0-B9FCEE5B09F0";
shapes = (
{
closed = 1;
nodes = (
(1103,0,l),
(86,0,l),
(384,1489,l),
(808,1489,l),
(574,320,l),
(1167,320,l)
);
}
);
width = 1185;
},
{
layerId = "C5AA7147-E6CF-43E6-A817-BB6994C58056";
shapes = (
{
closed = 1;
nodes = (
(1059,0,l),
(85,0,l),
(383,1489,l),
(749,1489,l),
(508,284,l),
(1116,284,l)
);
}
);
width = 1136;
}
);
unicode = 76;
},
{
glyphname = Lambda;
layers = (
{
layerId = "F13BA0ED-FC1D-44B0-ADA4-543E9A2824CE";
shapes = (
{
closed = 1;
nodes = (
(1153,0,l),
(945,0,l),
(790,1236,l),
(134,0,l),
(-64,0,l),
(741,1489,l),
(951,1489,l)
);
}
);
width = 1198;
},
{
layerId = "1D873A00-654D-4240-B6DF-C2B832D3BA68";
shapes = (
{
closed = 1;
nodes = (
(1099,0,l),
(948,0,l),
(781,1312,l),
(78,0,l),
(-62,0,l),
(745,1489,l),
(897,1489,l)
);
}
);
width = 1146;
},
{
layerId = "6CF7F53B-663E-4569-94B0-B9FCEE5B09F0";
shapes = (
{
closed = 1;
nodes = (
(1370,0,l),
(933,0,l),
(829,933,l),
(357,0,l),
(-71,0,l),
(726,1489,l),
(1166,1489,l)
);
}
);
width = 1408;
},
{
layerId = "C5AA7147-E6CF-43E6-A817-BB6994C58056";
shapes = (
{
closed = 1;
nodes = (
(1316,0,l),
(936,0,l),
(820,1009,l),
(301,0,l),
(-70,0,l),
(730,1489,l),
(1112,1489,l)
);
}
);
width = 1356;
}
);
unicode = 923;
},
{
glyphname = Lcaron;
layers = (
{
layerId = "F13BA0ED-FC1D-44B0-ADA4-543E9A2824CE";
shapes = (
{
closed = 1;
nodes = (
(928,0,l),
(82,0,l),
(380,1489,l),
(574,1489,l),
(312,176,l),
(963,176,l)
);
},
{
closed = 1;
nodes = (
(1177,1556,l),
(841,1051,l),
(717,1051,l),
(957,1556,l)
);
}
);
width = 987;
},
{
layerId = "1D873A00-654D-4240-B6DF-C2B832D3BA68";
shapes = (
{
closed = 1;
nodes = (
(884,0,l),
(81,0,l),
(379,1489,l),
(515,1489,l),
(246,140,l),
(912,140,l)
);
},
{
closed = 1;
nodes = (
(1097,1556,l),
(765,1070,l),
(674,1070,l),
(917,1556,l)
);
}
);
width = 938;
},
{
layerId = "6CF7F53B-663E-4569-94B0-B9FCEE5B09F0";
shapes = (
{
closed = 1;
nodes = (
(1103,0,l),
(86,0,l),
(384,1489,l),
(808,1489,l),
(574,320,l),
(1167,320,l)
);
},
{
closed = 1;
nodes = (
(1498,1556,l),
(1148,974,l),
(890,974,l),
(1116,1556,l)
);
}
);
width = 1191;
},
{
layerId = "C5AA7147-E6CF-43E6-A817-BB6994C58056";
shapes = (
{
closed = 1;
nodes = (
(1059,0,l),
(85,0,l),
(383,1489,l),
(749,1489,l),
(508,284,l),
(1116,284,l)
);
},
{
closed = 1;
nodes = (
(1417,1556,l),
(1071,993,l),
(847,993,l),
(1076,1556,l)
);
}
);
width = 1139;
}
);
unicode = 317;
},
{
glyphname = Lcedilla;
layers = (
{
layerId = "F13BA0ED-FC1D-44B0-ADA4-543E9A2824CE";
shapes = (
{
closed = 1;
nodes = (
(82,0,l),
(380,1489,l),
(574,1489,l),
(312,176,l),
(963,176,l),
(928,0,l),
(697,0,l),
(693,-18,o),
(691,-49,o),
(683,-89,cs),
(640,-306,o),
(484,-423,o),
(313,-423,cs),
(265,-423,o),
(189,-414,o),
(145,-399,c),
(177,-239,l),
(186,-239,l),
(213,-252,o),
(267,-273,o),
(318,-273,cs),
(438,-273,o),
(505,-225,o),
(529,-107,cs),
(536.542,-71.803,o),
(543.347,-35.676,o),
(548,0,c)
);
}
);
width = 987;
},
{
layerId = "1D873A00-654D-4240-B6DF-C2B832D3BA68";
shapes = (
{
closed = 1;
nodes = (
(81,0,l),
(379,1489,l),
(515,1489,l),
(246,140,l),
(912,140,l),
(884,0,l),
(664,0,l),
(661,-15,o),
(659,-45,o),
(650,-90,cs),
(606,-308,o),
(453,-423,o),
(292,-423,cs),
(242,-423,o),
(179,-415,o),
(132,-399,c),
(161,-252,l),
(167,-252,l),
(193,-265,o),
(245,-286,o),
(296,-286,cs),
(424,-286,o),
(491,-239,o),
(515,-118,cs),
(523.102,-79.517,o),
(530.119,-39.046,o),
(535,0,c)
);
}
);
width = 938;
},
{
layerId = "6CF7F53B-663E-4569-94B0-B9FCEE5B09F0";
shapes = (
{
closed = 1;
nodes = (
(86,0,l),
(384,1489,l),
(807.333,1489,l),
(573.333,320,l),
(1167,320,l),
(1102.667,0,l),
(829,0,l),
(823.667,-28.667,o),
(819,-65,o),
(815,-85,cs),
(772,-298,o),
(609.333,-423,o),
(398.333,-423,cs),
(361,-423,o),
(230.333,-410,o),
(195.667,-399,c),
(238.333,-185.667,l),
(259.333,-185.667,l),
(287.667,-200,o),
(355,-221,o),
(404.667,-221,cs),
(490,-221,o),
(567.667,-169,o),
(589,-63,cs),
(594.486,-37.399,o),
(596.218,-13.441,o),
(600,0,c)
);
}
);
width = 1186;
},
{
layerId = "C5AA7147-E6CF-43E6-A817-BB6994C58056";
shapes = (
{
closed = 1;
nodes = (
(85,0,l),
(383,1489,l),
(749,1489,l),
(508,284,l),
(1116,284,l),
(1059,0,l),
(796,0,l),
(791,-26,o),
(787,-61,o),
(782,-86,cs),
(739,-300,o),
(578,-423,o),
(377,-423,cs),
(337,-423,o),
(220,-411,o),
(183,-399,c),
(223,-199,l),
(241,-199,l),
(269,-213,o),
(333,-234,o),
(383,-234,cs),
(477,-234,o),
(552,-183,o),
(574,-74,c),
(580,-46,o),
(583,-19,o),
(587,0,c)
);
}
);
width = 1136;
}
);
unicode = 315;
},
{
glyphname = Ldot;
layers = (
{
layerId = "F13BA0ED-FC1D-44B0-ADA4-543E9A2824CE";
shapes = (
{
closed = 1;
nodes = (
(928,0,l),
(82,0,l),
(380,1489,l),
(574,1489,l),
(312,176,l),
(963,176,l)
);
},
{
closed = 1;
nodes = (
(897,519,l),
(668,519,l),
(722,786,l),
(950,786,l)
);
}
);
width = 987;
},
{
layerId = "1D873A00-654D-4240-B6DF-C2B832D3BA68";
shapes = (
{
closed = 1;
nodes = (
(884,0,l),
(81,0,l),
(379,1489,l),
(515,1489,l),
(246,140,l),
(912,140,l)
);
},
{
closed = 1;
nodes = (
(821,490,l),
(622,490,l),
(670,730,l),
(869,730,l)
);
}
);
width = 938;
},
{
layerId = "6CF7F53B-663E-4569-94B0-B9FCEE5B09F0";
shapes = (
{
closed = 1;
nodes = (
(1103,0,l),
(86,0,l),
(384,1489,l),
(808,1489,l),
(574,320,l),
(1167,320,l)
);
},
{
closed = 1;
nodes = (
(1197,634,l),
(852,634,l),
(927,1009,l),
(1272,1009,l)
);
}
);
width = 1185;
},
{
layerId = "C5AA7147-E6CF-43E6-A817-BB6994C58056";
shapes = (
{
closed = 1;
nodes = (
(1059,0,l),
(85,0,l),
(383,1489,l),
(749,1489,l),
(508,284,l),
(1116,284,l)
);
},
{
closed = 1;
nodes = (
(1121,605,l),
(806,605,l),
(875,953,l),
(1191,953,l)
);
}
);
width = 1136;
}
);
unicode = 319;
},
{
glyphname = Lslash;
layers = (
{
layerId = "F13BA0ED-FC1D-44B0-ADA4-543E9A2824CE";
shapes = (
{
closed = 1;
nodes = (
(977,0,l),
(131,0,l),
(240,543,l),
(48,405,l),
(80,566,l),
(272,701,l),
(429,1489,l),
(623,1489,l),
(494,844,l),
(868,1112,l),
(836,951,l),
(463,687,l),
(361,176,l),
(1012,176,l)
);
}
);
width = 1036;
},
{
layerId = "1D873A00-654D-4240-B6DF-C2B832D3BA68";
shapes = (
{
closed = 1;
nodes = (
(936,0,l),
(132,0,l),
(245,566,l),
(52,416,l),
(79,551,l),
(272,698,l),
(430,1489,l),
(567,1489,l),
(433,820,l),
(814,1113,l),
(788,979,l),
(407,690,l),
(297,140,l),
(964,140,l)
);
}
);
width = 989;
},
{
layerId = "6CF7F53B-663E-4569-94B0-B9FCEE5B09F0";
shapes = (
{
closed = 1;
nodes = (
(1143,0,l),
(127,0,l),
(217,450,l),
(32,361,l),
(85,627,l),
(270,714,l),
(425,1489,l),
(846,1489,l),
(736,940,l),
(1082,1107,l),
(1029,840,l),
(684,676,l),
(612,320,l),
(1207,320,l)
);
}
);
width = 1226;
},
{
layerId = "C5AA7147-E6CF-43E6-A817-BB6994C58056";
shapes = (
{
closed = 1;
nodes = (
(1102,0,l),
(128,0,l),
(222,473,l),
(36,372,l),
(84,612,l),
(270,711,l),
(426,1489,l),
(790,1489,l),
(676,916,l),
(1029,1108,l),
(981,868,l),
(628,679,l),
(549,284,l),
(1159,284,l)
);
}
);
width = 1178;
}
);
unicode = 321;
},
{
glyphname = M;
layers = (
{
layerId = "F13BA0ED-FC1D-44B0-ADA4-543E9A2824CE";
shapes = (
{
closed = 1;
nodes = (
(1333,0,l),
(1139,0,l),
(1395,1283,l),
(841,410,l),
(723,410,l),
(520,1283,l),
(264,0,l),
(82,0,l),
(380,1489,l),
(645,1489,l),
(843,660,l),
(1361,1489,l),
(1630,1489,l)
);
}
);
width = 1525;
},
{
layerId = "1D873A00-654D-4240-B6DF-C2B832D3BA68";
shapes = (
{
closed = 1;
nodes = (
(1252,0,l),
(1114,0,l),
(1391,1382,l),
(782,430,l),
(708,430,l),
(484,1382,l),
(208,0,l),
(81,0,l),
(379,1489,l),
(591,1489,l),
(797,629,l),
(1331,1489,l),
(1549,1489,l)
);
}
);
width = 1443;
},
{
layerId = "6CF7F53B-663E-4569-94B0-B9FCEE5B09F0";
shapes = (
{
closed = 1;
nodes = (
(1657,0,l),
(1236,0,l),
(1413,888,l),
(1074,330,l),
(780,330,l),
(663,888,l),
(486,0,l),
(86,0,l),
(384,1489,l),
(859,1489,l),
(1028,785,l),
(1481,1489,l),
(1955,1489,l)
);
}
);
width = 1853;
},
{
layerId = "C5AA7147-E6CF-43E6-A817-BB6994C58056";
shapes = (
{
closed = 1;
nodes = (
(1576,0,l),
(1211,0,l),
(1408,987,l),
(1016,350,l),
(766,350,l),
(627,987,l),
(430,0,l),
(85,0,l),
(383,1489,l),
(805,1489,l),
(982,754,l),
(1451,1489,l),
(1873,1489,l)
);
}
);
width = 1770;
}
);
unicode = 77;
},
{
glyphname = N;
layers = (
{
layerId = "F13BA0ED-FC1D-44B0-ADA4-543E9A2824CE";
shapes = (
{
closed = 1;
nodes = (
(1126,0,l),
(909,0,l),
(520,1284,l),
(264,0,l),
(82,0,l),
(380,1489,l),
(655,1489,l),
(1007,310,l),
(1242,1489,l),
(1424,1489,l)
);
}
);
width = 1318;
},
{
layerId = "1D873A00-654D-4240-B6DF-C2B832D3BA68";
shapes = (
{
closed = 1;
nodes = (
(1057,0,l),
(884,0,l),
(485,1366,l),
(212,0,l),
(81,0,l),
(379,1489,l),
(597,1489,l),
(966,201,l),
(1224,1489,l),
(1354,1489,l)
);
}
);
width = 1249;
},
{
layerId = "6CF7F53B-663E-4569-94B0-B9FCEE5B09F0";
shapes = (
{
closed = 1;
nodes = (
(1405,0,l),
(1007,0,l),
(663,956,l),
(472,0,l),
(86,0,l),
(384,1489,l),
(891,1489,l),
(1168,745,l),
(1317,1489,l),
(1703,1489,l)
);
}
);
width = 1593;
},
{
layerId = "C5AA7147-E6CF-43E6-A817-BB6994C58056";
shapes = (
{
closed = 1;
nodes = (
(1336,0,l),
(983,0,l),
(628,1038,l),
(420,0,l),
(85,0,l),
(383,1489,l),
(832,1489,l),
(1128,636,l),
(1298,1489,l),
(1633,1489,l)
);
}
);
width = 1525;
}
);
unicode = 78;
},
{
glyphname = O;
layers = (
{
layerId = "F13BA0ED-FC1D-44B0-ADA4-543E9A2824CE";
shapes = (
{
closed = 1;
nodes = (
(1468,1185,o),
(1493,991,o),
(1444,744,cs),
(1344,242,o),
(1026,-31,o),
(644,-31,cs),
(253,-31,o),
(54,244,o),
(154,744,cs),
(250,1223,o),
(546,1520,o),
(954,1520,cs),
(1150,1520,o),
(1300,1446,o),
(1384,1318,c)
);
},
{
closed = 1;
nodes = (
(1323,1146,o),
(1185,1349,o),
(920,1349,cs),
(654,1349,o),
(438,1152,o),
(356,744,cs),
(278,353,o),
(409,140,o),
(679,140,cs),
(943,140,o),
(1163,344,o),
(1243,744,cs)
);
}
);
width = 1410;
},
{
layerId = "1D873A00-654D-4240-B6DF-C2B832D3BA68";
shapes = (
{
closed = 1;
nodes = (
(1426,1188,o),
(1453,993,o),
(1403,744,cs),
(1300,228,o),
(978,-31,o),
(623,-31,cs),
(238,-31,o),
(55,248,o),
(154,744,cs),
(252,1234,o),
(546,1520,o),
(933,1520,cs),
(1121,1520,o),
(1269,1444,o),
(1347,1320,c)
);
},
{
closed = 1;
nodes = (
(1345,1167,o),
(1197,1386,o),
(907,1386,cs),
(606,1386,o),
(381,1162,o),
(297,744,cs),
(217,346,o),
(346,103,o),
(651,103,cs),
(940,103,o),
(1175,321,o),
(1260,744,cs)
);
}
);
width = 1368;
},
{
layerId = "6CF7F53B-663E-4569-94B0-B9FCEE5B09F0";
shapes = (
{
closed = 1;
nodes = (
(1635,1172,o),
(1658,983,o),
(1610,744,cs),
(1521,299,o),
(1217,-31,o),
(727,-31,cs),
(312,-31,o),
(52,227,o),
(155,744,cs),
(242,1179,o),
(545,1520,o),
(1037,1520,cs),
(1263,1520,o),
(1424,1454,o),
(1530,1310,c)
);
},
{
closed = 1;
nodes = (
(1236,1061,o),
(1135,1202,o),
(974,1202,cs),
(850,1202,o),
(666,1112,o),
(592,744,cs),
(520,382,o),
(663,287,o),
(791,287,cs),
(952,287,o),
(1111,437,o),
(1173,745,cs)
);
}
);
width = 1578;
},
{
layerId = "C5AA7147-E6CF-43E6-A817-BB6994C58056";
shapes = (
{
closed = 1;
nodes = (
(1593,1175,o),
(1617,985,o),
(1569,744,cs),
(1477,285,o),
(1169,-31,o),
(706,-31,cs),
(297,-31,o),
(52,231,o),
(155,744,cs),
(244,1190,o),
(545,1520,o),
(1016,1520,cs),
(1235,1520,o),
(1393,1452,o),
(1493,1312,c)
);
},
{
closed = 1;
nodes = (
(1258,1082,o),
(1147,1239,o),
(961,1239,cs),
(801,1239,o),
(609,1122,o),
(533,744,cs),
(459,375,o),
(599,250,o),
(763,250,cs),
(949,250,o),
(1125,414,o),
(1191,745,cs)
);
}
);
width = 1536;
}
);
unicode = 79;
},
{
glyphname = OE;
layers = (
{
layerId = "F13BA0ED-FC1D-44B0-ADA4-543E9A2824CE";
shapes = (
{
closed = 1;
nodes = (
(1834,0,l),
(823,0,ls),
(578,0,o),
(440,28,o),
(325,118,cs),
(161,244,o),
(97,459,o),
(154,746,cs),
(229,1123,o),
(495,1385,o),
(800,1459,cs),
(882,1479,o),
(990,1489,o),
(1119,1489,cs),
(2131,1489,l),
(2096,1313,l),
(1388,1313,l),
(1306,905,l),
(1966,905,l),
(1930,729,l),
(1271,729,l),
(1160,176,l),
(1869,176,l)
);
},
{
closed = 1;
nodes = (
(966,171,l),
(1196,1318,l),
(1079,1318,ls),
(883,1318,o),
(772,1291,o),
(654,1220,cs),
(499,1127,o),
(400,967,o),
(355,743,cs),
(275,345,o),
(462,171,o),
(848,171,cs)
);
}
);
width = 1950;
},
{
layerId = "1D873A00-654D-4240-B6DF-C2B832D3BA68";
shapes = (
{
closed = 1;
nodes = (
(1804,0,l),
(813,0,ls),
(577,0,o),
(438,24,o),
(320,118,cs),
(157,245,o),
(97,459,o),
(154,746,cs),
(231,1131,o),
(497,1388,o),
(797,1460,cs),
(878,1479,o),
(983,1489,o),
(1108,1489,cs),
(2102,1489,l),
(2074,1349,l),
(1336,1349,l),
(1245,892,l),
(1934,892,l),
(1906,752,l),
(1217,752,l),
(1094,140,l),
(1832,140,l)
);
},
{
closed = 1;
nodes = (
(958,135,l),
(1202,1354,l),
(1084,1354,ls),
(854,1354,o),
(734,1322,o),
(606,1243,cs),
(446,1145,o),
(344,979,o),
(297,743,cs),
(210,308,o),
(424,135,o),
(836,135,cs)
);
}
);
width = 1911;
},
{
layerId = "6CF7F53B-663E-4569-94B0-B9FCEE5B09F0";
shapes = (
{
closed = 1;
nodes = (
(1952,0,l),
(867,0,ls),
(586,0,o),
(446,43,o),
(345,117,cs),
(176,241,o),
(98,459,o),
(155,746,cs),
(224,1090,o),
(488,1373,o),
(816,1456,cs),
(902,1478,o),
(1017,1489,o),
(1161,1489,cs),
(2250,1489,l),
(2186,1169,l),
(1593,1169,l),
(1551,957,l),
(2094,957,l),
(2031,637,l),
(1487,637,l),
(1423,320,l),
(2016,320,l)
);
},
{
closed = 1;
nodes = (
(1000,314,l),
(1172,1174,l),
(1059,1174,ls),
(998,1174,o),
(920,1168,o),
(844,1129,c),
(707,1055,o),
(625,920,o),
(590,743,cs),
(540,492,o),
(613,314,o),
(897,314,cs)
);
}
);
width = 2108;
},
{
layerId = "C5AA7147-E6CF-43E6-A817-BB6994C58056";
shapes = (
{
closed = 1;
nodes = (
(1923,0,l),
(857,0,ls),
(585,0,o),
(444,39,o),
(340,117,cs),
(172,242,o),
(98,459,o),
(155,746,cs),
(225,1098,o),
(490,1376,o),
(813,1457,cs),
(898,1478,o),
(1010,1489,o),
(1150,1489,cs),
(2220,1489,l),
(2164,1205,l),
(1541,1205,l),
(1489,944,l),
(2062,944,l),
(2006,660,l),
(1432,660,l),
(1357,284,l),
(1980,284,l)
);
},
{
closed = 1;
nodes = (
(992,278,l),
(1178,1210,l),
(1064,1210,ls),
(969,1210,o),
(884,1199,o),
(797,1152,cs),
(655,1073,o),
(569,932,o),
(531,743,cs),
(473,455,o),
(575,278,o),
(885,278,cs)
);
}
);
width = 2068;
}
);
unicode = 338;
},
{
glyphname = Ohm;
layers = (
{
layerId = "F13BA0ED-FC1D-44B0-ADA4-543E9A2824CE";
shapes = (
{
closed = 1;
nodes = (
(1317,0,l),
(769,0,l),
(846,387,l),
(1037,495,o),
(1196,609,o),
(1253,893,cs),
(1302,1139,o),
(1211,1349,o),
(920,1349,cs),
(640,1349,o),
(450,1156,o),
(397,893,cs),
(338,598,o),
(468,490,o),
(609,387,c),
(532,0,l),
(-16,0,l),
(19,174,l),
(404,174,l),
(429,298,l),
(248,417,o),
(143,633,o),
(195,893,cs),
(263,1232,o),
(536,1520,o),
(954,1520,cs),
(1330,1520,o),
(1531,1271,o),
(1455,893,cs),
(1400,618,o),
(1202,406,o),
(991,298,c),
(967,174,l),
(1352,174,l)
);
}
);
width = 1403;
},
{
layerId = "1D873A00-654D-4240-B6DF-C2B832D3BA68";
shapes = (
{
closed = 1;
nodes = (
(1275,0,l),
(754,0,l),
(827,361,l),
(1021,465,o),
(1210,591,o),
(1272,901,cs),
(1325,1166,o),
(1220,1386,o),
(906,1386,cs),
(593,1386,o),
(391,1171,o),
(337,901,cs),
(273,581,o),
(428,463,o),
(577,361,c),
(505,0,l),
(-17,0,l),
(11,139,l),
(420,139,l),
(446,271,l),
(252,389,o),
(136,614,o),
(191,890,cs),
(257,1222,o),
(520,1520,o),
(933,1520,cs),
(1300,1520,o),
(1487,1263,o),
(1412,889,cs),
(1353,594,o),
(1135,370,o),
(920,271,c),
(894,139,l),
(1303,139,l)
);
}
);
width = 1358;
},
{
layerId = "6CF7F53B-663E-4569-94B0-B9FCEE5B09F0";
shapes = (
{
closed = 1;
nodes = (
(1484,0,l),
(829,0,l),
(927,490,l),
(1104,615,o),
(1143,680,o),
(1179,861,cs),
(1213,1030,o),
(1179,1202,o),
(976,1202,cs),
(827,1202,o),
(685,1095,o),
(638,861,cs),
(599,666,o),
(631,597,o),
(739,490,c),
(641,0,l),
(-13,0,l),
(50,315,l),
(341,315,l),
(359,407,l),
(230,529,o),
(171,709,o),
(210,906,cs),
(283,1272,o),
(598,1520,o),
(1039,1520,cs),
(1455,1520,o),
(1705,1303,o),
(1626,908,cs),
(1587,714,o),
(1469,551,o),
(1275,407,c),
(1256,315,l),
(1547,315,l)
);
}
);
width = 1582;
},
{
layerId = "C5AA7147-E6CF-43E6-A817-BB6994C58056";
shapes = (
{
closed = 1;
nodes = (
(1442,0,l),
(814,0,l),
(907,464,l),
(1087,585,o),
(1156,662,o),
(1197,869,cs),
(1235,1057,o),
(1187,1239,o),
(962,1239,cs),
(781,1239,o),
(626,1110,o),
(578,869,cs),
(534,649,o),
(591,570,o),
(707,464,c),
(614,0,l),
(-14,0,l),
(42,280,l),
(356,280,l),
(376,380,l),
(235,501,o),
(164,690,o),
(207,903,cs),
(279,1262,o),
(583,1520,o),
(1018,1520,cs),
(1425,1520,o),
(1661,1295,o),
(1583,904,cs),
(1540,690,o),
(1402,515,o),
(1204,380,c),
(1184,280,l),
(1498,280,l)
);
}
);
width = 1538;
}
);
unicode = 8486;
},
{
glyphname = Ohorn;
layers = (
{
layerId = "F13BA0ED-FC1D-44B0-ADA4-543E9A2824CE";
shapes = (
{
closed = 1;
nodes = (
(1475,992,o),
(1470,876,o),
(1444,744,cs),
(1344,242,o),
(1026,-31,o),
(644,-31,cs),
(253,-31,o),
(54,244,o),
(154,744,cs),
(250,1223,o),
(546,1520,o),
(954,1520,cs),
(1172,1520,o),
(1334,1429,o),
(1408,1273,cs),
(1416,1257,o),
(1422,1241,o),
(1429,1225,c),
(1527,1229,o),
(1580,1266,o),
(1599,1361,cs),
(1608,1406,o),
(1604,1482,o),
(1596,1511,c),
(1597,1520,l),
(1754,1520,l),
(1757,1453,o),
(1758,1421,o),
(1744,1353,cs),
(1715,1208,o),
(1618,1121,o),
(1461,1097,c)
);
},
{
closed = 1;
nodes = (
(1323,1146,o),
(1185,1349,o),
(920,1349,cs),
(654,1349,o),
(438,1152,o),
(356,744,cs),
(278,353,o),
(409,140,o),
(679,140,cs),
(943,140,o),
(1163,344,o),
(1243,744,cs)
);
}
);
width = 1505;
},
{
layerId = "1D873A00-654D-4240-B6DF-C2B832D3BA68";
shapes = (
{
closed = 1;
nodes = (
(1435,1011,o),
(1432,887,o),
(1403,744,cs),
(1299,224,o),
(975,-31,o),
(623,-31,cs),
(241,-31,o),
(54,245,o),
(154,744,cs),
(251,1231,o),
(543,1520,o),
(933,1520,cs),
(1143,1520,o),
(1306,1426,o),
(1373,1270,c),
(1378,1256,o),
(1384,1243,o),
(1389,1231,c),
(1474,1236,o),
(1525,1275,o),
(1542,1362,cs),
(1551,1405,o),
(1547,1487,o),
(1539,1514,c),
(1541,1520,l),
(1685,1520,l),
(1688,1445,o),
(1693,1440,o),
(1677,1362,cs),
(1652,1236,o),
(1567,1152,o),
(1418,1122,c)
);
},
{
closed = 1;
nodes = (
(1345,1167,o),
(1197,1386,o),
(907,1386,cs),
(606,1386,o),
(381,1162,o),
(297,744,cs),
(217,346,o),
(346,103,o),
(651,103,cs),
(940,103,o),
(1175,321,o),
(1260,744,cs)
);
}
);
width = 1444;
},
{
layerId = "6CF7F53B-663E-4569-94B0-B9FCEE5B09F0";
shapes = (
{
closed = 1;
nodes = (
(1636,917,o),
(1628,833,o),
(1610,744,cs),
(1524,315,o),
(1231,-31,o),
(727,-31,cs),
(301,-31,o),
(54,241,o),
(155,744,cs),
(245,1192,o),
(559,1520,o),
(1037,1520,cs),
(1285,1520,o),
(1447,1440,o),
(1548,1285,cs),
(1565,1260,o),
(1579,1232,o),
(1590,1201,c),
(1738,1200,o),
(1800,1230,o),
(1826,1358,cs),
(1837,1411,o),
(1827,1462,o),
(1819,1498,c),
(1824,1520,l),
(2033,1520,l),
(2038,1485,o),
(2021,1344,o),
(2016,1318,cs),
(1972,1097,o),
(1820,997,o),
(1632,998,c)
);
},
{
closed = 1;
nodes = (
(1236,1061,o),
(1135,1202,o),
(974,1202,cs),
(850,1202,o),
(666,1112,o),
(592,744,cs),
(520,382,o),
(663,287,o),
(791,287,cs),
(952,287,o),
(1111,437,o),
(1173,745,cs)
);
}
);
width = 1748;
},
{
layerId = "C5AA7147-E6CF-43E6-A817-BB6994C58056";
shapes = (
{
closed = 1;
nodes = (
(1596,936,o),
(1589,844,o),
(1569,744,cs),
(1480,297,o),
(1179,-31,o),
(706,-31,cs),
(289,-31,o),
(55,242,o),
(155,744,cs),
(246,1200,o),
(555,1520,o),
(1016,1520,cs),
(1256,1520,o),
(1419,1437,o),
(1513,1282,cs),
(1527,1259,o),
(1540,1234,o),
(1550,1207,c),
(1685,1207,o),
(1745,1239,o),
(1769,1359,cs),
(1779,1410,o),
(1771,1467,o),
(1763,1501,c),
(1767,1520,l),
(1963,1520,l),
(1967,1477,o),
(1955,1363,o),
(1948,1327,cs),
(1908,1125,o),
(1769,1028,o),
(1589,1023,c)
);
},
{
closed = 1;
nodes = (
(1258,1082,o),
(1147,1239,o),
(961,1239,cs),
(801,1239,o),
(609,1122,o),
(533,744,cs),
(459,375,o),
(599,250,o),
(763,250,cs),
(949,250,o),
(1125,414,o),
(1191,745,cs)
);
}
);
width = 1687;
}
);
unicode = 416;
},
{
glyphname = Omega;
layers = (
{
layerId = "F13BA0ED-FC1D-44B0-ADA4-543E9A2824CE";
shapes = (
{
closed = 1;
nodes = (
(1317,0,l),
(769,0,l),
(846,387,l),
(1037,495,o),
(1196,609,o),
(1253,893,cs),
(1302,1139,o),
(1211,1349,o),
(920,1349,cs),
(640,1349,o),
(450,1156,o),
(397,893,cs),
(338,598,o),
(468,490,o),
(609,387,c),
(532,0,l),
(-16,0,l),
(19,174,l),
(404,174,l),
(429,298,l),
(248,417,o),
(143,633,o),
(195,893,cs),
(263,1232,o),
(536,1520,o),
(954,1520,cs),
(1330,1520,o),
(1531,1271,o),
(1455,893,cs),
(1400,618,o),
(1202,406,o),
(991,298,c),
(967,174,l),
(1352,174,l)
);
}
);
width = 1403;
},
{
layerId = "1D873A00-654D-4240-B6DF-C2B832D3BA68";
shapes = (
{
closed = 1;
nodes = (
(1275,0,l),
(754,0,l),
(827,361,l),
(1021,465,o),
(1210,591,o),
(1272,901,cs),
(1325,1166,o),
(1220,1386,o),
(906,1386,cs),
(593,1386,o),
(391,1171,o),
(337,901,cs),
(273,581,o),
(428,463,o),
(577,361,c),
(505,0,l),
(-17,0,l),
(11,139,l),
(420,139,l),
(446,271,l),
(252,389,o),
(136,614,o),
(191,890,cs),
(257,1222,o),
(520,1520,o),
(933,1520,cs),
(1300,1520,o),
(1487,1263,o),
(1412,889,cs),
(1353,594,o),
(1135,370,o),
(920,271,c),
(894,139,l),
(1303,139,l)
);
}
);
width = 1358;
},
{
layerId = "6CF7F53B-663E-4569-94B0-B9FCEE5B09F0";
shapes = (
{
closed = 1;
nodes = (
(1484,0,l),
(829,0,l),
(927,490,l),
(1104,615,o),
(1143,680,o),
(1179,861,cs),
(1213,1030,o),
(1179,1202,o),
(976,1202,cs),
(827,1202,o),
(685,1095,o),
(638,861,cs),
(599,666,o),
(631,597,o),
(739,490,c),
(641,0,l),
(-13,0,l),
(50,315,l),
(341,315,l),
(359,407,l),
(230,529,o),
(171,709,o),
(210,906,cs),
(283,1272,o),
(598,1520,o),
(1039,1520,cs),
(1455,1520,o),
(1705,1303,o),
(1626,908,cs),
(1587,714,o),
(1469,551,o),
(1275,407,c),
(1256,315,l),
(1547,315,l)
);
}
);
width = 1582;
},
{
layerId = "C5AA7147-E6CF-43E6-A817-BB6994C58056";
shapes = (
{
closed = 1;
nodes = (
(1442,0,l),
(814,0,l),
(907,464,l),
(1087,585,o),
(1156,662,o),
(1197,869,cs),
(1235,1057,o),
(1187,1239,o),
(962,1239,cs),
(781,1239,o),
(626,1110,o),
(578,869,cs),
(534,649,o),
(591,570,o),
(707,464,c),
(614,0,l),
(-14,0,l),
(42,280,l),
(356,280,l),
(376,380,l),
(235,501,o),
(164,690,o),
(207,903,cs),
(279,1262,o),
(583,1520,o),
(1018,1520,cs),
(1425,1520,o),
(1661,1295,o),
(1583,904,cs),
(1540,690,o),
(1402,515,o),
(1204,380,c),
(1184,280,l),
(1498,280,l)
);
}
);
width = 1538;
}
);
unicode = 937;
},
{
glyphname = Omegatonos;
layers = (
{
layerId = "F13BA0ED-FC1D-44B0-ADA4-543E9A2824CE";
shapes = (
{
closed = 1;
nodes = (
(1515,0,l),
(967,0,l),
(1044,387,l),
(1235,495,o),
(1394,609,o),
(1451,893,cs),
(1500,1139,o),
(1409,1349,o),
(1118,1349,cs),
(838,1349,o),
(648,1156,o),
(595,893,cs),
(536,598,o),
(666,490,o),
(807,387,c),
(730,0,l),
(182,0,l),
(217,174,l),
(602,174,l),
(627,298,l),
(446,417,o),
(341,633,o),
(393,893,cs),
(461,1232,o),
(734,1520,o),
(1152,1520,cs),
(1528,1520,o),
(1729,1271,o),
(1653,893,cs),
(1598,618,o),
(1400,406,o),
(1189,298,c),
(1165,174,l),
(1550,174,l)
);
},
{
closed = 1;
nodes = (
(482,1490,l),
(357,1106,l),
(215,1106,l),
(244,1490,l)
);
}
);
width = 1602;
},
{
layerId = "1D873A00-654D-4240-B6DF-C2B832D3BA68";
shapes = (
{
closed = 1;
nodes = (
(1449,0,l),
(928,0,l),
(1000,361,l),
(1195,465,o),
(1384,591,o),
(1446,901,cs),
(1499,1166,o),
(1393,1386,o),
(1080,1386,cs),
(766,1386,o),
(564,1171,o),
(510,901,cs),
(446,581,o),
(601,463,o),
(751,361,c),
(679,0,l),
(157,0,l),
(185,139,l),
(594,139,l),
(620,271,l),
(426,389,o),
(310,614,o),
(365,890,cs),
(431,1222,o),
(694,1520,o),
(1107,1520,cs),
(1474,1520,o),
(1661,1263,o),
(1586,889,cs),
(1527,594,o),
(1310,370,o),
(1095,271,c),
(1068,139,l),
(1477,139,l)
);
},
{
closed = 1;
nodes = (
(443,1490,l),
(327,1109,l),
(210,1109,l),
(246,1490,l)
);
}
);
width = 1534;
},
{
layerId = "6CF7F53B-663E-4569-94B0-B9FCEE5B09F0";
shapes = (
{
closed = 1;
nodes = (
(1778,0,l),
(1124,0,l),
(1222,490,l),
(1398,615,o),
(1437,680,o),
(1473,861,cs),
(1507,1030,o),
(1474,1202,o),
(1270,1202,cs),
(1122,1202,o),
(980,1095,o),
(933,861,cs),
(894,666,o),
(927,597,o),
(1034,490,c),
(936,0,l),
(281,0,l),
(344,315,l),
(635,315,l),
(653,407,l),
(524,529,o),
(466,709,o),
(505,906,cs),
(578,1272,o),
(892,1520,o),
(1333,1520,cs),
(1749,1520,o),
(1999,1303,o),
(1920,908,cs),
(1881,714,o),
(1763,551,o),
(1569,407,c),
(1550,315,l),
(1841,315,l)
);
},
{
closed = 1;
nodes = (
(637,1490,l),
(478,1094,l),
(232,1094,l),
(232,1490,l)
);
}
);
width = 1877;
},
{
layerId = "C5AA7147-E6CF-43E6-A817-BB6994C58056";
shapes = (
{
closed = 1;
nodes = (
(1713,0,l),
(1084,0,l),
(1177,464,l),
(1357,585,o),
(1427,662,o),
(1468,869,cs),
(1506,1057,o),
(1457,1239,o),
(1232,1239,cs),
(1051,1239,o),
(896,1110,o),
(848,869,cs),
(804,649,o),
(861,570,o),
(977,464,c),
(884,0,l),
(256,0,l),
(312,280,l),
(627,280,l),
(647,380,l),
(506,501,o),
(434,690,o),
(477,903,cs),
(549,1262,o),
(853,1520,o),
(1288,1520,cs),
(1695,1520,o),
(1931,1295,o),
(1853,904,cs),
(1810,690,o),
(1672,515,o),
(1474,380,c),
(1454,280,l),
(1769,280,l)
);
},
{
closed = 1;
nodes = (
(598,1490,l),
(448,1097,l),
(228,1097,l),
(235,1490,l)
);
}
);
width = 1808;
}
);
unicode = 911;
},
{
glyphname = Oslash;
layers = (
{
layerId = "F13BA0ED-FC1D-44B0-ADA4-543E9A2824CE";
shapes = (
{
closed = 1;
nodes = (
(1346,253,o),
(1033,-31,o),
(644,-31,cs),
(500,-31,o),
(382,8,o),
(297,80,c),
(129,-116,l),
(-16,-116,l),
(225,162,l),
(134,293,o),
(103,487,o),
(154,744,cs),
(252,1234,o),
(567,1520,o),
(954,1520,cs),
(1103,1520,o),
(1205,1482,o),
(1297,1410,c),
(1444,1581,l),
(1589,1581,l),
(1371,1330,l),
(1462,1195,o),
(1497,1008,o),
(1444,744,cs)
);
},
{
closed = 1;
nodes = (
(1167,1260,l),
(1124,1304,o),
(1067,1331,o),
(996,1343,cs),
(972,1347,o),
(946,1349,o),
(920,1349,cs),
(648,1349,o),
(433,1139,o),
(354,744,cs),
(318,565,o),
(324,424,o),
(367,324,c)
);
},
{
closed = 1;
nodes = (
(1281,927,o),
(1270,1073,o),
(1230,1169,c),
(428,232,l),
(475,184,o),
(529,156,o),
(597,145,cs),
(622,141,o),
(649,140,o),
(679,140,cs),
(875,140,o),
(1054,256,o),
(1162,485,cs),
(1198,560,o),
(1224,646,o),
(1244,744,cs)
);
}
);
width = 1410;
},
{
layerId = "1D873A00-654D-4240-B6DF-C2B832D3BA68";
shapes = (
{
closed = 1;
nodes = (
(1304,244,o),
(992,-31,o),
(624,-31,cs),
(474,-31,o),
(354,11,o),
(273,89,c),
(99,-113,l),
(-27,-113,l),
(215,164,l),
(131,293,o),
(102,484,o),
(154,744,cs),
(253,1239,o),
(565,1520,o),
(934,1520,cs),
(1091,1520,o),
(1191,1478,o),
(1281,1401,c),
(1433,1577,l),
(1559,1577,l),
(1340,1328,l),
(1423,1195,o),
(1458,1013,o),
(1404,744,cs)
);
},
{
closed = 1;
nodes = (
(1180,1286,l),
(1137,1331,o),
(1081,1360,o),
(1008,1376,cs),
(983,1381,o),
(954,1384,o),
(925,1385,cs),
(611,1393,o),
(380,1160,o),
(297,744,cs),
(257,544,o),
(267,390,o),
(319,282,c)
);
},
{
closed = 1;
nodes = (
(1303,916,o),
(1289,1095,o),
(1239,1211,c),
(374,206,l),
(421,157,o),
(474,127,o),
(542,112,c),
(569,107,o),
(600,105,o),
(634,104,c),
(839,93,o),
(1027,196,o),
(1152,398,c),
(1196,480,o),
(1230,577,o),
(1255,689,c)
);
}
);
width = 1369;
},
{
layerId = "6CF7F53B-663E-4569-94B0-B9FCEE5B09F0";
shapes = (
{
closed = 1;
nodes = (
(1519,289,o),
(1197,-31,o),
(727,-31,cs),
(605,-31,o),
(492,-5,o),
(397,45,c),
(251,-129,l),
(28,-129,l),
(266,153,l),
(145,293,o),
(106,498,o),
(155,744,cs),
(249,1215,o),
(579,1520,o),
(1037,1520,cs),
(1155,1520,o),
(1264,1499,o),
(1363,1447,c),
(1489,1596,l),
(1715,1596,l),
(1497,1338,l),
(1619,1195,o),
(1659,989,o),
(1610,744,cs)
);
},
{
closed = 1;
nodes = (
(1118,1157,l),
(1075,1196,o),
(1012,1215,o),
(951,1211,cs),
(934,1210,o),
(919,1208,o),
(904,1204,cs),
(798,1174,o),
(646,1055,o),
(584,744,cs),
(565,650,o),
(555,561,o),
(562,492,c)
);
},
{
closed = 1;
nodes = (
(1197,972,o),
(1199,986,o),
(1202,1001,c),
(644,335,l),
(691,291,o),
(749,273,o),
(818,277,cs),
(833,278,o),
(846,281,o),
(861,285,cs),
(1022,327,o),
(1163,495,o),
(1209,832,c),
(1212,880,o),
(1211,923,o),
(1207,964,c)
);
}
);
width = 1578;
},
{
layerId = "C5AA7147-E6CF-43E6-A817-BB6994C58056";
shapes = (
{
closed = 1;
nodes = (
(1476,280,o),
(1156,-31,o),
(706,-31,cs),
(579,-31,o),
(465,-2,o),
(373,54,c),
(220,-126,l),
(17,-126,l),
(255,155,l),
(141,293,o),
(105,495,o),
(155,744,cs),
(250,1220,o),
(576,1520,o),
(1016,1520,cs),
(1141,1520,o),
(1250,1495,o),
(1347,1438,c),
(1478,1592,l),
(1683,1592,l),
(1466,1336,l),
(1581,1195,o),
(1619,994,o),
(1569,744,cs)
);
},
{
closed = 1;
nodes = (
(1130,1183,l),
(1087,1223,o),
(1025,1244,o),
(962,1244,cs),
(943,1244,o),
(925,1243,o),
(908,1240,cs),
(761,1218,o),
(592,1076,o),
(526,744,cs),
(503,629,o),
(497,527,o),
(513,450,c)
);
},
{
closed = 1;
nodes = (
(1219,961,o),
(1217,1008,o),
(1209,1043,c),
(590,309,l),
(637,264,o),
(693,244,o),
(762,244,cs),
(780,244,o),
(797,246,o),
(815,249,cs),
(985,280,o),
(1136,435,o),
(1198,745,cs),
(1209,800,o),
(1215,854,o),
(1217,909,cs)
);
}
);
width = 1536;
}
);
unicode = 216;
},
{
glyphname = P;
layers = (
{
layerId = "F13BA0ED-FC1D-44B0-ADA4-543E9A2824CE";
shapes = (
{
closed = 1;
nodes = (
(1167,822,o),
(1008,662,o),
(818,594,cs),
(744,568,o),
(656,555,o),
(552,555,cs),
(387,555,l),
(276,0,l),
(82,0,l),
(380,1489,l),
(746,1489,ls),
(1001,1489,o),
(1151,1419,o),
(1208,1251,cs),
(1227,1193,o),
(1226,1122,o),
(1211,1040,c)
);
},
{
closed = 1;
nodes = (
(1048,1232,o),
(942,1319,o),
(701,1319,cs),
(674,1319,o),
(646,1319,o),
(620,1319,cs),
(540,1319,l),
(421,724,l),
(553,724,ls),
(764,724,o),
(883,770,o),
(964,911,cs),
(984,946,o),
(999,987,o),
(1009,1035,cs)
);
}
);
width = 1093;
},
{
layerId = "1D873A00-654D-4240-B6DF-C2B832D3BA68";
shapes = (
{
closed = 1;
nodes = (
(1101,833,o),
(937,676,o),
(754,613,cs),
(682,589,o),
(593,578,o),
(489,578,cs),
(333,578,l),
(218,0,l),
(81,0,l),
(379,1489,l),
(733,1489,ls),
(979,1489,o),
(1096,1397,o),
(1144,1242,cs),
(1160,1188,o),
(1158,1123,o),
(1144,1047,c)
);
},
{
closed = 1;
nodes = (
(1040,1244,o),
(956,1357,o),
(662,1355,cs),
(633,1355,o),
(605,1355,o),
(579,1355,cs),
(488,1355,l),
(360,710,l),
(506,710,l),
(742,709,o),
(864,763,o),
(953,914,c),
(974,952,o),
(990,993,o),
(1000,1043,cs)
);
}
);
width = 1022;
},
{
layerId = "6CF7F53B-663E-4569-94B0-B9FCEE5B09F0";
shapes = (
{
closed = 1;
nodes = (
(1432,779,o),
(1290,606,o),
(1073,517,cs),
(994,484,o),
(909,464,o),
(804,464,cs),
(603,464,l),
(510,0,l),
(86,0,l),
(384,1489,l),
(801,1489,ls),
(1091,1489,o),
(1371,1508,o),
(1462,1286,cs),
(1492,1212,o),
(1500,1118,o),
(1479,1012,c)
);
},
{
closed = 1;
nodes = (
(1078,1183,o),
(884,1168,o),
(857,1174,c),
(838,1175,o),
(813,1175,o),
(787,1175,cs),
(745,1175,l),
(666,779,l),
(744,779,l),
(855,783,o),
(959,797,o),
(1010,899,c),
(1023,923,o),
(1034,963,o),
(1042,1002,cs)
);
}
);
width = 1375;
},
{
layerId = "C5AA7147-E6CF-43E6-A817-BB6994C58056";
shapes = (
{
closed = 1;
nodes = (
(1366,790,o),
(1220,620,o),
(1010,536,cs),
(932,505,o),
(846,487,o),
(741,487,cs),
(549,487,l),
(452,0,l),
(85,0,l),
(383,1489,l),
(787,1489,ls),
(1068,1489,o),
(1316,1486,o),
(1399,1277,cs),
(1426,1207,o),
(1432,1119,o),
(1412,1019,c)
);
},
{
closed = 1;
nodes = (
(1071,1195,o),
(899,1206,o),
(818,1210,cs),
(797,1211,o),
(772,1211,o),
(746,1211,cs),
(694,1211,l),
(605,765,l),
(697,765,l),
(833,768,o),
(939,790,o),
(998,902,cs),
(1012,929,o),
(1026,969,o),
(1034,1010,cs)
);
}
);
width = 1305;
}
);
unicode = 80;
},
{
glyphname = Phi;
layers = (
{
layerId = "F13BA0ED-FC1D-44B0-ADA4-543E9A2824CE";
shapes = (
{
closed = 1;
nodes = (
(833,1190,l),
(582,1186,o),
(412,1027,o),
(359,763,cs),
(316,547,o),
(356,408,o),
(505,340,cs),
(547,321,o),
(598,309,o),
(657,310,c)
);
},
{
closed = 1;
nodes = (
(1056,1343,l),
(1428,1335,o),
(1597,1096,o),
(1529,755,cs),
(1452,368,o),
(1154,168,o),
(820,160,c),
(786,-12,l),
(593,-12,l),
(627,160,l),
(310,168,o),
(76,353,o),
(156,755,cs),
(226,1106,o),
(496,1331,o),
(863,1343,c),
(895,1501,l),
(1088,1501,l)
);
},
{
closed = 1;
nodes = (
(850,310,l),
(1127,314,o),
(1278,506,o),
(1329,763,cs),
(1381,1024,o),
(1275,1182,o),
(1026,1190,c)
);
}
);
width = 1493;
},
{
layerId = "1D873A00-654D-4240-B6DF-C2B832D3BA68";
shapes = (
{
closed = 1;
nodes = (
(823,1218,l),
(546,1224,o),
(361,1050,o),
(304,763,cs),
(256,524,o),
(303,377,o),
(471,306,cs),
(518,287,o),
(572,276,o),
(636,281,c)
);
},
{
closed = 1;
nodes = (
(984,1339,l),
(1355,1337,o),
(1507,1088,o),
(1440,755,cs),
(1359,350,o),
(1053,161,o),
(749,164,c),
(714,-12,l),
(578,-12,l),
(613,164,l),
(310,163,o),
(77,346,o),
(159,755,cs),
(230,1110,o),
(502,1335,o),
(848,1339,c),
(880,1500,l),
(1016,1500,l)
);
},
{
closed = 1;
nodes = (
(772,281,l),
(1078,273,o),
(1244,491,o),
(1298,763,cs),
(1355,1048,o),
(1239,1218,o),
(960,1218,c)
);
}
);
width = 1406;
},
{
layerId = "6CF7F53B-663E-4569-94B0-B9FCEE5B09F0";
shapes = (
{
closed = 1;
nodes = (
(869,1077,l),
(725,1035,o),
(616,936,o),
(581,762,cs),
(556,639,o),
(569,533,o),
(642,476,c),
(666,456,o),
(700,440,o),
(739,426,c)
);
},
{
closed = 1;
nodes = (
(1346,1358,l),
(1720,1326,o),
(1960,1128,o),
(1886,756,cs),
(1823,441,o),
(1557,195,o),
(1104,145,c),
(1073,-12,l),
(651,-12,l),
(683,145,l),
(312,189,o),
(70,382,o),
(145,756,cs),
(212,1090,o),
(474,1315,o),
(925,1358,c),
(954,1505,l),
(1376,1505,l)
);
},
{
closed = 1;
nodes = (
(1160,426,l),
(1322,478,o),
(1413,566,o),
(1452,762,cs),
(1485,927,o),
(1418,1037,o),
(1290,1077,c)
);
}
);
width = 1838;
},
{
layerId = "C5AA7147-E6CF-43E6-A817-BB6994C58056";
shapes = (
{
closed = 1;
nodes = (
(860,1105,l),
(690,1073,o),
(564,959,o),
(525,762,cs),
(496,616,o),
(516,502,o),
(608,442,cs),
(637,422,o),
(674,407,o),
(718,397,c)
);
},
{
closed = 1;
nodes = (
(1274,1354,l),
(1647,1328,o),
(1869,1120,o),
(1796,756,cs),
(1729,423,o),
(1456,188,o),
(1033,149,c),
(1001,-12,l),
(636,-12,l),
(669,149,l),
(311,184,o),
(72,375,o),
(148,756,cs),
(216,1094,o),
(480,1319,o),
(909,1354,c),
(939,1504,l),
(1304,1504,l)
);
},
{
closed = 1;
nodes = (
(1083,397,l),
(1274,437,o),
(1379,551,o),
(1421,762,cs),
(1459,951,o),
(1382,1073,o),
(1224,1105,c)
);
}
);
width = 1752;
}
);
unicode = 934;
},
{
glyphname = Pi;
layers = (
{
layerId = "F13BA0ED-FC1D-44B0-ADA4-543E9A2824CE";
shapes = (
{
closed = 1;
nodes = (
(1142,0,l),
(948,0,l),
(1210,1313,l),
(539,1313,l),
(276,0,l),
(82,0,l),
(380,1489,l),
(1439,1489,l)
);
}
);
width = 1334;
},
{
layerId = "1D873A00-654D-4240-B6DF-C2B832D3BA68";
shapes = (
{
closed = 1;
nodes = (
(1083,0,l),
(947,0,l),
(1216,1349,l),
(487,1349,l),
(218,0,l),
(81,0,l),
(379,1489,l),
(1381,1489,l)
);
}
);
width = 1274;
},
{
layerId = "6CF7F53B-663E-4569-94B0-B9FCEE5B09F0";
shapes = (
{
closed = 1;
nodes = (
(1376,0,l),
(951,0,l),
(1185,1169,l),
(744,1169,l),
(510,0,l),
(86,0,l),
(384,1489,l),
(1673,1489,l)
);
}
);
width = 1571;
},
{
layerId = "C5AA7147-E6CF-43E6-A817-BB6994C58056";
shapes = (
{
closed = 1;
nodes = (
(1317,0,l),
(950,0,l),
(1191,1205,l),
(692,1205,l),
(452,0,l),
(85,0,l),
(383,1489,l),
(1615,1489,l)
);
}
);
width = 1512;
}
);
unicode = 928;
},
{
glyphname = Psi;
layers = (
{
layerId = "F13BA0ED-FC1D-44B0-ADA4-543E9A2824CE";
shapes = (
{
closed = 1;
nodes = (
(528,531,o),
(621,503,o),
(735,495,c),
(933,1489,l),
(1126,1489,l),
(928,495,l),
(1161,514,o),
(1325,591,o),
(1382,878,cs),
(1504,1489,l),
(1699,1489,l),
(1581,901,ls),
(1494,468,o),
(1241,345,o),
(893,323,c),
(829,0,l),
(636,0,l),
(700,323,l),
(350,350,o),
(157,473,o),
(243,901,cs),
(361,1489,l),
(555,1489,l),
(433,878,ls),
(405,738,o),
(420,645,o),
(475,589,c)
);
}
);
width = 1574;
},
{
layerId = "1D873A00-654D-4240-B6DF-C2B832D3BA68";
shapes = (
{
closed = 1;
nodes = (
(495,495,o),
(597,471,o),
(720,466,c),
(925,1489,l),
(1061,1489,l),
(856,466,l),
(1105,479,o),
(1290,548,o),
(1352,857,cs),
(1478,1489,l),
(1617,1489,l),
(1497,889,ls),
(1408,442,o),
(1152,338,o),
(828,322,c),
(763,0,l),
(627,0,l),
(691,322,l),
(360,344,o),
(161,450,o),
(249,889,cs),
(369,1489,l),
(507,1489,l),
(381,857,ls),
(351,707,o),
(369,609,o),
(433,553,c)
);
}
);
width = 1500;
},
{
layerId = "6CF7F53B-663E-4569-94B0-B9FCEE5B09F0";
shapes = (
{
closed = 1;
nodes = (
(662,675,o),
(716,631,o),
(793,611,c),
(968,1489,l),
(1386,1489,l),
(1211,611,l),
(1384,653,o),
(1464,762,o),
(1504,963,cs),
(1609,1489,l),
(2026,1489,l),
(1919,949,ls),
(1844,572,o),
(1603,372,o),
(1154,328,c),
(1089,0,l),
(670,0,l),
(736,328,l),
(305,375,o),
(143,566,o),
(220,949,cs),
(328,1489,l),
(746,1489,l),
(640,963,ls),
(620,863,o),
(623,788,o),
(642,732,c)
);
}
);
width = 1869;
},
{
layerId = "C5AA7147-E6CF-43E6-A817-BB6994C58056";
shapes = (
{
closed = 1;
nodes = (
(629,639,o),
(691,599,o),
(778,582,c),
(960,1489,l),
(1321,1489,l),
(1140,582,l),
(1328,618,o),
(1429,719,o),
(1474,942,cs),
(1583,1489,l),
(1944,1489,l),
(1834,937,ls),
(1756,546,o),
(1513,365,o),
(1089,327,c),
(1024,0,l),
(662,0,l),
(727,327,l),
(316,369,o),
(147,543,o),
(226,937,cs),
(336,1489,l),
(698,1489,l),
(589,942,ls),
(567,832,o),
(572,752,o),
(600,696,c)
);
}
);
width = 1795;
}
);
unicode = 936;
},
{
glyphname = Q;
layers = (
{
layerId = "F13BA0ED-FC1D-44B0-ADA4-543E9A2824CE";
shapes = (
{
closed = 1;
nodes = (
(1228,-364,l),
(1154,-382,o),
(1070,-392,o),
(995,-392,cs),
(780,-392,o),
(654,-266,o),
(689,-30,c),
(380,-30,o),
(168,85,o),
(133,416,cs),
(123,513,o),
(129,621,o),
(154,744,cs),
(250,1223,o),
(546,1520,o),
(954,1520,cs),
(1356,1520,o),
(1540,1225,o),
(1444,744,cs),
(1367,357,o),
(1155,99,o),
(885,12,c),
(865,-154,o),
(916,-219,o),
(1062,-219,cs),
(1109,-219,o),
(1207,-195,o),
(1237,-184,c),
(1264,-184,l)
);
},
{
closed = 1;
nodes = (
(1323,1146,o),
(1185,1349,o),
(920,1349,cs),
(654,1349,o),
(438,1152,o),
(356,744,cs),
(278,353,o),
(409,139,o),
(679,139,cs),
(944,139,o),
(1164,347,o),
(1243,744,cs)
);
}
);
width = 1411;
},
{
layerId = "1D873A00-654D-4240-B6DF-C2B832D3BA68";
shapes = (
{
closed = 1;
nodes = (
(1191,-354,l),
(1122,-371,o),
(1024,-382,o),
(983,-382,cs),
(799,-382,o),
(662,-271,o),
(697,-31,c),
(377,-36,o),
(159,74,o),
(130,425,c),
(123,520,o),
(130,625,o),
(154,744,cs),
(251,1230,o),
(542,1520,o),
(933,1520,cs),
(1329,1520,o),
(1498,1217,o),
(1403,744,cs),
(1323,343,o),
(1107,88,o),
(842,8,c),
(825,-162,o),
(873,-236,o),
(1021,-236,cs),
(1065,-236,o),
(1168,-213,o),
(1197,-203,c),
(1221,-203,l)
);
},
{
closed = 1;
nodes = (
(1345,1167,o),
(1197,1386,o),
(907,1386,cs),
(606,1386,o),
(381,1162,o),
(297,744,cs),
(217,346,o),
(346,102,o),
(651,102,cs),
(941,102,o),
(1176,325,o),
(1260,744,cs)
);
}
);
width = 1369;
},
{
layerId = "6CF7F53B-663E-4569-94B0-B9FCEE5B09F0";
shapes = (
{
closed = 1;
nodes = (
(1377,-404,l),
(1281,-427,o),
(1254,-433,o),
(1042,-433,cs),
(706,-433,o),
(623,-246,o),
(658,-26,c),
(395,-6,o),
(203,130,o),
(146,379,c),
(124,484,o),
(127,605,o),
(155,744,cs),
(245,1196,o),
(563,1520,o),
(1037,1520,cs),
(1461,1520,o),
(1712,1256,o),
(1610,744,cs),
(1544,412,o),
(1346,143,o),
(1057,29,c),
(1023,-121,o),
(1086,-150,o),
(1225,-150,cs),
(1283,-150,o),
(1367,-124,o),
(1396,-109,c),
(1436,-109,l)
);
},
{
closed = 1;
nodes = (
(1236,1061,o),
(1135,1202,o),
(974,1202,cs),
(850,1202,o),
(666,1112,o),
(592,744,cs),
(520,382,o),
(663,287,o),
(791,287,cs),
(952,287,o),
(1111,436,o),
(1173,745,cs)
);
}
);
width = 1578;
},
{
layerId = "C5AA7147-E6CF-43E6-A817-BB6994C58056";
shapes = (
{
closed = 1;
nodes = (
(1339,-394,l),
(1248,-416,o),
(1207,-423,o),
(1030,-423,cs),
(724,-423,o),
(631,-251,o),
(666,-27,c),
(392,-12,o),
(194,119,o),
(143,388,cs),
(123,491,o),
(128,609,o),
(155,744,cs),
(247,1203,o),
(558,1520,o),
(1016,1520,cs),
(1434,1520,o),
(1670,1248,o),
(1569,744,cs),
(1500,398,o),
(1298,132,o),
(1014,25,c),
(983,-129,o),
(1043,-167,o),
(1184,-167,cs),
(1239,-167,o),
(1327,-142,o),
(1356,-128,c),
(1393,-128,l)
);
},
{
closed = 1;
nodes = (
(1258,1082,o),
(1147,1239,o),
(961,1239,cs),
(801,1239,o),
(609,1122,o),
(533,744,cs),
(459,375,o),
(599,250,o),
(763,250,cs),
(949,250,o),
(1125,414,o),
(1191,745,cs)
);
}
);
width = 1536;
}
);
unicode = 81;
},
{
glyphname = R;
layers = (
{
layerId = "F13BA0ED-FC1D-44B0-ADA4-543E9A2824CE";
shapes = (
{
closed = 1;
nodes = (
(1212,0,l),
(960,0,l),
(616,592,l),
(395,592,l),
(276,0,l),
(82,0,l),
(380,1489,l),
(756,1489,ls),
(984,1489,o),
(1144,1455,o),
(1207,1281,cs),
(1226,1228,o),
(1228,1162,o),
(1213,1085,cs),
(1169,863,o),
(1019,717,o),
(822,648,c)
);
},
{
closed = 1;
nodes = (
(1040,1235,o),
(955,1319,o),
(732,1319,cs),
(540,1319,l),
(428,757,l),
(598,757,ls),
(779,757,o),
(954,804,o),
(1007,1070,cs)
);
}
);
width = 1237;
},
{
layerId = "1D873A00-654D-4240-B6DF-C2B832D3BA68";
shapes = (
{
closed = 1;
nodes = (
(1138,0,l),
(952,0,l),
(592,607,l),
(340,607,l),
(219,0,l),
(81,0,l),
(379,1489,l),
(724,1489,ls),
(945,1489,o),
(1090,1442,o),
(1140,1265,c),
(1153,1215,o),
(1151,1154,o),
(1138,1087,cs),
(1094,867,o),
(941,717,o),
(740,653,c)
);
},
{
closed = 1;
nodes = (
(1027,1259,o),
(935,1354,o),
(705,1354,cs),
(489,1354,l),
(366,738,l),
(558,738,ls),
(741,738,o),
(933,788,o),
(992,1082,cs)
);
}
);
width = 1166;
},
{
layerId = "6CF7F53B-663E-4569-94B0-B9FCEE5B09F0";
shapes = (
{
closed = 1;
nodes = (
(1509,0,l),
(996,0,l),
(714,531,l),
(614,531,l),
(507,0,l),
(86,0,l),
(384,1489,l),
(884,1489,ls),
(1141,1489,o),
(1358,1506,o),
(1474,1345,c),
(1519,1280,o),
(1535,1195,o),
(1512,1078,cs),
(1466,847,o),
(1333,717,o),
(1152,628,c)
);
},
{
closed = 1;
nodes = (
(1090,1140,o),
(1036,1180,o),
(842,1180,cs),
(743,1180,l),
(674,833,l),
(757,833,ls),
(931,833,o),
(1036,869,o),
(1066,1021,cs)
);
}
);
width = 1520;
},
{
layerId = "C5AA7147-E6CF-43E6-A817-BB6994C58056";
shapes = (
{
closed = 1;
nodes = (
(1435,0,l),
(988,0,l),
(690,546,l),
(559,546,l),
(450,0,l),
(85,0,l),
(383,1489,l),
(852,1489,ls),
(1102,1489,o),
(1305,1493,o),
(1407,1329,cs),
(1446,1267,o),
(1458,1187,o),
(1437,1080,cs),
(1391,851,o),
(1255,717,o),
(1070,633,c)
);
},
{
closed = 1;
nodes = (
(1077,1164,o),
(1016,1215,o),
(815,1215,cs),
(692,1215,l),
(612,814,l),
(717,814,ls),
(893,814,o),
(1015,853,o),
(1051,1033,cs)
);
}
);
width = 1449;
}
);
unicode = 82;
},
{
glyphname = S;
layers = (
{
layerId = "F13BA0ED-FC1D-44B0-ADA4-543E9A2824CE";
shapes = (
{
closed = 1;
nodes = (
(274,-27,o),
(151,22,o),
(33,89,c),
(82,337,l),
(96,337,l),
(196,215,o),
(359,144,o),
(509,144,cs),
(721,144,o),
(854,242,o),
(884,393,cs),
(908,511,o),
(868,585,o),
(750,621,cs),
(660,648,o),
(610,658,o),
(500,689,cs),
(319,739,o),
(196,850,o),
(244,1090,cs),
(292,1329,o),
(536,1516,o),
(820,1516,cs),
(983,1516,o),
(1121,1480,o),
(1235,1420,c),
(1187,1183,l),
(1173,1183,l),
(1098,1267,o),
(955,1345,o),
(798,1345,cs),
(625,1345,o),
(478,1253,o),
(450,1111,cs),
(404,879,o),
(587,895,o),
(878,800,c),
(1067,735,o),
(1130,608,o),
(1093,424,cs),
(1055,232,o),
(901,75,o),
(717,8,cs),
(654,-15,o),
(577,-27,o),
(489,-27,cs)
);
}
);
width = 1109;
},
{
layerId = "1D873A00-654D-4240-B6DF-C2B832D3BA68";
shapes = (
{
closed = 1;
nodes = (
(259,-27,o),
(146,23,o),
(34,89,c),
(76,302,l),
(84,302,l),
(177,181,o),
(337,110,o),
(482,110,cs),
(717,110,o),
(853,225,o),
(886,390,cs),
(912,521,o),
(879,606,o),
(745,647,cs),
(658,673,o),
(628,681,o),
(513,710,c),
(338,750,o),
(199,857,o),
(248,1104,cs),
(293,1330,o),
(517,1516,o),
(783,1516,cs),
(943,1516,o),
(1068,1481,o),
(1180,1421,c),
(1140,1219,l),
(1131,1219,l),
(1059,1300,o),
(921,1378,o),
(767,1378,cs),
(567,1378,o),
(425,1265,o),
(395,1117,cs),
(343,855,o),
(547,864,o),
(821,778,c),
(1011,717,o),
(1069,586,o),
(1034,410,cs),
(996,218,o),
(836,62,o),
(667,1,cs),
(615,-17,o),
(549,-27,o),
(473,-27,cs)
);
}
);
width = 1057;
},
{
layerId = "6CF7F53B-663E-4569-94B0-B9FCEE5B09F0";
shapes = (
{
closed = 1;
nodes = (
(333,-27,o),
(170,19,o),
(28,88,c),
(106,477,l),
(145,477,l),
(272,352,o),
(448,279,o),
(620,279,cs),
(737,279,o),
(860,309,o),
(879,405,cs),
(892,471,o),
(823,501,o),
(768,518,c),
(667,548,o),
(540,567,o),
(449,605,c),
(243,694,o),
(183,823,o),
(225,1034,cs),
(283,1324,o),
(606,1516,o),
(966,1516,cs),
(1139,1516,o),
(1332,1476,o),
(1455,1415,c),
(1380,1040,l),
(1341,1040,l),
(1250,1135,o),
(1093,1212,o),
(926,1212,cs),
(858,1212,o),
(691,1204,o),
(668,1087,cs),
(645,974,o),
(746,1020,o),
(1104,887,c),
(1288,808,o),
(1370,697,o),
(1326,479,cs),
(1288,288,o),
(1164,127,o),
(919,35,c),
(808,-6,o),
(688,-27,o),
(552,-27,cs)
);
}
);
width = 1314;
},
{
layerId = "C5AA7147-E6CF-43E6-A817-BB6994C58056";
shapes = (
{
closed = 1;
nodes = (
(318,-27,o),
(165,20,o),
(29,88,c),
(100,442,l),
(133,442,l),
(253,318,o),
(426,245,o),
(593,245,cs),
(733,245,o),
(859,292,o),
(881,402,cs),
(897,481,o),
(834,522,o),
(763,544,cs),
(665,573,o),
(558,590,o),
(462,626,cs),
(262,705,o),
(186,830,o),
(230,1048,cs),
(285,1325,o),
(589,1516,o),
(930,1516,cs),
(1101,1516,o),
(1279,1477,o),
(1400,1416,c),
(1332,1076,l),
(1300,1076,l),
(1213,1168,o),
(1058,1245,o),
(894,1245,cs),
(800,1245,o),
(638,1216,o),
(613,1093,cs),
(584,950,o),
(707,989,o),
(1048,865,c),
(1233,790,o),
(1310,675,o),
(1268,465,cs),
(1230,274,o),
(1099,114,o),
(869,28,cs),
(770,-8,o),
(660,-27,o),
(536,-27,cs)
);
}
);
width = 1263;
}
);
unicode = 83;
},
{
glyphname = Scedilla;
layers = (
{
layerId = "F13BA0ED-FC1D-44B0-ADA4-543E9A2824CE";
shapes = (
{
closed = 1;
nodes = (
(275,-26,o),
(151,22,o),
(33,89,c),
(82,337,l),
(96,337,l),
(196,215,o),
(359,144,o),
(509,144,cs),
(722,144,o),
(854,243,o),
(884,393,cs),
(908,511,o),
(867,585,o),
(750,621,cs),
(660,648,o),
(610,658,o),
(500,689,cs),
(319,739,o),
(196,850,o),
(244,1090,cs),
(292,1329,o),
(536,1516,o),
(820,1516,cs),
(983,1516,o),
(1121,1480,o),
(1235,1420,c),
(1187,1183,l),
(1173,1183,l),
(1098,1267,o),
(955,1345,o),
(798,1345,cs),
(619,1345,o),
(478,1250,o),
(450,1111,cs),
(404,879,o),
(587,895,o),
(878,800,c),
(1067,735,o),
(1130,608,o),
(1093,424,cs),
(1054,228,o),
(894,68,o),
(707,7,c),
(703,-13,o),
(701,-50,o),
(693,-89,cs),
(650,-306,o),
(495,-423,o),
(324,-423,cs),
(276,-423,o),
(199,-414,o),
(155,-399,c),
(187,-239,l),
(196,-239,l),
(223,-252,o),
(277,-273,o),
(328,-273,cs),
(448,-273,o),
(516,-225,o),
(540,-107,c),
(541,-101,o),
(541,-95,o),
(542,-88,c),
(546,-68,ls),
(549,-54,o),
(551,-39,o),
(554,-23,c),
(530,-23,o),
(514,-26,o),
(489,-26,cs)
);
}
);
width = 1109;
},
{
layerId = "1D873A00-654D-4240-B6DF-C2B832D3BA68";
shapes = (
{
closed = 1;
nodes = (
(262,-27,o),
(147,22,o),
(34,89,c),
(76,302,l),
(84,302,l),
(177,181,o),
(337,110,o),
(482,110,cs),
(722,110,o),
(854,228,o),
(886,390,cs),
(912,522,o),
(878,605,o),
(745,647,cs),
(657,673,o),
(630,681,o),
(513,710,c),
(339,751,o),
(198,855,o),
(248,1104,cs),
(293,1331,o),
(518,1516,o),
(783,1516,cs),
(941,1516,o),
(1068,1481,o),
(1180,1421,c),
(1140,1219,l),
(1131,1219,l),
(1059,1300,o),
(921,1378,o),
(767,1378,cs),
(562,1378,o),
(424,1264,o),
(395,1117,cs),
(343,859,o),
(523,867,o),
(821,778,c),
(1011,717,o),
(1069,586,o),
(1034,410,cs),
(995,217,o),
(833,57,o),
(658,0,c),
(653,-13,o),
(653,-45,o),
(644,-90,cs),
(600,-308,o),
(446,-423,o),
(286,-423,cs),
(235,-423,o),
(172,-415,o),
(125,-399,c),
(155,-252,l),
(161,-252,l),
(187,-265,o),
(238,-286,o),
(290,-286,cs),
(418,-286,o),
(490,-238,o),
(513,-104,c),
(513,-100,o),
(511,-97,o),
(512,-93,c),
(517,-68,ls),
(520,-51,o),
(523,-37,o),
(525,-25,c),
(503,-25,o),
(496,-27,o),
(473,-27,cs)
);
}
);
width = 1057;
},
{
layerId = "6CF7F53B-663E-4569-94B0-B9FCEE5B09F0";
shapes = (
{
closed = 1;
nodes = (
(328,-22,o),
(167,23,o),
(28,88,c),
(106,477,l),
(145,477,l),
(272,352,o),
(448,279,o),
(620,279,cs),
(722,279,o),
(859,303,o),
(879,405,cs),
(891,467,o),
(825,504,o),
(768,518,c),
(671,547,o),
(534,566,o),
(449,605,c),
(240,692,o),
(184,831,o),
(225,1034,cs),
(283,1322,o),
(602,1516,o),
(966,1516,cs),
(1147,1516,o),
(1333,1476,o),
(1455,1415,c),
(1380,1040,l),
(1341,1040,l),
(1250,1135,o),
(1093,1212,o),
(926,1212,cs),
(849,1212,o),
(690,1195,o),
(668,1087,cs),
(642,958,o),
(841,1008,o),
(1104,887,c),
(1288,808,o),
(1370,697,o),
(1326,479,cs),
(1285,272,o),
(1139,113,o),
(906,34,c),
(902,-14,o),
(894,-71,o),
(891,-85,cs),
(848,-298,o),
(686,-423,o),
(474,-423,cs),
(437,-423,o),
(306,-410,o),
(272,-399,c),
(314,-186,l),
(336,-186,l),
(366,-200,o),
(434,-221,o),
(481,-221,cs),
(565,-221,o),
(619,-174,o),
(648,-119,c),
(654,-104,o),
(660,-87,o),
(664,-69,c),
(665,-67,l),
(665,-65,o),
(669,-48,o),
(673,-16,c),
(637,-16,o),
(590,-22,o),
(553,-22,cs)
);
}
);
width = 1314;
},
{
layerId = "C5AA7147-E6CF-43E6-A817-BB6994C58056";
shapes = (
{
closed = 1;
nodes = (
(315,-23,o),
(163,23,o),
(29,88,c),
(100,442,l),
(133,442,l),
(253,318,o),
(426,245,o),
(593,245,cs),
(722,245,o),
(858,288,o),
(881,402,cs),
(896,478,o),
(835,524,o),
(763,544,cs),
(668,572,o),
(554,589,o),
(462,626,cs),
(260,704,o),
(188,836,o),
(230,1048,cs),
(285,1324,o),
(586,1516,o),
(930,1516,cs),
(1106,1516,o),
(1280,1477,o),
(1400,1416,c),
(1332,1076,l),
(1300,1076,l),
(1213,1168,o),
(1058,1245,o),
(894,1245,cs),
(791,1245,o),
(636,1209,o),
(613,1093,cs),
(582,938,o),
(778,980,o),
(1048,865,c),
(1233,790,o),
(1310,675,o),
(1268,465,cs),
(1227,261,o),
(1079,102,o),
(857,27,c),
(853,-14,o),
(846,-66,o),
(842,-86,cs),
(799,-300,o),
(638,-423,o),
(437,-423,cs),
(397,-423,o),
(279,-411,o),
(242,-399,c),
(282,-199,l),
(301,-199,l),
(330,-213,o),
(395,-234,o),
(443,-234,cs),
(536,-234,o),
(593,-187,o),
(621,-116,c),
(626,-103,o),
(631,-89,o),
(634,-74,c),
(635,-67,l),
(636,-62,o),
(639,-46,o),
(643,-18,c),
(610,-18,o),
(571,-23,o),
(537,-23,cs)
);
}
);
width = 1263;
}
);
unicode = 350;
},
{
glyphname = Scommaaccent;
layers = (
{
layerId = "F13BA0ED-FC1D-44B0-ADA4-543E9A2824CE";
shapes = (
{
closed = 1;
nodes = (
(274,-27,o),
(151,22,o),
(33,89,c),
(82,337,l),
(96,337,l),
(196,215,o),
(359,144,o),
(509,144,cs),
(721,144,o),
(854,242,o),
(884,393,cs),
(908,511,o),
(868,585,o),
(750,621,cs),
(660,648,o),
(610,658,o),
(500,689,cs),
(319,739,o),
(196,850,o),
(244,1090,cs),
(292,1329,o),
(536,1516,o),
(820,1516,cs),
(983,1516,o),
(1121,1480,o),
(1235,1420,c),
(1187,1183,l),
(1173,1183,l),
(1098,1267,o),
(955,1345,o),
(798,1345,cs),
(625,1345,o),
(478,1253,o),
(450,1111,cs),
(404,879,o),
(587,895,o),
(878,800,c),
(1067,735,o),
(1130,608,o),
(1093,424,cs),
(1055,232,o),
(901,75,o),
(717,8,cs),
(654,-15,o),
(577,-27,o),
(489,-27,cs)
);
},
{
closed = 1;
nodes = (
(211,-423,l),
(399,-154,l),
(636,-154,l),
(346,-423,l)
);
}
);
width = 1109;
},
{
layerId = "1D873A00-654D-4240-B6DF-C2B832D3BA68";
shapes = (
{
closed = 1;
nodes = (
(259,-27,o),
(146,23,o),
(34,89,c),
(76,302,l),
(84,302,l),
(177,181,o),
(337,110,o),
(482,110,cs),
(717,110,o),
(853,225,o),
(886,390,cs),
(912,521,o),
(879,606,o),
(745,647,cs),
(658,673,o),
(628,681,o),
(513,710,c),
(338,750,o),
(199,857,o),
(248,1104,cs),
(293,1330,o),
(517,1516,o),
(783,1516,cs),
(943,1516,o),
(1068,1481,o),
(1180,1421,c),
(1140,1219,l),
(1131,1219,l),
(1059,1300,o),
(921,1378,o),
(767,1378,cs),
(567,1378,o),
(425,1265,o),
(395,1117,cs),
(343,855,o),
(547,864,o),
(821,778,c),
(1011,717,o),
(1069,586,o),
(1034,410,cs),
(996,218,o),
(836,62,o),
(667,1,cs),
(615,-17,o),
(549,-27,o),
(473,-27,cs)
);
},
{
closed = 1;
nodes = (
(200,-423,l),
(394,-157,l),
(607,-157,l),
(308,-423,l)
);
}
);
width = 1057;
},
{
layerId = "6CF7F53B-663E-4569-94B0-B9FCEE5B09F0";
shapes = (
{
closed = 1;
nodes = (
(333,-27,o),
(170,19,o),
(28,88,c),
(106,477,l),
(145,477,l),
(272,352,o),
(448,279,o),
(620,279,cs),
(737,279,o),
(860,309,o),
(879,405,cs),
(892,471,o),
(823,501,o),
(768,518,c),
(667,548,o),
(540,567,o),
(449,605,c),
(243,694,o),
(183,823,o),
(225,1034,cs),
(283,1324,o),
(606,1516,o),
(966,1516,cs),
(1139,1516,o),
(1332,1476,o),
(1455,1415,c),
(1380,1040,l),
(1341,1040,l),
(1250,1135,o),
(1093,1212,o),
(926,1212,cs),
(858,1212,o),
(691,1204,o),
(668,1087,cs),
(645,974,o),
(746,1020,o),
(1104,887,c),
(1288,808,o),
(1370,697,o),
(1326,479,cs),
(1288,288,o),
(1164,127,o),
(919,35,c),
(808,-6,o),
(688,-27,o),
(552,-27,cs)
);
},
{
closed = 1;
nodes = (
(253,-423,l),
(417,-141,l),
(754,-141,l),
(500,-423,l)
);
}
);
width = 1314;
},
{
layerId = "C5AA7147-E6CF-43E6-A817-BB6994C58056";
shapes = (
{
closed = 1;
nodes = (
(318,-27,o),
(165,20,o),
(29,88,c),
(100,442,l),
(133,442,l),
(253,318,o),
(426,245,o),
(593,245,cs),
(733,245,o),
(859,292,o),
(881,402,cs),
(897,481,o),
(834,522,o),
(763,544,cs),
(665,573,o),
(558,590,o),
(462,626,cs),
(262,705,o),
(186,830,o),
(230,1048,cs),
(285,1325,o),
(589,1516,o),
(930,1516,cs),
(1101,1516,o),
(1279,1477,o),
(1400,1416,c),
(1332,1076,l),
(1300,1076,l),
(1213,1168,o),
(1058,1245,o),
(894,1245,cs),
(800,1245,o),
(638,1216,o),
(613,1093,cs),
(584,950,o),
(707,989,o),
(1048,865,c),
(1233,790,o),
(1310,675,o),
(1268,465,cs),
(1230,274,o),
(1099,114,o),
(869,28,cs),
(770,-8,o),
(660,-27,o),
(536,-27,cs)
);
},
{
closed = 1;
nodes = (
(242,-423,l),
(413,-144,l),
(725,-144,l),
(462,-423,l)
);
}
);
width = 1263;
}
);
unicode = 536;
},
{
glyphname = Sigma;
layers = (
{
layerId = "F13BA0ED-FC1D-44B0-ADA4-543E9A2824CE";
shapes = (
{
closed = 1;
nodes = (
(1035,0,l),
(4,0,l),
(41,184,l),
(696,787,l),
(286,1310,l),
(321,1489,l),
(1288,1489,l),
(1252,1313,l),
(527,1313,l),
(928,810,l),
(923,784,l),
(259,176,l),
(1070,176,l)
);
}
);
width = 1110;
},
{
layerId = "1D873A00-654D-4240-B6DF-C2B832D3BA68";
shapes = (
{
closed = 1;
nodes = (
(1004,0,l),
(4,0,l),
(34,151,l),
(721,788,l),
(292,1343,l),
(321,1489,l),
(1252,1489,l),
(1224,1349,l),
(465,1349,l),
(894,809,l),
(892,798,l),
(175,140,l),
(1032,140,l)
);
}
);
width = 1073;
},
{
layerId = "6CF7F53B-663E-4569-94B0-B9FCEE5B09F0";
shapes = (
{
closed = 1;
nodes = (
(1161,0,l),
(5,0,l),
(68,317,l),
(593,784,l),
(258,1177,l),
(320,1489,l),
(1428,1489,l),
(1364,1169,l),
(776,1169,l),
(1067,814,l),
(1050,728,l),
(593,320,l),
(1225,320,l)
);
}
);
width = 1256;
},
{
layerId = "C5AA7147-E6CF-43E6-A817-BB6994C58056";
shapes = (
{
closed = 1;
nodes = (
(1130,0,l),
(5,0,l),
(62,284,l),
(619,785,l),
(264,1210,l),
(320,1489,l),
(1392,1489,l),
(1336,1205,l),
(713,1205,l),
(1033,813,l),
(1019,742,l),
(510,284,l),
(1187,284,l)
);
}
);
width = 1219;
}
);
unicode = 931;
},
{
glyphname = T;
layers = (
{
layerId = "F13BA0ED-FC1D-44B0-ADA4-543E9A2824CE";
shapes = (
{
closed = 1;
nodes = (
(434,0,l),
(696,1313,l),
(206,1313,l),
(242,1489,l),
(1416,1489,l),
(1380,1313,l),
(890,1313,l),
(628,0,l)
);
}
);
width = 1172;
},
{
layerId = "1D873A00-654D-4240-B6DF-C2B832D3BA68";
shapes = (
{
closed = 1;
nodes = (
(454,0,l),
(723,1349,l),
(214,1349,l),
(242,1489,l),
(1397,1489,l),
(1369,1349,l),
(859,1349,l),
(590,0,l)
);
}
);
width = 1153;
},
{
layerId = "6CF7F53B-663E-4569-94B0-B9FCEE5B09F0";
shapes = (
{
closed = 1;
nodes = (
(357,0,l),
(590,1169,l),
(179,1169,l),
(243,1489,l),
(1490,1489,l),
(1426,1169,l),
(1015,1169,l),
(781,0,l)
);
}
);
width = 1247;
},
{
layerId = "C5AA7147-E6CF-43E6-A817-BB6994C58056";
shapes = (
{
closed = 1;
nodes = (
(376,0,l),
(617,1205,l),
(186,1205,l),
(243,1489,l),
(1471,1489,l),
(1415,1205,l),
(984,1205,l),
(743,0,l)
);
}
);
width = 1228;
}
);
unicode = 84;
},
{
glyphname = Tbar;
layers = (
{
layerId = "F13BA0ED-FC1D-44B0-ADA4-543E9A2824CE";
shapes = (
{
closed = 1;
nodes = (
(1380,1313,l),
(890,1313,l),
(805,883,l),
(1115,883,l),
(1087,740,l),
(776,740,l),
(628,0,l),
(434,0,l),
(582,740,l),
(271,740,l),
(300,883,l),
(611,883,l),
(696,1313,l),
(206,1313,l),
(242,1489,l),
(1416,1489,l)
);
}
);
width = 1172;
},
{
layerId = "1D873A00-654D-4240-B6DF-C2B832D3BA68";
shapes = (
{
closed = 1;
nodes = (
(1369,1349,l),
(859,1349,l),
(770,899,l),
(1100,899,l),
(1077,785,l),
(747,785,l),
(590,0,l),
(454,0,l),
(611,785,l),
(279,785,l),
(302,899,l),
(633,899,l),
(723,1349,l),
(214,1349,l),
(242,1489,l),
(1397,1489,l)
);
}
);
width = 1153;
},
{
layerId = "6CF7F53B-663E-4569-94B0-B9FCEE5B09F0";
shapes = (
{
closed = 1;
nodes = (
(1426,1169,l),
(1015,1169,l),
(944,818,l),
(1176,818,l),
(1124,560,l),
(893,560,l),
(781,0,l),
(357,0,l),
(468,560,l),
(238,560,l),
(290,818,l),
(520,818,l),
(590,1169,l),
(179,1169,l),
(243,1489,l),
(1490,1489,l)
);
}
);
width = 1247;
},
{
layerId = "C5AA7147-E6CF-43E6-A817-BB6994C58056";
shapes = (
{
closed = 1;
nodes = (
(1415,1205,l),
(984,1205,l),
(909,834,l),
(1160,834,l),
(1114,605,l),
(864,605,l),
(743,0,l),
(376,0,l),
(497,605,l),
(246,605,l),
(292,834,l),
(543,834,l),
(617,1205,l),
(186,1205,l),
(243,1489,l),
(1471,1489,l)
);
}
);
width = 1228;
}
);
unicode = 358;
},
{
glyphname = Tcedilla;
layers = (
{
layerId = "F13BA0ED-FC1D-44B0-ADA4-543E9A2824CE";
shapes = (
{
closed = 1;
nodes = (
(434,0,l),
(696,1313,l),
(206,1313,l),
(242,1489,l),
(1416,1489,l),
(1380,1313,l),
(890,1313,l),
(632,20,l),
(755,20,l),
(753,8,o),
(751,-7,o),
(749,-25,cs),
(747,-43,o),
(744,-65,o),
(739,-89,cs),
(696,-305,o),
(543,-423,o),
(371,-423,cs),
(323,-423,o),
(246,-414,o),
(202,-399,c),
(234,-239,l),
(243,-239,l),
(270,-252,o),
(325,-273,o),
(376,-273,cs),
(496,-273,o),
(557,-225,o),
(581,-107,cs),
(587,-78,o),
(593,-46,o),
(600,0,c)
);
}
);
width = 1172;
},
{
layerId = "1D873A00-654D-4240-B6DF-C2B832D3BA68";
shapes = (
{
closed = 1;
nodes = (
(454,0,l),
(723,1349,l),
(214,1349,l),
(242,1489,l),
(1397,1489,l),
(1369,1349,l),
(859,1349,l),
(594,20,l),
(728,20,l),
(726,12,o),
(726,8,o),
(725,-5,c),
(725,-20,o),
(723,-41,o),
(719,-65,cs),
(683,-296,o),
(529,-423,o),
(357,-423,cs),
(306,-423,o),
(244,-415,o),
(198,-399,c),
(227,-252,l),
(232,-252,l),
(259,-265,o),
(310,-286,o),
(361,-286,cs),
(489,-286,o),
(548,-240,o),
(572,-118,cs),
(579,-82,o),
(585,-52,o),
(592,0,c)
);
}
);
width = 1153;
},
{
layerId = "6CF7F53B-663E-4569-94B0-B9FCEE5B09F0";
shapes = (
{
closed = 1;
nodes = (
(357,0,l),
(590,1169,l),
(179,1169,l),
(243,1489,l),
(1490,1489,l),
(1426,1169,l),
(1015,1169,l),
(785,20,l),
(860,20,l),
(855,-8,o),
(849,-68,o),
(841,-106,c),
(834,-136,o),
(826,-162,o),
(816,-186,c),
(748,-340,o),
(598,-423,o),
(426,-423,cs),
(389,-423,o),
(258,-410,o),
(223,-399,c),
(266,-186,l),
(288,-186,l),
(316,-200,o),
(383,-221,o),
(433,-221,cs),
(517,-221,o),
(597,-166,o),
(618,-63,c),
(618,-61,o),
(625,-21,o),
(630,0,c)
);
}
);
width = 1247;
},
{
layerId = "C5AA7147-E6CF-43E6-A817-BB6994C58056";
shapes = (
{
closed = 1;
nodes = (
(376,0,l),
(617,1205,l),
(186,1205,l),
(243,1489,l),
(1471,1489,l),
(1415,1205,l),
(984,1205,l),
(747,20,l),
(834,20,l),
(830,-4,o),
(825,-53,o),
(818,-86,cs),
(813,-113,o),
(806,-138,o),
(797,-162,cs),
(736,-331,o),
(584,-423,o),
(412,-423,cs),
(372,-423,o),
(255,-411,o),
(218,-399,c),
(258,-199,l),
(277,-199,l),
(305,-213,o),
(369,-234,o),
(419,-234,cs),
(512,-234,o),
(588,-181,o),
(609,-74,cs),
(611,-65,o),
(617,-27,o),
(622,0,c)
);
}
);
width = 1228;
}
);
unicode = 354;
},
{
glyphname = Theta;
layers = (
{
layerId = "F13BA0ED-FC1D-44B0-ADA4-543E9A2824CE";
shapes = (
{
closed = 1;
nodes = (
(1468,1185,o),
(1493,991,o),
(1444,744,cs),
(1344,242,o),
(1026,-31,o),
(644,-31,cs),
(253,-31,o),
(54,244,o),
(154,744,cs),
(250,1223,o),
(546,1520,o),
(954,1520,cs),
(1150,1520,o),
(1300,1446,o),
(1384,1318,c)
);
},
{
closed = 1;
nodes = (
(1323,1146,o),
(1185,1349,o),
(920,1349,cs),
(654,1349,o),
(438,1152,o),
(356,744,cs),
(278,353,o),
(409,140,o),
(679,140,cs),
(943,140,o),
(1163,344,o),
(1243,744,cs)
);
},
{
closed = 1;
nodes = (
(1080,713,l),
(505,713,l),
(541,892,l),
(1116,892,l)
);
}
);
width = 1410;
},
{
layerId = "1D873A00-654D-4240-B6DF-C2B832D3BA68";
shapes = (
{
closed = 1;
nodes = (
(1426,1188,o),
(1453,993,o),
(1403,744,cs),
(1299,222,o),
(975,-31,o),
(623,-31,cs),
(238,-31,o),
(55,248,o),
(154,744,cs),
(252,1234,o),
(546,1520,o),
(933,1520,cs),
(1121,1520,o),
(1269,1444,o),
(1347,1320,c)
);
},
{
closed = 1;
nodes = (
(1343,1170,o),
(1195,1386,o),
(907,1386,cs),
(611,1386,o),
(383,1169,o),
(298,744,cs),
(216,334,o),
(354,103,o),
(651,103,cs),
(937,103,o),
(1173,318,o),
(1258,744,cs)
);
},
{
closed = 1;
nodes = (
(1092,746,l),
(465,746,l),
(492,884,l),
(1120,884,l)
);
}
);
width = 1368;
},
{
layerId = "6CF7F53B-663E-4569-94B0-B9FCEE5B09F0";
shapes = (
{
closed = 1;
nodes = (
(1635,1172,o),
(1658,983,o),
(1610,744,cs),
(1526,323,o),
(1230,-31,o),
(727,-31,cs),
(312,-31,o),
(52,227,o),
(155,744,cs),
(242,1179,o),
(545,1520,o),
(1037,1520,cs),
(1263,1520,o),
(1424,1454,o),
(1530,1310,c)
);
},
{
closed = 1;
nodes = (
(1240,1051,o),
(1144,1202,o),
(974,1202,cs),
(829,1202,o),
(655,1085,o),
(587,744,cs),
(524,428,o),
(631,287,o),
(791,287,cs),
(963,287,o),
(1120,449,o),
(1179,745,cs)
);
},
{
closed = 1;
nodes = (
(1033,580,l),
(667,580,l),
(736,925,l),
(1102,925,l)
);
}
);
width = 1578;
},
{
layerId = "C5AA7147-E6CF-43E6-A817-BB6994C58056";
shapes = (
{
closed = 1;
nodes = (
(1593,1175,o),
(1617,985,o),
(1569,744,cs),
(1481,303,o),
(1178,-31,o),
(706,-31,cs),
(297,-31,o),
(52,231,o),
(155,744,cs),
(244,1190,o),
(545,1520,o),
(1016,1520,cs),
(1235,1520,o),
(1393,1452,o),
(1493,1312,c)
);
},
{
closed = 1;
nodes = (
(1261,1075,o),
(1154,1239,o),
(961,1239,cs),
(786,1239,o),
(601,1102,o),
(529,744,cs),
(462,409,o),
(576,250,o),
(763,250,cs),
(958,250,o),
(1131,423,o),
(1195,745,cs)
);
},
{
closed = 1;
nodes = (
(1045,613,l),
(626,613,l),
(687,917,l),
(1106,917,l)
);
}
);
width = 1536;
}
);
unicode = 920;
},
{
glyphname = Thorn;
layers = (
{
layerId = "F13BA0ED-FC1D-44B0-ADA4-543E9A2824CE";
shapes = (
{
closed = 1;
nodes = (
(1123,575,o),
(960,419,o),
(767,358,cs),
(691,334,o),
(603,322,o),
(505,322,cs),
(341,322,l),
(276,0,l),
(82,0,l),
(380,1489,l),
(574,1489,l),
(520,1219,l),
(692,1219,ls),
(1057,1219,o),
(1222,1070,o),
(1165,787,cs)
);
},
{
closed = 1;
nodes = (
(998,961,o),
(899,1051,o),
(649,1051,cs),
(622,1051,o),
(595,1051,o),
(568,1051,cs),
(486,1051,l),
(374,488,l),
(508,488,ls),
(769,488,o),
(921,577,o),
(962,782,cs)
);
}
);
width = 1119;
},
{
layerId = "1D873A00-654D-4240-B6DF-C2B832D3BA68";
shapes = (
{
closed = 1;
nodes = (
(1058,583,o),
(898,432,o),
(707,376,cs),
(631,353,o),
(543,342,o),
(442,342,cs),
(286,342,l),
(218,0,l),
(81,0,l),
(379,1489,l),
(515,1489,l),
(458,1204,l),
(643,1204,ls),
(1016,1204,o),
(1147,1030,o),
(1098,785,cs)
);
},
{
closed = 1;
nodes = (
(988,958,o),
(915,1074,o),
(608,1073,cs),
(579,1073,o),
(551,1073,o),
(523,1073,cs),
(432,1073,l),
(312,471,l),
(461,471,l),
(751,469,o),
(912,577,o),
(953,781,cs)
);
}
);
width = 1056;
},
{
layerId = "6CF7F53B-663E-4569-94B0-B9FCEE5B09F0";
shapes = (
{
closed = 1;
nodes = (
(1383,542,o),
(1214,367,o),
(1008,287,cs),
(929,257,o),
(847,242,o),
(760,242,cs),
(559,242,l),
(510,0,l),
(86,0,l),
(384,1489,l),
(808,1489,l),
(766,1279,l),
(886,1279,ls),
(1215,1279,o),
(1521,1230,o),
(1434,796,cs)
);
},
{
closed = 1;
nodes = (
(1035,973,o),
(839,958,o),
(815,963,c),
(796,964,o),
(770,964,o),
(745,964,cs),
(703,964,l),
(622,557,l),
(699,557,l),
(842,563,o),
(956,578,o),
(998,786,cs)
);
}
);
width = 1371;
},
{
layerId = "C5AA7147-E6CF-43E6-A817-BB6994C58056";
shapes = (
{
closed = 1;
nodes = (
(1318,550,o),
(1151,380,o),
(948,305,cs),
(870,276,o),
(786,262,o),
(696,262,cs),
(504,262,l),
(452,0,l),
(85,0,l),
(383,1489,l),
(749,1489,l),
(704,1264,l),
(838,1264,ls),
(1176,1264,o),
(1446,1190,o),
(1367,794,cs)
);
},
{
closed = 1;
nodes = (
(1026,970,o),
(854,981,o),
(773,985,cs),
(752,986,o),
(727,986,o),
(701,986,cs),
(649,986,l),
(560,540,l),
(652,540,l),
(824,544,o),
(948,578,o),
(989,785,cs)
);
}
);
width = 1308;
}
);
unicode = 222;
},
{
glyphname = U;
layers = (
{
layerId = "F13BA0ED-FC1D-44B0-ADA4-543E9A2824CE";
shapes = (
{
closed = 1;
nodes = (
(319,-31,o),
(174,90,o),
(156,292,cs),
(149,364,o),
(157,454,o),
(178,560,cs),
(364,1489,l),
(558,1489,l),
(372,560,ls),
(320,298,o),
(354,138,o),
(621,138,cs),
(861,138,o),
(983,280,o),
(1038,555,cs),
(1225,1489,l),
(1419,1489,l),
(1233,560,ls),
(1159,190,o),
(975,-31,o),
(587,-31,cs)
);
}
);
width = 1297;
},
{
layerId = "1D873A00-654D-4240-B6DF-C2B832D3BA68";
shapes = (
{
closed = 1;
nodes = (
(299,-31,o),
(165,94,o),
(153,292,c),
(148,364,o),
(157,457,o),
(179,567,cs),
(364,1489,l),
(500,1489,l),
(304,508,ls),
(251,243,o),
(316,100,o),
(586,100,cs),
(832,100,o),
(979,245,o),
(1030,502,cs),
(1227,1489,l),
(1363,1489,l),
(1174,541,ls),
(1100,169,o),
(906,-31,o),
(560,-31,cs)
);
}
);
width = 1241;
},
{
layerId = "6CF7F53B-663E-4569-94B0-B9FCEE5B09F0";
shapes = (
{
closed = 1;
nodes = (
(401,-31,o),
(210,73,o),
(167,292,cs),
(153,363,o),
(154,442,o),
(172,531,cs),
(364,1489,l),
(788,1489,l),
(644,767,ls),
(594,517,o),
(510,291,o),
(762,291,cs),
(977,291,o),
(1004,421,o),
(1073,768,cs),
(1217,1489,l),
(1641,1489,l),
(1471,637,ls),
(1399,275,o),
(1254,-31,o),
(698,-31,cs)
);
}
);
width = 1519;
},
{
layerId = "C5AA7147-E6CF-43E6-A817-BB6994C58056";
shapes = (
{
closed = 1;
nodes = (
(380,-31,o),
(202,77,o),
(165,292,cs),
(153,363,o),
(155,445,o),
(174,538,cs),
(364,1489,l),
(730,1489,l),
(575,715,ls),
(524,462,o),
(471,253,o),
(727,253,cs),
(947,253,o),
(998,386,o),
(1064,715,cs),
(1219,1489,l),
(1586,1489,l),
(1412,618,ls),
(1339,254,o),
(1184,-31,o),
(670,-31,cs)
);
}
);
width = 1464;
}
);
unicode = 85;
},
{
glyphname = Uhorn;
layers = (
{
layerId = "F13BA0ED-FC1D-44B0-ADA4-543E9A2824CE";
shapes = (
{
closed = 1;
nodes = (
(319,-31,o),
(174,90,o),
(156,292,cs),
(149,364,o),
(157,454,o),
(178,560,cs),
(364,1489,l),
(558,1489,l),
(372,560,ls),
(320,298,o),
(354,138,o),
(621,138,cs),
(861,138,o),
(983,280,o),
(1038,555,cs),
(1225,1489,l),
(1437,1489,ls),
(1555,1489,o),
(1606,1529,o),
(1625,1625,cs),
(1634,1670,o),
(1629,1746,o),
(1621,1775,c),
(1623,1784,l),
(1780,1784,l),
(1783,1717,o),
(1784,1685,o),
(1770,1617,cs),
(1735,1440,o),
(1598,1354,o),
(1392,1354,c),
(1233,560,ls),
(1159,190,o),
(975,-31,o),
(587,-31,cs)
);
}
);
width = 1439;
},
{
layerId = "1D873A00-654D-4240-B6DF-C2B832D3BA68";
shapes = (
{
closed = 1;
nodes = (
(293,-31,o),
(154,99,o),
(148,309,cs),
(147,378,o),
(159,465,o),
(179,567,cs),
(364,1489,l),
(500,1489,l),
(314,560,ls),
(257,276,o),
(291,100,o),
(586,100,cs),
(852,100,o),
(981,259,o),
(1040,553,cs),
(1227,1489,l),
(1407,1489,ls),
(1516,1489,o),
(1561,1536,o),
(1578,1620,cs),
(1587,1663,o),
(1584,1744,o),
(1576,1772,c),
(1577,1778,l),
(1721,1778,l),
(1723,1702,o),
(1728,1696,o),
(1713,1620,cs),
(1679,1452,o),
(1543,1371,o),
(1340,1371,c),
(1175,546,ls),
(1100,173,o),
(912,-31,o),
(560,-31,cs)
);
}
);
width = 1392;
},
{
layerId = "6CF7F53B-663E-4569-94B0-B9FCEE5B09F0";
shapes = (
{
closed = 1;
nodes = (
(426,-31,o),
(253,53,o),
(184,224,c),
(153,308,o),
(148,411,o),
(172,531,cs),
(364,1489,l),
(788,1489,l),
(602,560,ls),
(567,387,o),
(608,291,o),
(762,291,cs),
(900,291,o),
(992,363,o),
(1032,562,cs),
(1217,1489,l),
(1554,1489,ls),
(1708,1489,o),
(1781,1502,o),
(1810,1646,cs),
(1821,1699,o),
(1812,1753,o),
(1804,1786,c),
(1808,1808,l),
(2017,1808,l),
(2022,1777,o),
(2007,1640,o),
(2000,1606,cs),
(1957,1392,o),
(1818,1286,o),
(1601,1287,c),
(1467,617,ls),
(1395,259,o),
(1231,-31,o),
(698,-31,cs)
);
}
);
width = 1625;
},
{
layerId = "C5AA7147-E6CF-43E6-A817-BB6994C58056";
shapes = (
{
closed = 1;
nodes = (
(399,-31,o),
(233,62,o),
(177,241,cs),
(152,322,o),
(151,422,o),
(174,538,cs),
(364,1489,l),
(730,1489,l),
(544,560,ls),
(505,365,o),
(545,253,o),
(727,253,cs),
(891,253,o),
(989,342,o),
(1033,560,cs),
(1219,1489,l),
(1525,1489,ls),
(1670,1489,o),
(1738,1509,o),
(1764,1641,cs),
(1774,1692,o),
(1766,1751,o),
(1758,1783,c),
(1762,1802,l),
(1958,1802,l),
(1962,1762,o),
(1951,1651,o),
(1943,1609,cs),
(1902,1404,o),
(1763,1303,o),
(1549,1304,c),
(1409,603,ls),
(1337,242,o),
(1167,-31,o),
(670,-31,cs)
);
}
);
width = 1578;
}
);
unicode = 431;
},
{
glyphname = Uogonek;
layers = (
{
layerId = "F13BA0ED-FC1D-44B0-ADA4-543E9A2824CE";
shapes = (
{
closed = 1;
nodes = (
(320,-30,o),
(174,88,o),
(156,292,cs),
(149,364,o),
(157,454,o),
(178,560,cs),
(364,1489,l),
(558,1489,l),
(372,560,ls),
(320,298,o),
(354,138,o),
(621,138,cs),
(861,138,o),
(983,280,o),
(1038,555,cs),
(1225,1489,l),
(1419,1489,l),
(1233,560,ls),
(1182,304,o),
(1093,142,o),
(906,40,cs),
(873,22,o),
(836,7,o),
(796,-3,c),
(783,-28,o),
(769,-69,o),
(761,-107,cs),
(740,-213,o),
(762,-268,o),
(880,-268,cs),
(917.585,-268,o),
(966.838,-253.791,o),
(1000,-238,c),
(1009,-238,l),
(978,-396,l),
(928.249,-407.783,o),
(877.25,-417,o),
(826,-417,cs),
(653,-417,o),
(564,-311,o),
(607,-94,c),
(609.282,-78.026,o),
(623.635,-43.547,o),
(630,-29,c),
(617,-29,o),
(601,-30,o),
(587,-30,c)
);
}
);
width = 1297;
},
{
layerId = "1D873A00-654D-4240-B6DF-C2B832D3BA68";
shapes = (
{
closed = 1;
nodes = (
(296.333,-30.333,o),
(159.667,93.667,o),
(151.333,299.667,c),
(147.667,370.333,o),
(158.333,460.333,o),
(179.333,567.333,cs),
(364,1489,l),
(500.667,1489,l),
(307.667,525.667,ls),
(254.333,256,o),
(307.333,99.667,o),
(585.667,99.667,cs),
(851.667,99.667,o),
(981,260,o),
(1039.667,553.333,cs),
(1227,1489,l),
(1363.333,1489,l),
(1178.667,567,ls),
(1126.667,305,o),
(1047.667,144,o),
(858,37.333,cs),
(825,18.667,o),
(786.667,3,o),
(745.333,-6.667,c),
(730.667,-29,o),
(715,-71,o),
(705.667,-114.667,cs),
(684.029,-223.28,o),
(689.434,-281.667,o),
(818.333,-281.667,cs),
(853.113,-281.667,o),
(896.451,-267.722,o),
(926.333,-253,c),
(935.333,-253,l),
(907.333,-397,l),
(860.666,-407.044,o),
(826,-417,o),
(772.667,-417,cs),
(609.614,-417,o),
(528.548,-309.69,o),
(571.333,-92.333,c),
(573.043,-77.369,o),
(590.181,-40.063,o),
(597,-29,c),
(586.111,-29,o),
(571.222,-30.333,o),
(559,-30.333,cs)
);
}
);
width = 1241;
},
{
layerId = "6CF7F53B-663E-4569-94B0-B9FCEE5B09F0";
shapes = (
{
closed = 1;
nodes = (
(414.667,-28.667,o),
(231.333,65.333,o),
(174.667,261.333,c),
(154.333,338.667,o),
(151.667,428.667,o),
(172.667,530.667,cs),
(364,1489,l),
(787.333,1489,l),
(629.333,697.333,ls),
(582.667,466,o),
(540.667,291.333,o),
(762.333,291.333,cs),
(898.333,291.333,o),
(991,360,o),
(1031.333,561.667,cs),
(1217,1489,l),
(1641.667,1489,l),
(1450.333,532,ls),
(1403.333,300,o),
(1274.333,134,o),
(1098,50.667,cs),
(1065,35.333,o),
(1033.333,23,o),
(998.667,11.667,c),
(992.333,-24,o),
(985,-61,o),
(982.333,-76.333,cs),
(963.884,-171.881,o),
(1052.265,-213.333,o),
(1126.667,-213.333,cs),
(1175.472,-213.333,o),
(1248.387,-198.07,o),
(1294.667,-178,c),
(1303.667,-178,l),
(1260.667,-392,l),
(1198.584,-410.739,o),
(1082.25,-417,o),
(1039.333,-417,cs),
(826.545,-417,o),
(705.806,-316.24,o),
(749.667,-100.667,cs),
(754.239,-80.658,o),
(757.455,-57.484,o),
(762,-29,c),
(740.556,-29,o),
(720.111,-28.667,o),
(699,-28.667,cs)
);
}
);
width = 1520;
},
{
layerId = "C5AA7147-E6CF-43E6-A817-BB6994C58056";
shapes = (
{
closed = 1;
nodes = (
(391,-29,o),
(217,71,o),
(170,269,cs),
(153,345,o),
(153,435,o),
(174,538,cs),
(364,1489,l),
(730,1489,l),
(565,663,ls),
(517,424,o),
(494,253,o),
(727,253,cs),
(889,253,o),
(989,340,o),
(1033,560,cs),
(1219,1489,l),
(1586,1489,l),
(1396,539,ls),
(1348,301,o),
(1229,136,o),
(1050,48,cs),
(1017,32,o),
(984,19,o),
(948,8,c),
(940,-25,o),
(931,-63,o),
(927,-84,cs),
(907.913,-182.161,o),
(979.699,-227,o),
(1065,-227,cs),
(1111,-227,o),
(1178,-212,o),
(1221,-193,c),
(1230,-193,l),
(1190,-393,l),
(1131,-410,o),
(1031,-417,o),
(986,-417,cs),
(783.159,-417,o),
(670.355,-314.93,o),
(714,-99,c),
(718,-80,o),
(724,-54,o),
(729,-29,c),
(709.667,-29,o),
(690.333,-29,o),
(671,-29,cs)
);
}
);
width = 1464;
}
);
unicode = 370;
},
{
glyphname = V;
layers = (
{
layerId = "F13BA0ED-FC1D-44B0-ADA4-543E9A2824CE";
shapes = (
{
closed = 1;
nodes = (
(1448,1489,l),
(649,0,l),
(439,0,l),
(235,1489,l),
(443,1489,l),
(600,253,l),
(1251,1489,l)
);
}
);
width = 1198;
},
{
layerId = "1D873A00-654D-4240-B6DF-C2B832D3BA68";
shapes = (
{
closed = 1;
nodes = (
(1393,1489,l),
(594,0,l),
(442,0,l),
(238,1489,l),
(388,1489,l),
(558,177,l),
(1253,1489,l)
);
}
);
width = 1146;
},
{
layerId = "6CF7F53B-663E-4569-94B0-B9FCEE5B09F0";
shapes = (
{
closed = 1;
nodes = (
(1669,1489,l),
(869,0,l),
(429,0,l),
(225,1489,l),
(663,1489,l),
(766,556,l),
(1241,1489,l)
);
}
);
width = 1408;
},
{
layerId = "C5AA7147-E6CF-43E6-A817-BB6994C58056";
shapes = (
{
closed = 1;
nodes = (
(1614,1489,l),
(814,0,l),
(432,0,l),
(228,1489,l),
(608,1489,l),
(724,480,l),
(1243,1489,l)
);
}
);
width = 1356;
}
);
unicode = 86;
},
{
glyphname = W;
layers = (
{
layerId = "F13BA0ED-FC1D-44B0-ADA4-543E9A2824CE";
shapes = (
{
closed = 1;
nodes = (
(2025,1489,l),
(1361,0,l),
(1143,0,l),
(1093,1236,l),
(556,0,l),
(342,0,l),
(266,1489,l),
(465,1489,l),
(512,251,l),
(1051,1489,l),
(1248,1489,l),
(1293,239,l),
(1835,1489,l)
);
}
);
width = 1806;
},
{
layerId = "1D873A00-654D-4240-B6DF-C2B832D3BA68";
shapes = (
{
closed = 1;
nodes = (
(1942,1489,l),
(1279,0,l),
(1122,0,l),
(1072,1341,l),
(493,0,l),
(342,0,l),
(265,1489,l),
(403,1489,l),
(465,171,l),
(1037,1489,l),
(1178,1489,l),
(1227,155,l),
(1813,1489,l)
);
}
);
width = 1722;
},
{
layerId = "6CF7F53B-663E-4569-94B0-B9FCEE5B09F0";
shapes = (
{
closed = 1;
nodes = (
(2357,1489,l),
(1689,0,l),
(1226,0,l),
(1176,816,l),
(806,0,l),
(342,0,l),
(271,1489,l),
(712,1489,l),
(698,570,l),
(1111,1489,l),
(1530,1489,l),
(1559,574,l),
(1926,1489,l)
);
}
);
width = 2142;
},
{
layerId = "C5AA7147-E6CF-43E6-A817-BB6994C58056";
shapes = (
{
closed = 1;
nodes = (
(2274,1489,l),
(1607,0,l),
(1205,0,l),
(1155,921,l),
(744,0,l),
(342,0,l),
(270,1489,l),
(650,1489,l),
(651,490,l),
(1096,1489,l),
(1460,1489,l),
(1492,490,l),
(1903,1489,l)
);
}
);
width = 2058;
}
);
unicode = 87;
},
{
glyphname = X;
layers = (
{
layerId = "F13BA0ED-FC1D-44B0-ADA4-543E9A2824CE";
shapes = (
{
closed = 1;
nodes = (
(1102,0,l),
(879,0,l),
(643,596,l),
(162,0,l),
(-48,0,l),
(565,745,l),
(264,1489,l),
(485,1489,l),
(717,904,l),
(1188,1489,l),
(1398,1489,l),
(795,755,l)
);
}
);
width = 1164;
},
{
layerId = "1D873A00-654D-4240-B6DF-C2B832D3BA68";
shapes = (
{
closed = 1;
nodes = (
(1025,0,l),
(870,0,l),
(617,636,l),
(103,0,l),
(-41,0,l),
(567,743,l),
(268,1489,l),
(422,1489,l),
(673,859,l),
(1181,1489,l),
(1326,1489,l),
(723,752,l)
);
}
);
width = 1093;
},
{
layerId = "6CF7F53B-663E-4569-94B0-B9FCEE5B09F0";
shapes = (
{
closed = 1;
nodes = (
(1408,0,l),
(916,0,l),
(747,435,l),
(399,0,l),
(-72,0,l),
(555,752,l),
(246,1489,l),
(738,1489,l),
(891,1085,l),
(1213,1489,l),
(1685,1489,l),
(1083,768,l)
);
}
);
width = 1446;
},
{
layerId = "C5AA7147-E6CF-43E6-A817-BB6994C58056";
shapes = (
{
closed = 1;
nodes = (
(1332,0,l),
(906,0,l),
(721,475,l),
(340,0,l),
(-66,0,l),
(557,750,l),
(250,1489,l),
(675,1489,l),
(847,1040,l),
(1207,1489,l),
(1613,1489,l),
(1011,765,l)
);
}
);
width = 1375;
}
);
unicode = 88;
},
{
glyphname = Xi;
layers = (
{
layerId = "F13BA0ED-FC1D-44B0-ADA4-543E9A2824CE";
shapes = (
{
closed = 1;
nodes = (
(1274,1313,l),
(268,1313,l),
(304,1489,l),
(1309,1489,l)
);
},
{
closed = 1;
nodes = (
(1108,728,l),
(200,728,l),
(236,905,l),
(1143,905,l)
);
},
{
closed = 1;
nodes = (
(1011,0,l),
(6,0,l),
(41,176,l),
(1047,176,l)
);
}
);
width = 1127;
},
{
layerId = "1D873A00-654D-4240-B6DF-C2B832D3BA68";
shapes = (
{
closed = 1;
nodes = (
(1249,1356,l),
(268,1356,l),
(294,1489,l),
(1275,1489,l)
);
},
{
closed = 1;
nodes = (
(1082,764,l),
(199,764,l),
(226,899,l),
(1108,899,l)
);
},
{
closed = 1;
nodes = (
(978,0,l),
(-3,0,l),
(23,133,l),
(1004,133,l)
);
}
);
width = 1084;
},
{
layerId = "6CF7F53B-663E-4569-94B0-B9FCEE5B09F0";
shapes = (
{
closed = 1;
nodes = (
(1374,1142,l),
(270,1142,l),
(339,1489,l),
(1443,1489,l)
);
},
{
closed = 1;
nodes = (
(1214,584,l),
(207,584,l),
(276,930,l),
(1283,930,l)
);
},
{
closed = 1;
nodes = (
(1146,0,l),
(41,0,l),
(111,347,l),
(1215,347,l)
);
}
);
width = 1297;
},
{
layerId = "C5AA7147-E6CF-43E6-A817-BB6994C58056";
shapes = (
{
closed = 1;
nodes = (
(1349,1185,l),
(269,1185,l),
(330,1489,l),
(1410,1489,l)
);
},
{
closed = 1;
nodes = (
(1187,620,l),
(205,620,l),
(266,924,l),
(1248,924,l)
);
},
{
closed = 1;
nodes = (
(1112,0,l),
(32,0,l),
(93,304,l),
(1173,304,l)
);
}
);
width = 1254;
}
);
unicode = 926;
},
{
glyphname = Y;
layers = (
{
layerId = "F13BA0ED-FC1D-44B0-ADA4-543E9A2824CE";
shapes = (
{
closed = 1;
nodes = (
(1412,1489,l),
(754,659,l),
(622,0,l),
(428,0,l),
(555,638,l),
(233,1489,l),
(448,1489,l),
(693,832,l),
(1207,1489,l)
);
}
);
width = 1158;
},
{
layerId = "1D873A00-654D-4240-B6DF-C2B832D3BA68";
shapes = (
{
closed = 1;
nodes = (
(1348,1489,l),
(694,671,l),
(560,0,l),
(424,0,l),
(554,650,l),
(235,1489,l),
(383,1489,l),
(650,790,l),
(1207,1489,l)
);
}
);
width = 1095;
},
{
layerId = "6CF7F53B-663E-4569-94B0-B9FCEE5B09F0";
shapes = (
{
closed = 1;
nodes = (
(1673,1489,l),
(991,610,l),
(869,0,l),
(444,0,l),
(562,591,l),
(223,1489,l),
(708,1489,l),
(865,999,l),
(1203,1489,l)
);
}
);
width = 1411;
},
{
layerId = "C5AA7147-E6CF-43E6-A817-BB6994C58056";
shapes = (
{
closed = 1;
nodes = (
(1608,1489,l),
(931,622,l),
(807,0,l),
(440,0,l),
(561,603,l),
(225,1489,l),
(643,1489,l),
(823,957,l),
(1204,1489,l)
);
}
);
width = 1348;
}
);
unicode = 89;
},
{
glyphname = Z;
layers = (
{
layerId = "F13BA0ED-FC1D-44B0-ADA4-543E9A2824CE";
shapes = (
{
closed = 1;
nodes = (
(1019,0,l),
(0,0,l),
(36,184,l),
(1043,1313,l),
(297,1313,l),
(332,1489,l),
(1297,1489,l),
(1261,1310,l),
(244,176,l),
(1054,176,l)
);
}
);
width = 1114;
},
{
layerId = "1D873A00-654D-4240-B6DF-C2B832D3BA68";
shapes = (
{
closed = 1;
nodes = (
(975,0,l),
(1,0,l),
(32,152,l),
(1088,1349,l),
(306,1349,l),
(334,1489,l),
(1259,1489,l),
(1231,1345,l),
(160,140,l),
(1003,140,l)
);
}
);
width = 1072;
},
{
layerId = "6CF7F53B-663E-4569-94B0-B9FCEE5B09F0";
shapes = (
{
closed = 1;
nodes = (
(1196,0,l),
(-8,0,l),
(54,311,l),
(861,1169,l),
(261,1169,l),
(325,1489,l),
(1447,1489,l),
(1383,1170,l),
(584,320,l),
(1260,320,l)
);
}
);
width = 1285;
},
{
layerId = "C5AA7147-E6CF-43E6-A817-BB6994C58056";
shapes = (
{
closed = 1;
nodes = (
(1152,0,l),
(-6,0,l),
(50,279,l),
(906,1205,l),
(270,1205,l),
(327,1489,l),
(1410,1489,l),
(1353,1205,l),
(499,284,l),
(1208,284,l)
);
}
);
width = 1242;
}
);
unicode = 90;
},
{
glyphname = _745;
layers = (
{
layerId = "F13BA0ED-FC1D-44B0-ADA4-543E9A2824CE";
shapes = (
{
closed = 1;
nodes = (
(391.139,1881,l),
(256.288,1595,l),
(160.288,1595,l),
(26.139,1881,l),
(131.139,1881,l),
(208.904,1687,l),
(286.139,1881,l)
);
}
);
width = 417;
},
{
layerId = "1D873A00-654D-4240-B6DF-C2B832D3BA68";
shapes = (
{
closed = 1;
nodes = (
(394.139,1881,l),
(257.288,1595,l),
(161.288,1595,l),
(24.139,1881,l),
(128.139,1881,l),
(209.304,1685,l),
(289.139,1881,l)
);
}
);
width = 417;
},
{
layerId = "6CF7F53B-663E-4569-94B0-B9FCEE5B09F0";
shapes = (
{
closed = 1;
nodes = (
(377.139,1881,l),
(255.288,1595,l),
(159.288,1595,l),
(38.139,1881,l),
(143.139,1881,l),
(207.505,1694,l),
(272.139,1881,l)
);
}
);
width = 415;
},
{
layerId = "C5AA7147-E6CF-43E6-A817-BB6994C58056";
shapes = (
{
closed = 1;
nodes = (
(380.139,1881,l),
(256.288,1595,l),
(160.288,1595,l),
(35.139,1881,l),
(140.139,1881,l),
(207.905,1692,l),
(275.139,1881,l)
);
}
);
width = 415;
}
);
},
{
glyphname = _746;
layers = (
{
layerId = "F13BA0ED-FC1D-44B0-ADA4-543E9A2824CE";
shapes = (
{
closed = 1;
nodes = (
(360.238,209,l),
(215.238,209,l),
(215.664,357,l),
(360.664,357,l)
);
},
{
closed = 1;
nodes = (
(361,0,l),
(216,0,l),
(215.427,148,l),
(360.427,148,l)
);
}
);
width = 576;
},
{
layerId = "1D873A00-654D-4240-B6DF-C2B832D3BA68";
shapes = (
{
closed = 1;
nodes = (
(360.238,209,l),
(215.238,209,l),
(215.664,357,l),
(360.664,357,l)
);
},
{
closed = 1;
nodes = (
(361,0,l),
(216,0,l),
(215.427,148,l),
(360.427,148,l)
);
}
);
width = 576;
},
{
layerId = "6CF7F53B-663E-4569-94B0-B9FCEE5B09F0";
shapes = (
{
closed = 1;
nodes = (
(360.238,209,l),
(215.238,209,l),
(215.664,357,l),
(360.664,357,l)
);
},
{
closed = 1;
nodes = (
(361,0,l),
(216,0,l),
(215.427,148,l),
(360.427,148,l)
);
}
);
width = 576;
},
{
layerId = "C5AA7147-E6CF-43E6-A817-BB6994C58056";
shapes = (
{
closed = 1;
nodes = (
(360.238,209,l),
(215.238,209,l),
(215.664,357,l),
(360.664,357,l)
);
},
{
closed = 1;
nodes = (
(361,0,l),
(216,0,l),
(215.427,148,l),
(360.427,148,l)
);
}
);
width = 576;
}
);
},
{
glyphname = a;
layers = (
{
layerId = "F13BA0ED-FC1D-44B0-ADA4-543E9A2824CE";
shapes = (
{
closed = 1;
nodes = (
(789,585,l),
(709,578,o),
(536,561,o),
(458,539,c),
(356,507,o),
(274,449,o),
(251,336,cs),
(225,207,o),
(284,142,o),
(416,142,cs),
(529,142,o),
(631,199,o),
(727,275,c)
);
},
{
closed = 1;
nodes = (
(695,119,l),
(662,97,o),
(593,46,o),
(546,23,cs),
(467,-16,o),
(414,-31,o),
(317,-31,cs),
(143,-31,o),
(20,109,o),
(63,324,cs),
(107,542,o),
(256,672,o),
(549,710,cs),
(633,721,o),
(723,729,o),
(819,735,c),
(826,771,ls),
(862,950,o),
(752,978,o),
(607,978,cs),
(523,978,o),
(394,949,o),
(276,902,c),
(265,902,l),
(304,1093,l),
(368,1111,o),
(522,1144,o),
(641,1144,cs),
(903,1144,o),
(1064,1063,o),
(1004,764,cs),
(851,0,l),
(672,0,l)
);
}
);
width = 1022;
},
{
layerId = "1D873A00-654D-4240-B6DF-C2B832D3BA68";
shapes = (
{
closed = 1;
nodes = (
(794,604,l),
(725,600,o),
(514,577,o),
(437,557,c),
(320,521,o),
(226,458,o),
(201,331,cs),
(174,194,o),
(235,118,o),
(376,118,cs),
(508,118,o),
(619,185,o),
(727,269,c)
);
},
{
closed = 1;
nodes = (
(697,119,l),
(664,97,o),
(580,36,o),
(527,12,c),
(452,-20,o),
(414,-31,o),
(317,-31,cs),
(142,-31,o),
(23,114,o),
(65,325,cs),
(105,526,o),
(240,669,o),
(533,707,cs),
(622,719,o),
(717,728,o),
(820,734,c),
(829,780,ls),
(869,979,o),
(746,1001,o),
(614,1001,cs),
(530,1001,o),
(399,975,o),
(276,927,c),
(272,927,l),
(305,1091,l),
(368,1109,o),
(512,1140,o),
(622,1140,cs),
(848,1140,o),
(1017,1075,o),
(955,764,cs),
(802,0,l),
(673,0,l)
);
}
);
width = 974;
},
{
layerId = "6CF7F53B-663E-4569-94B0-B9FCEE5B09F0";
shapes = (
{
closed = 1;
nodes = (
(765,508,l),
(641,491,o),
(625,497,o),
(541,468,cs),
(494,452,o),
(462,413,o),
(451,356,cs),
(432,260,o),
(475,237,o),
(574,237,cs),
(614,237,o),
(676,256,o),
(723,299,c)
);
},
{
closed = 1;
nodes = (
(687,119,l),
(656,97,o),
(644,85,o),
(620,66,c),
(523,-1,o),
(414,-30,o),
(317,-30,cs),
(148,-30,o),
(6,90,o),
(52,321,cs),
(109,607,o),
(320,685,o),
(613,722,cs),
(677,730,o),
(744,734,o),
(813,739,c),
(812,735,l),
(832,833,o),
(776,885,o),
(578,885,cs),
(494,885,o),
(375,846,o),
(275,803,c),
(239,803,l),
(299,1101,l),
(366,1119,o),
(565,1159,o),
(717,1159,cs),
(1126,1159,o),
(1251,1015,o),
(1201,764,cs),
(1049,0,l),
(664,0,l)
);
}
);
width = 1216;
},
{
layerId = "C5AA7147-E6CF-43E6-A817-BB6994C58056";
shapes = (
{
closed = 1;
nodes = (
(771,527,l),
(658,513,o),
(603,513,o),
(521,486,c),
(459,466,o),
(414,422,o),
(400,351,cs),
(379,247,o),
(426,213,o),
(534,213,cs),
(593,213,o),
(665,242,o),
(724,293,c)
);
},
{
closed = 1;
nodes = (
(689,119,l),
(658,97,o),
(631,75,o),
(601,55,cs),
(508,-5,o),
(414,-30,o),
(317,-30,cs),
(147,-30,o),
(10,95,o),
(55,322,cs),
(109,591,o),
(304,682,o),
(597,719,cs),
(666,728,o),
(739,733,o),
(815,738,c),
(816,744,l),
(840,862,o),
(770,908,o),
(586,908,cs),
(502,908,o),
(380,872,o),
(275,828,c),
(246,828,l),
(300,1099,l),
(366,1117,o),
(554,1155,o),
(697,1155,cs),
(1069,1155,o),
(1205,1027,o),
(1152,764,cs),
(999,0,l),
(665,0,l)
);
}
);
width = 1168;
}
);
unicode = 97;
},
{
glyphname = acute;
layers = (
{
layerId = "F13BA0ED-FC1D-44B0-ADA4-543E9A2824CE";
shapes = (
{
closed = 1;
nodes = (
(1102,1676,l),
(760,1302,l),
(614,1302,l),
(864,1676,l)
);
}
);
width = 1046;
},
{
layerId = "1D873A00-654D-4240-B6DF-C2B832D3BA68";
shapes = (
{
closed = 1;
nodes = (
(1097,1676,l),
(764,1308,l),
(648,1308,l),
(888,1676,l)
);
}
);
width = 1044;
},
{
layerId = "6CF7F53B-663E-4569-94B0-B9FCEE5B09F0";
shapes = (
{
closed = 1;
nodes = (
(1123,1676,l),
(740,1277,l),
(478,1277,l),
(769,1676,l)
);
}
);
width = 1057;
},
{
layerId = "C5AA7147-E6CF-43E6-A817-BB6994C58056";
shapes = (
{
closed = 1;
nodes = (
(1117,1676,l),
(745,1283,l),
(512,1283,l),
(793,1676,l)
);
}
);
width = 1055;
}
);
unicode = 180;
},
{
glyphname = ae;
layers = (
{
layerId = "F13BA0ED-FC1D-44B0-ADA4-543E9A2824CE";
shapes = (
{
closed = 1;
nodes = (
(775,370,o),
(780,459,o),
(800,558,c),
(559,550,o),
(293,548,o),
(249,330,cs),
(223,202,o),
(283,142,o),
(426,142,cs),
(539,142,o),
(684,207,o),
(786,298,c)
);
},
{
closed = 1;
nodes = (
(1433,138,o),
(1590,234,o),
(1644,273,c),
(1655,273,l),
(1614,68,l),
(1571,51,o),
(1486,18,o),
(1437,5,cs),
(1359,-16,o),
(1316,-26,o),
(1225,-26,cs),
(1018,-26,o),
(886,44,o),
(820,181,c),
(790,157,o),
(709,87,o),
(645,53,cs),
(547,0,o),
(470,-29,o),
(327,-29,cs),
(142,-29,o),
(20,113,o),
(61,317,cs),
(128,652,o),
(400,697,o),
(838,706,c),
(849,764,ls),
(882,930,o),
(789,980,o),
(618,980,cs),
(519,980,o),
(360,932,o),
(286,902,c),
(272,902,l),
(310,1093,l),
(368,1109,o),
(542,1146,o),
(652,1146,cs),
(856,1146,o),
(965,1080,o),
(1012,962,c),
(1117,1068,o),
(1266,1148,o),
(1416,1148,cs),
(1765.502,1148,o),
(1800.345,876.944,o),
(1741,600,cs),
(1733,559,l),
(976,559,l),
(915,253,o),
(1052,138,o),
(1256,138,cs)
);
},
{
closed = 1;
nodes = (
(1587,703,l),
(1602,849,o),
(1582,993,o),
(1376,993,cs),
(1193,993,o),
(1067,872,o),
(1008,703,c)
);
}
);
width = 1724;
},
{
layerId = "1D873A00-654D-4240-B6DF-C2B832D3BA68";
shapes = (
{
closed = 1;
nodes = (
(779,366,o),
(785,463,o),
(808,572,c),
(549,566,o),
(247,566,o),
(198,323,cs),
(170,185,o),
(236,118,o),
(389,118,cs),
(514,118,o),
(674,188,o),
(790,294,c)
);
},
{
closed = 1;
nodes = (
(1407,110,o),
(1569,218,o),
(1606,247,c),
(1609,247,l),
(1574,70,l),
(1538,55,o),
(1434,16,o),
(1398,6,cs),
(1320,-15,o),
(1287,-25,o),
(1202,-25,cs),
(1014,-25,o),
(870,55,o),
(816,193,c),
(794,176,o),
(707,98,o),
(644,63,cs),
(539,4,o),
(460,-29,o),
(303,-29,cs),
(147,-29,o),
(23,117,o),
(63,315,cs),
(131,653,o),
(401,694,o),
(846,699,c),
(860,771,ls),
(896,951,o),
(796,1004,o),
(628,1004,cs),
(523,1004,o),
(354,952,o),
(290,927,c),
(281,927,l),
(314,1091,l),
(370,1106,o),
(536,1143,o),
(637,1143,cs),
(847,1143,o),
(949,1072,o),
(987,940,c),
(1092,1058,o),
(1241,1145,o),
(1396,1145,cs),
(1674,1145,o),
(1775,943,o),
(1708,631,c),
(1697,580,l),
(933,580,l),
(861,239,o),
(1005,110,o),
(1215,110,cs)
);
},
{
closed = 1;
nodes = (
(1599,702,l),
(1611,852,o),
(1596,1013,o),
(1366,1013,cs),
(1165,1013,o),
(1029,881,o),
(963,702,c)
);
}
);
width = 1686;
},
{
layerId = "6CF7F53B-663E-4569-94B0-B9FCEE5B09F0";
shapes = (
{
closed = 1;
nodes = (
(759,385,o),
(762,444,o),
(769,501,c),
(604,486,o),
(475,476,o),
(451,358,cs),
(434,271,o),
(467,237,o),
(571,237,cs),
(647.844,237,o),
(712.313,267.05,o),
(771,314,c)
);
},
{
closed = 1;
nodes = (
(1537,251,o),
(1673,297,o),
(1795,378,c),
(1838,378,l),
(1775,61,l),
(1704,36,o),
(1694,25,o),
(1593,1,c),
(1515,-19,o),
(1432,-31,o),
(1316,-31,cs),
(1033,-31,o),
(951,0,o),
(838,132,c),
(777,81,o),
(719,43,o),
(649,14,cs),
(578,-16,o),
(509,-30,o),
(422,-30,cs),
(122,-30,o),
(7,96,o),
(53,324,cs),
(118,648,o),
(399,710,o),
(805,735,c),
(805,737,l),
(827,846,o),
(757,884,o),
(575,884,cs),
(500,884,o),
(388,852,o),
(271,803,c),
(238,803,l),
(297,1101,l),
(364,1121,o),
(563,1158,o),
(713,1158,cs),
(889,1158,o),
(1024,1112,o),
(1109,1049,c),
(1213,1109,o),
(1365,1161,o),
(1496,1161,cs),
(1843.679,1161,o),
(1979.767,955.452,o),
(1907,628,cs),
(1877,474,l),
(1147,474,l),
(1129,309,o),
(1239,251,o),
(1420,251,cs)
);
},
{
closed = 1;
nodes = (
(1539,707,l),
(1565,837,o),
(1525,913,o),
(1414,913,cs),
(1301,913,o),
(1221,837,o),
(1191,707,c)
);
}
);
width = 1875;
},
{
layerId = "C5AA7147-E6CF-43E6-A817-BB6994C58056";
shapes = (
{
closed = 1;
nodes = (
(762,381,o),
(767,448,o),
(777,515,c),
(593,502,o),
(429,494,o),
(400,351,cs),
(381,254,o),
(421,213,o),
(534,213,cs),
(624.399,213,o),
(706.04,253.367,o),
(774,310,c)
);
},
{
closed = 1;
nodes = (
(1511,223,o),
(1653,281,o),
(1757,352,c),
(1793,352,l),
(1735,63,l),
(1671,40,o),
(1642,23,o),
(1554,2,cs),
(1476,-18,o),
(1403,-30,o),
(1293,-30,cs),
(1029,-30,o),
(934,11,o),
(833,144,c),
(780,100,o),
(716,54,o),
(648,24,cs),
(570,-12,o),
(500,-30,o),
(398,-30,cs),
(126,-30,o),
(11,100,o),
(55,322,cs),
(120,649,o),
(399,707,o),
(813,728,c),
(816,744,ls),
(841,867,o),
(766,908,o),
(586,908,cs),
(505,908,o),
(382,872,o),
(275,828,c),
(246,828,l),
(300,1099,l),
(365,1118,o),
(557,1155,o),
(697,1155,cs),
(879,1155,o),
(1009,1104,o),
(1085,1027,c),
(1190,1099,o),
(1341,1158,o),
(1476,1158,cs),
(1838.869,1158,o),
(1922.072,938.74,o),
(1866,621,cs),
(1840,495,l),
(1104,495,l),
(1076,295,o),
(1192,223,o),
(1379,223,cs)
);
},
{
closed = 1;
nodes = (
(1551,706,l),
(1574,840,o),
(1540,933,o),
(1405,933,cs),
(1274,933,o),
(1182,846,o),
(1145,706,c)
);
}
);
width = 1837;
}
);
unicode = 230;
},
{
glyphname = afii00208;
layers = (
{
layerId = "F13BA0ED-FC1D-44B0-ADA4-543E9A2824CE";
shapes = (
{
closed = 1;
nodes = (
(1769,572,l),
(159,572,l),
(191,732,l),
(1801,732,l)
);
}
);
width = 1809;
},
{
layerId = "1D873A00-654D-4240-B6DF-C2B832D3BA68";
shapes = (
{
closed = 1;
nodes = (
(1766,587,l),
(167,587,l),
(192,714,l),
(1792,714,l)
);
}
);
width = 1808;
},
{
layerId = "6CF7F53B-663E-4569-94B0-B9FCEE5B09F0";
shapes = (
{
closed = 1;
nodes = (
(1777,513,l),
(130,513,l),
(188,804,l),
(1835,804,l)
);
}
);
width = 1812;
},
{
layerId = "C5AA7147-E6CF-43E6-A817-BB6994C58056";
shapes = (
{
closed = 1;
nodes = (
(1774,528,l),
(138,528,l),
(189,786,l),
(1826,786,l)
);
}
);
width = 1811;
}
);
unicode = 8213;
},
{
glyphname = afii08941;
layers = (
{
layerId = "F13BA0ED-FC1D-44B0-ADA4-543E9A2824CE";
shapes = (
{
closed = 1;
nodes = (
(949,0,l),
(26,0,l),
(67,207,l),
(192,243,o),
(270,321,o),
(321,486,c),
(163,486,l),
(190,620,l),
(350,620,l),
(378,760,l),
(218,760,l),
(245,894,l),
(403,894,l),
(438,1071,ls),
(491,1336,o),
(693,1518,o),
(936,1518,cs),
(1062,1518,o),
(1139,1492,o),
(1213,1470,c),
(1172,1264,l),
(1163,1264,l),
(1119,1295,o),
(1036,1351,o),
(921,1351,cs),
(757,1351,o),
(660,1242,o),
(622,1052,cs),
(591,894,l),
(947,894,l),
(921,760,l),
(562,760,l),
(534,620,l),
(893,620,l),
(866,486,l),
(504,486,l),
(455,337,o),
(351,245,o),
(231,182,c),
(229,171,l),
(983,171,l)
);
}
);
width = 1084;
},
{
layerId = "1D873A00-654D-4240-B6DF-C2B832D3BA68";
shapes = (
{
closed = 1;
nodes = (
(892,0,l),
(17,0,l),
(54,187,l),
(182,225,o),
(262,308,o),
(316,489,c),
(158,489,l),
(182,610,l),
(340,610,l),
(368,751,l),
(210,751,l),
(234,872,l),
(390,872,l),
(429,1068,ls),
(482,1334,o),
(672,1518,o),
(903,1518,cs),
(1017,1518,o),
(1085,1493,o),
(1166,1470,c),
(1132,1297,l),
(1130,1297,l),
(1090,1322,o),
(1006,1385,o),
(882,1385,cs),
(704,1385,o),
(605,1268,o),
(564,1062,cs),
(526,872,l),
(880,872,l),
(856,751,l),
(500,751,l),
(472,610,l),
(828,610,l),
(804,489,l),
(453,489,l),
(401,315,o),
(284,218,o),
(146,145,c),
(144,134,l),
(919,134,l)
);
}
);
width = 1022;
},
{
layerId = "6CF7F53B-663E-4569-94B0-B9FCEE5B09F0";
shapes = (
{
closed = 1;
nodes = (
(1177,0,l),
(63,0,l),
(121,287,l),
(233,316,o),
(301,373,o),
(340,474,c),
(186,474,l),
(224,661,l),
(390,661,l),
(417,796,l),
(251,796,l),
(288,983,l),
(453,983,l),
(473,1084,ls),
(525,1345,o),
(777,1518,o),
(1067,1518,cs),
(1243,1518,o),
(1354,1487,o),
(1404,1470,c),
(1336,1131,l),
(1294,1131,l),
(1236,1186,o),
(1154,1214,o),
(1080,1214,cs),
(975,1214,o),
(879,1138,o),
(854,1012,cs),
(849,983,l),
(1217,983,l),
(1180,796,l),
(809,796,l),
(782,661,l),
(1153,661,l),
(1115,474,l),
(711,474,l),
(673,425,o),
(622,353,o),
(570,329,c),
(568,318,l),
(1240,318,l)
);
}
);
width = 1328;
},
{
layerId = "C5AA7147-E6CF-43E6-A817-BB6994C58056";
shapes = (
{
closed = 1;
nodes = (
(1119,0,l),
(54,0,l),
(108,267,l),
(223,298,o),
(294,360,o),
(336,477,c),
(181,477,l),
(216,651,l),
(380,651,l),
(407,787,l),
(243,787,l),
(278,961,l),
(440,961,l),
(464,1081,ls),
(516,1343,o),
(757,1518,o),
(1035,1518,cs),
(1199,1518,o),
(1300,1488,o),
(1356,1470,c),
(1295,1164,l),
(1261,1164,l),
(1207,1213,o),
(1125,1248,o),
(1041,1248,cs),
(921,1248,o),
(824,1164,o),
(796,1022,cs),
(784,961,l),
(1150,961,l),
(1115,787,l),
(748,787,l),
(720,651,l),
(1088,651,l),
(1053,477,l),
(659,477,l),
(618,403,o),
(555,326,o),
(485,292,c),
(483,281,l),
(1176,281,l)
);
}
);
width = 1267;
}
);
unicode = 8356;
},
{
glyphname = afii10018;
layers = (
{
layerId = "F13BA0ED-FC1D-44B0-ADA4-543E9A2824CE";
shapes = (
{
closed = 1;
nodes = (
(1120,222,o),
(932,77,o),
(753,28,cs),
(686,9,o),
(604,0,o),
(505,0,cs),
(82,0,l),
(380,1489,l),
(1269,1489,l),
(1234,1313,l),
(539,1313,l),
(457,905,l),
(692,905,ls),
(892,905,o),
(997,894,o),
(1092,804,cs),
(1176,724,o),
(1196,607,o),
(1168,461,c)
);
},
{
closed = 1;
nodes = (
(997,615,o),
(931,708,o),
(794,726,c),
(747,730,o),
(681,734,o),
(597,734,cs),
(423,734,l),
(310,169,l),
(479,169,ls),
(652,169,o),
(731,180,o),
(815,232,cs),
(899,284,o),
(943,349,o),
(965,457,cs)
);
}
);
width = 1169;
},
{
layerId = "1D873A00-654D-4240-B6DF-C2B832D3BA68";
shapes = (
{
closed = 1;
nodes = (
(1060,216,o),
(869,75,o),
(696,28,c),
(629,9,o),
(546,0,o),
(445,0,cs),
(81,0,l),
(379,1489,l),
(1211,1489,l),
(1183,1349,l),
(488,1349,l),
(398,897,l),
(657,897,ls),
(858,897,o),
(940,882,o),
(1030,797,cs),
(1113,718,o),
(1136,605,o),
(1108,456,c)
);
},
{
closed = 1;
nodes = (
(999,639,o),
(913,734,o),
(776,751,c),
(723,755,o),
(648,760,o),
(550,760,cs),
(371,760,l),
(245,133,l),
(439,133,ls),
(638,133,o),
(711,149,o),
(798,204,cs),
(890,262,o),
(938,332,o),
(962,454,cs)
);
}
);
width = 1105;
},
{
layerId = "6CF7F53B-663E-4569-94B0-B9FCEE5B09F0";
shapes = (
{
closed = 1;
nodes = (
(1365,247,o),
(1189,84,o),
(985,28,cs),
(917,9,o),
(836,0,o),
(745,0,cs),
(86,0,l),
(384,1489,l),
(1501,1489,l),
(1437,1169,l),
(741,1169,l),
(695,938,l),
(831,938,ls),
(1028,938,o),
(1225,941,o),
(1339,832,cs),
(1427,747,o),
(1440,615,o),
(1412,481,c)
);
},
{
closed = 1;
nodes = (
(983,518,o),
(1001,603,o),
(865,625,c),
(841,630,o),
(811,629,o),
(782,629,cs),
(633,629,l),
(570,312,l),
(637,312,ls),
(708,312,o),
(809,305,o),
(881,345,cs),
(930,372,o),
(963,418,o),
(973,468,cs)
);
}
);
width = 1426;
},
{
layerId = "C5AA7147-E6CF-43E6-A817-BB6994C58056";
shapes = (
{
closed = 1;
nodes = (
(1304,241,o),
(1126,82,o),
(928,28,cs),
(860,9,o),
(778,0,o),
(685,0,cs),
(85,0,l),
(383,1489,l),
(1443,1489,l),
(1386,1205,l),
(690,1205,l),
(636,930,l),
(796,930,ls),
(994,930,o),
(1167,929,o),
(1277,825,cs),
(1364,741,o),
(1378,613,o),
(1351,476,c)
);
},
{
closed = 1;
nodes = (
(986,542,o),
(983,629,o),
(847,650,c),
(817,655,o),
(778,655,o),
(735,655,cs),
(581,655,l),
(505,276,l),
(598,276,ls),
(694,276,o),
(790,274,o),
(865,317,cs),
(923,350,o),
(958,401,o),
(971,465,cs)
);
}
);
width = 1362;
}
);
unicode = 1041;
},
{
glyphname = afii10020;
layers = (
{
layerId = "F13BA0ED-FC1D-44B0-ADA4-543E9A2824CE";
shapes = (
{
closed = 1;
nodes = (
(1210,1313,l),
(539,1313,l),
(276,0,l),
(82,0,l),
(380,1489,l),
(1245,1489,l)
);
}
);
width = 1007;
},
{
layerId = "1D873A00-654D-4240-B6DF-C2B832D3BA68";
shapes = (
{
closed = 1;
nodes = (
(1177,1349,l),
(487,1349,l),
(218,0,l),
(81,0,l),
(379,1489,l),
(1205,1489,l)
);
}
);
width = 968;
},
{
layerId = "6CF7F53B-663E-4569-94B0-B9FCEE5B09F0";
shapes = (
{
closed = 1;
nodes = (
(1343,1169,l),
(744,1169,l),
(510,0,l),
(86,0,l),
(384,1489,l),
(1407,1489,l)
);
}
);
width = 1163;
},
{
layerId = "C5AA7147-E6CF-43E6-A817-BB6994C58056";
shapes = (
{
closed = 1;
nodes = (
(1310,1205,l),
(692,1205,l),
(452,0,l),
(85,0,l),
(383,1489,l),
(1367,1489,l)
);
}
);
width = 1124;
}
);
unicode = 1043;
},
{
glyphname = afii10021;
layers = (
{
layerId = "F13BA0ED-FC1D-44B0-ADA4-543E9A2824CE";
shapes = (
{
closed = 1;
nodes = (
(1209,-337,l),
(1025,-337,l),
(1093,4,l),
(146,4,l),
(78,-337,l),
(-106,-337,l),
(-3,176,l),
(76,176,l),
(299,456,o),
(514,949,o),
(622,1489,c),
(1436,1489,l),
(1174,176,l),
(1312,176,l)
);
},
{
closed = 1;
nodes = (
(979,176,l),
(1207,1317,l),
(769,1317,l),
(654,838,o),
(466,431,o),
(263,176,c)
);
}
);
width = 1367;
},
{
layerId = "1D873A00-654D-4240-B6DF-C2B832D3BA68";
shapes = (
{
closed = 1;
nodes = (
(1154,-335,l),
(1020,-335,l),
(1088,4,l),
(97,4,l),
(30,-335,l),
(-104,-335,l),
(-9,140,l),
(65,140,l),
(297,417,o),
(525,927,o),
(637,1489,c),
(1380,1489,l),
(1110,140,l),
(1249,140,l)
);
},
{
closed = 1;
nodes = (
(974,140,l),
(1217,1354,l),
(739,1354,l),
(617,835,o),
(414,400,o),
(196,140,c)
);
}
);
width = 1311;
},
{
layerId = "6CF7F53B-663E-4569-94B0-B9FCEE5B09F0";
shapes = (
{
closed = 1;
nodes = (
(1431,-344,l),
(1044,-344,l),
(1113,5,l),
(342,5,l),
(272,-344,l),
(-115,-344,l),
(18,321,l),
(122,321,l),
(307,612,o),
(467,1036,o),
(558,1489,c),
(1659,1489,l),
(1426,321,l),
(1564,321,l)
);
},
{
closed = 1;
nodes = (
(1001,321,l),
(1170,1168,l),
(890,1168,l),
(802,850,o),
(677,556,o),
(532,321,c)
);
}
);
width = 1591;
},
{
layerId = "C5AA7147-E6CF-43E6-A817-BB6994C58056";
shapes = (
{
closed = 1;
nodes = (
(1375,-342,l),
(1039,-342,l),
(1108,5,l),
(293,5,l),
(224,-342,l),
(-112,-342,l),
(13,285,l),
(111,285,l),
(305,573,o),
(479,1014,o),
(574,1489,c),
(1603,1489,l),
(1362,285,l),
(1501,285,l)
);
},
{
closed = 1;
nodes = (
(996,285,l),
(1180,1205,l),
(860,1205,l),
(765,847,o),
(625,525,o),
(465,285,c)
);
}
);
width = 1535;
}
);
unicode = 1044;
},
{
glyphname = afii10024;
layers = (
{
layerId = "F13BA0ED-FC1D-44B0-ADA4-543E9A2824CE";
shapes = (
{
closed = 1;
nodes = (
(1753,0,l),
(1514,0,l),
(1165,685,l),
(1071,685,l),
(934,0,l),
(742,0,l),
(879,685,l),
(783,685,l),
(160,0,l),
(-68,0,l),
(636,768,l),
(559,825,o),
(517,884,o),
(496,1085,cs),
(478,1257,o),
(457,1312,o),
(288,1312,cs),
(248,1312,l),
(284,1489,l),
(301,1489,o),
(317,1489,o),
(334,1489,cs),
(554,1489,o),
(642,1418,o),
(677,1189,cs),
(681,1159,o),
(684,1131,o),
(689,1103,cs),
(695,1065,ls),
(721,899,o),
(786,828,o),
(905,817,c),
(1039,1489,l),
(1231,1489,l),
(1097,815,l),
(1232,827,o),
(1322,895,o),
(1424,1079,cs),
(1447,1120,ls),
(1462,1147,o),
(1473,1170,o),
(1484,1189,c),
(1607,1418,o),
(1731,1489,o),
(1947,1489,cs),
(1964,1489,o),
(1980,1489,o),
(1997,1489,c),
(1961,1312,l),
(1922,1312,ls),
(1751,1312,o),
(1706,1255,o),
(1621,1085,cs),
(1530,905,o),
(1444,833,o),
(1351,780,c)
);
}
);
width = 1796;
},
{
layerId = "1D873A00-654D-4240-B6DF-C2B832D3BA68";
shapes = (
{
closed = 1;
nodes = (
(1651,0,l),
(1477,0,l),
(1088,710,l),
(995,710,l),
(853,0,l),
(718,0,l),
(860,710,l),
(766,710,l),
(94,0,l),
(-67,0,l),
(669,771,l),
(580,838,o),
(533,895,o),
(511,1124,c),
(494,1306,o),
(478,1361,o),
(284,1361,cs),
(253,1361,l),
(279,1489,l),
(294,1489,o),
(298,1488,o),
(300,1488,cs),
(527,1488,o),
(612,1418,o),
(645,1171,c),
(647,1144,o),
(651,1119,o),
(655,1095,c),
(659,1063,ls),
(680,894,o),
(756,814,o),
(878,799,c),
(1016,1489,l),
(1151,1489,l),
(1012,796,l),
(1152,812,o),
(1258,889,o),
(1361,1082,cs),
(1381,1118,l),
(1393,1141,o),
(1400,1158,o),
(1407,1171,cs),
(1536,1418,o),
(1659,1488,o),
(1879,1488,c),
(1879,1488,o),
(1887,1489,o),
(1901,1489,c),
(1875,1359,l),
(1844,1359,ls),
(1653,1359,o),
(1607,1300,o),
(1522,1122,c),
(1426,924,o),
(1323,846,o),
(1218,786,c)
);
}
);
width = 1696;
},
{
layerId = "6CF7F53B-663E-4569-94B0-B9FCEE5B09F0";
shapes = (
{
closed = 1;
nodes = (
(2161,0,l),
(1664,0,l),
(1470,586,l),
(1374,586,l),
(1257,0,l),
(835,0,l),
(952,586,l),
(850,586,l),
(422,0,l),
(-72,0,l),
(504,755,l),
(475,774,o),
(453,839,o),
(438,929,cs),
(415,1061,o),
(370,1117,o),
(304,1117,cs),
(228,1117,l),
(303,1489,l),
(328,1489,o),
(392,1493,o),
(468,1493,cs),
(657,1493,o),
(759,1419,o),
(801,1260,c),
(810,1220,o),
(816,1178,o),
(824,1135,c),
(838,1072,l),
(881,920,o),
(907,885,o),
(1013,889,c),
(1133,1489,l),
(1554,1489,l),
(1434,890,l),
(1544,888,o),
(1578,918,o),
(1677,1067,c),
(1712,1128,ls),
(1737,1171,o),
(1767,1219,o),
(1792,1260,c),
(1895,1418,o),
(2023,1493,o),
(2217,1493,cs),
(2300,1493,o),
(2354,1489,o),
(2381,1489,c),
(2308,1123,l),
(2233,1123,ls),
(2145,1123,o),
(2107,1075,o),
(2020,936,c),
(1951,828,o),
(1928,780,o),
(1885,756,c)
);
}
);
width = 2197;
},
{
layerId = "C5AA7147-E6CF-43E6-A817-BB6994C58056";
shapes = (
{
closed = 1;
nodes = (
(2059,0,l),
(1627,0,l),
(1393,611,l),
(1298,611,l),
(1176,0,l),
(812,0,l),
(934,611,l),
(834,611,l),
(356,0,l),
(-71,0,l),
(537,758,l),
(497,787,o),
(469,850,o),
(452,968,cs),
(430,1110,o),
(391,1166,o),
(300,1166,cs),
(233,1166,l),
(298,1489,l),
(322,1489,o),
(373,1492,o),
(435,1492,cs),
(632,1492,o),
(730,1419,o),
(770,1242,c),
(777,1205,o),
(783,1166,o),
(790,1127,c),
(802,1070,l),
(841,915,o),
(877,871,o),
(986,871,c),
(1109,1489,l),
(1474,1489,l),
(1350,871,l),
(1466,873,o),
(1513,912,o),
(1613,1070,c),
(1646,1126,ls),
(1668,1165,o),
(1693,1207,o),
(1714,1242,cs),
(1823,1418,o),
(1951,1492,o),
(2150,1492,cs),
(2217,1492,o),
(2261,1489,o),
(2285,1489,c),
(2221,1170,l),
(2155,1170,ls),
(2046,1170,o),
(2006,1120,o),
(1920,973,cs),
(1846,847,o),
(1807,793,o),
(1752,762,c)
);
}
);
width = 2097;
}
);
unicode = 1046;
},
{
glyphname = afii10025;
layers = (
{
layerId = "F13BA0ED-FC1D-44B0-ADA4-543E9A2824CE";
shapes = (
{
closed = 1;
nodes = (
(1041,660,o),
(1074,580,o),
(1047,444,cs),
(989,155,o),
(716,-27,o),
(400,-27,cs),
(219,-27,o),
(65,19,o),
(-15,58,c),
(29,280,l),
(43,280,l),
(131,209,o),
(283,146,o),
(432,146,cs),
(609,146,o),
(803,228,o),
(848,454,cs),
(887,648,o),
(760,725,o),
(540,725,cs),
(388,725,l),
(421,891,l),
(554,891,ls),
(757,891,o),
(913,975,o),
(946,1138,cs),
(977,1292,o),
(840,1343,o),
(692,1343,cs),
(518,1343,o),
(347,1251,o),
(276,1211,c),
(263,1211,l),
(307,1430,l),
(399,1470,o),
(588,1516,o),
(732,1516,cs),
(1011,1516,o),
(1200,1404,o),
(1151,1159,cs),
(1119,998,o),
(973,865,o),
(800,830,c),
(797,815,l),
(858,803,o),
(938,773,o),
(989,718,cs)
);
}
);
width = 1063;
},
{
layerId = "1D873A00-654D-4240-B6DF-C2B832D3BA68";
shapes = (
{
closed = 1;
nodes = (
(977,664,o),
(1012,585,o),
(984,444,cs),
(926,154,o),
(646,-26,o),
(371,-26,cs),
(193,-26,o),
(45,23,o),
(-19,55,c),
(18,240,l),
(25,240,l),
(114,168,o),
(261,111,o),
(410,111,cs),
(583,111,o),
(793,198,o),
(843,449,cs),
(886,664,o),
(739,747,o),
(519,747,cs),
(384,747,l),
(411,879,l),
(533,879,ls),
(736,879,o),
(911,978,o),
(946,1152,cs),
(980,1324,o),
(830,1378,o),
(683,1378,cs),
(500,1378,o),
(323,1277,o),
(272,1245,c),
(266,1245,l),
(304,1433,l),
(399,1475,o),
(568,1515,o),
(694,1515,cs),
(947,1515,o),
(1137,1407,o),
(1088,1160,cs),
(1056,1002,o),
(909,868,o),
(735,835,c),
(732,820,l),
(791,807,o),
(873,781,o),
(926,722,cs)
);
}
);
width = 995;
},
{
layerId = "6CF7F53B-663E-4569-94B0-B9FCEE5B09F0";
shapes = (
{
closed = 1;
nodes = (
(1295,645,o),
(1319,559,o),
(1296,444,cs),
(1239,158,o),
(993,-30,o),
(517,-30,cs),
(322,-30,o),
(148,4,o),
(1,71,c),
(75,441,l),
(114,441,l),
(194,373,o),
(368,285,o),
(516,285,cs),
(711,285,o),
(840,347,o),
(866,475,cs),
(888,583,o),
(847,638,o),
(628,638,cs),
(400,638,l),
(459,938,l),
(637,938,ls),
(839,938,o),
(925,963,o),
(949,1082,cs),
(965,1164,o),
(883,1204,o),
(729,1204,cs),
(591,1204,o),
(438,1146,o),
(291,1076,c),
(250,1076,l),
(318,1417,l),
(402,1449,o),
(668,1519,o),
(884,1519,cs),
(1269,1519,o),
(1446,1392,o),
(1399,1156,cs),
(1364,983,o),
(1223,853,o),
(1057,810,c),
(1054,795,l),
(1123,786,o),
(1198,740,o),
(1240,701,c)
);
}
);
width = 1335;
},
{
layerId = "C5AA7147-E6CF-43E6-A817-BB6994C58056";
shapes = (
{
closed = 1;
nodes = (
(1232,649,o),
(1257,564,o),
(1233,444,cs),
(1176,157,o),
(924,-29,o),
(488,-29,cs),
(296,-29,o),
(128,8,o),
(-3,68,c),
(63,401,l),
(97,401,l),
(179,332,o),
(347,250,o),
(495,250,cs),
(686,250,o),
(830,317,o),
(861,470,cs),
(887,599,o),
(825,660,o),
(606,660,cs),
(396,660,l),
(450,926,l),
(616,926,ls),
(818,926,o),
(922,966,o),
(948,1096,cs),
(968,1196,o),
(873,1239,o),
(720,1239,cs),
(573,1239,o),
(415,1172,o),
(287,1110,c),
(253,1110,l),
(315,1420,l),
(401,1454,o),
(648,1518,o),
(846,1518,cs),
(1205,1518,o),
(1385,1395,o),
(1337,1157,cs),
(1303,987,o),
(1161,856,o),
(993,815,c),
(990,800,l),
(1057,790,o),
(1134,748,o),
(1178,705,c)
);
}
);
width = 1267;
}
);
unicode = 1047;
},
{
glyphname = afii10026;
layers = (
{
layerId = "F13BA0ED-FC1D-44B0-ADA4-543E9A2824CE";
shapes = (
{
closed = 1;
nodes = (
(1131,0,l),
(938,0,l),
(1174,1182,l),
(278,0,l),
(82,0,l),
(380,1489,l),
(573,1489,l),
(341,326,l),
(1224,1489,l),
(1429,1489,l)
);
}
);
width = 1323;
},
{
layerId = "1D873A00-654D-4240-B6DF-C2B832D3BA68";
shapes = (
{
closed = 1;
nodes = (
(1060,0,l),
(922,0,l),
(1172,1249,l),
(229,0,l),
(81,0,l),
(379,1489,l),
(516,1489,l),
(265,234,l),
(1211,1489,l),
(1357,1489,l)
);
}
);
width = 1252;
},
{
layerId = "6CF7F53B-663E-4569-94B0-B9FCEE5B09F0";
shapes = (
{
closed = 1;
nodes = (
(1417,0,l),
(1000,0,l),
(1183,914,l),
(473,0,l),
(86,0,l),
(384,1489,l),
(800,1489,l),
(641,694,l),
(1274,1489,l),
(1714,1489,l)
);
}
);
width = 1605;
},
{
layerId = "C5AA7147-E6CF-43E6-A817-BB6994C58056";
shapes = (
{
closed = 1;
nodes = (
(1345,0,l),
(985,0,l),
(1181,981,l),
(424,0,l),
(85,0,l),
(383,1489,l),
(743,1489,l),
(566,602,l),
(1262,1489,l),
(1643,1489,l)
);
}
);
width = 1535;
}
);
unicode = 1048;
},
{
glyphname = afii10027;
layers = (
{
layerId = "F13BA0ED-FC1D-44B0-ADA4-543E9A2824CE";
shapes = (
{
closed = 1;
nodes = (
(1131,0,l),
(938,0,l),
(1174,1182,l),
(278,0,l),
(82,0,l),
(380,1489,l),
(573,1489,l),
(341,326,l),
(1224,1489,l),
(1429,1489,l)
);
},
{
closed = 1;
nodes = (
(1375,1935,l),
(1329,1735,o),
(1184,1601,o),
(945,1601,cs),
(702,1601,o),
(614,1738,o),
(649,1935,c),
(824,1935,l),
(796,1785,o),
(847,1724,o),
(970,1724,cs),
(1092,1724,o),
(1165,1781,o),
(1200,1935,c)
);
}
);
width = 1323;
},
{
layerId = "1D873A00-654D-4240-B6DF-C2B832D3BA68";
shapes = (
{
closed = 1;
nodes = (
(1060,0,l),
(922,0,l),
(1172,1249,l),
(229,0,l),
(81,0,l),
(379,1489,l),
(516,1489,l),
(265,234,l),
(1211,1489,l),
(1357,1489,l)
);
},
{
closed = 1;
nodes = (
(1289,1920,l),
(1245,1733,o),
(1117,1607,o),
(916,1607,cs),
(706,1607,o),
(635,1737,o),
(667,1920,c),
(792,1920,l),
(764,1768,o),
(819,1708,o),
(936,1708,cs),
(1051,1708,o),
(1129,1763,o),
(1164,1920,c)
);
}
);
width = 1252;
},
{
layerId = "6CF7F53B-663E-4569-94B0-B9FCEE5B09F0";
shapes = (
{
closed = 1;
nodes = (
(1417,0,l),
(1000,0,l),
(1183,914,l),
(473,0,l),
(86,0,l),
(384,1489,l),
(800,1489,l),
(641,694,l),
(1274,1489,l),
(1714,1489,l)
);
},
{
closed = 1;
nodes = (
(1716,1995,l),
(1664,1742,o),
(1454,1578,o),
(1063,1578,cs),
(686,1578,o),
(529,1743,o),
(578,1995,c),
(948,1995,l),
(922,1853,o),
(954,1788,o),
(1105,1788,cs),
(1254,1788,o),
(1314,1853,o),
(1345,1995,c)
);
}
);
width = 1605;
},
{
layerId = "C5AA7147-E6CF-43E6-A817-BB6994C58056";
shapes = (
{
closed = 1;
nodes = (
(1345,0,l),
(985,0,l),
(1181,981,l),
(424,0,l),
(85,0,l),
(383,1489,l),
(743,1489,l),
(566,602,l),
(1262,1489,l),
(1643,1489,l)
);
},
{
closed = 1;
nodes = (
(1630,1980,l),
(1580,1740,o),
(1387,1584,o),
(1034,1584,cs),
(690,1584,o),
(549,1742,o),
(595,1980,c),
(917,1980,l),
(890,1836,o),
(927,1772,o),
(1071,1772,cs),
(1213,1772,o),
(1277,1835,o),
(1309,1980,c)
);
}
);
width = 1535;
}
);
unicode = 1049;
},
{
glyphname = afii10028;
layers = (
{
layerId = "F13BA0ED-FC1D-44B0-ADA4-543E9A2824CE";
shapes = (
{
closed = 1;
nodes = (
(1161,0,l),
(914,0,l),
(535,682,l),
(413,682,l),
(276,0,l),
(82,0,l),
(380,1489,l),
(574,1489,l),
(440,818,l),
(642,823,o),
(743,953,o),
(860,1189,c),
(984,1418,o),
(1106,1489,o),
(1323,1489,cs),
(1343,1489,o),
(1362,1489,o),
(1382,1489,c),
(1347,1312,l),
(1298,1312,ls),
(1134,1312,o),
(1086,1260,o),
(997,1085,cs),
(906,905,o),
(835,847,o),
(726,783,c)
);
}
);
width = 1200;
},
{
layerId = "1D873A00-654D-4240-B6DF-C2B832D3BA68";
shapes = (
{
closed = 1;
nodes = (
(1091,0,l),
(908,0,l),
(493,709,l),
(359,709,l),
(218,0,l),
(81,0,l),
(379,1489,l),
(515,1489,l),
(377,797,l),
(594,801,o),
(726,960,o),
(810,1171,c),
(935,1416,o),
(1056,1488,o),
(1278,1488,cs),
(1283,1488,o),
(1296,1489,o),
(1315,1489,c),
(1289,1359,l),
(1252,1359,ls),
(1062,1359,o),
(1017,1302,o),
(931,1122,cs),
(836,924,o),
(758,866,o),
(629,789,c)
);
}
);
width = 1134;
},
{
layerId = "6CF7F53B-663E-4569-94B0-B9FCEE5B09F0";
shapes = (
{
closed = 1;
nodes = (
(1442,0,l),
(942,0,l),
(706,574,l),
(625,574,l),
(510,0,l),
(86,0,l),
(384,1489,l),
(808,1489,l),
(691,903,l),
(833,912,o),
(811,925,o),
(1057,1260,c),
(1178,1427,o),
(1307,1493,o),
(1499,1493,cs),
(1579,1493,o),
(1629,1489,o),
(1653,1489,c),
(1580,1123,l),
(1484,1123,ls),
(1427,1123,o),
(1361,1092,o),
(1260,936,c),
(1189,830,o),
(1140,772,o),
(1114,759,c)
);
}
);
width = 1462;
},
{
layerId = "C5AA7147-E6CF-43E6-A817-BB6994C58056";
shapes = (
{
closed = 1;
nodes = (
(1372,0,l),
(935,0,l),
(664,601,l),
(572,601,l),
(452,0,l),
(85,0,l),
(383,1489,l),
(749,1489,l),
(628,882,l),
(785,890,o),
(794,932,o),
(1008,1242,c),
(1130,1425,o),
(1256,1492,o),
(1454,1492,cs),
(1520,1492,o),
(1561,1489,o),
(1585,1489,c),
(1521,1170,l),
(1437,1170,ls),
(1354,1170,o),
(1292,1134,o),
(1194,973,cs),
(1118,849,o),
(1063,791,o),
(1017,765,c)
);
}
);
width = 1396;
}
);
unicode = 1050;
},
{
glyphname = afii10029;
layers = (
{
layerId = "F13BA0ED-FC1D-44B0-ADA4-543E9A2824CE";
shapes = (
{
closed = 1;
nodes = (
(1156,0,l),
(962,0,l),
(1225,1313,l),
(733,1313,l),
(551,512,o),
(473,286,o),
(309,121,cs),
(239,51,o),
(162,12,o),
(96,2,cs),
(76,-1,o),
(55,-3,o),
(33,-3,cs),
(6,-3,o),
(-26,0,o),
(-41,0,c),
(-3,192,l),
(11,192,l),
(23,190,o),
(24,189,o),
(47,189,cs),
(289,189,o),
(368,562,o),
(584,1489,c),
(1454,1489,l)
);
}
);
width = 1348;
},
{
layerId = "1D873A00-654D-4240-B6DF-C2B832D3BA68";
shapes = (
{
closed = 1;
nodes = (
(1091,0,l),
(954,0,l),
(1224,1349,l),
(690,1349,l),
(504,503,o),
(435,295,o),
(281,130,cs),
(214,59,o),
(147,19,o),
(90,6,c),
(68,2,o),
(44,-1,o),
(21,-1,c),
(-3,-2,o),
(-32,1,o),
(-38,0,c),
(-9,146,l),
(5,146,l),
(17,144,o),
(16,143,o),
(40,143,cs),
(268,143,o),
(355,491,o),
(588,1489,c),
(1389,1489,l)
);
}
);
width = 1282;
},
{
layerId = "6CF7F53B-663E-4569-94B0-B9FCEE5B09F0";
shapes = (
{
closed = 1;
nodes = (
(1417,0,l),
(994,0,l),
(1227,1169,l),
(900,1169,l),
(737,549,o),
(626,249,o),
(421,84,cs),
(339,18,o),
(221,-17,o),
(123,-14,c),
(109,-13,o),
(95,-12,o),
(80,-11,c),
(37,-7,o),
(-8,-4,o),
(-56,0,c),
(19,375,l),
(33,375,l),
(46,374,o),
(58,372,o),
(77,372,cs),
(373,372,o),
(422,845,o),
(570,1489,c),
(1715,1489,l)
);
}
);
width = 1613;
},
{
layerId = "C5AA7147-E6CF-43E6-A817-BB6994C58056";
shapes = (
{
closed = 1;
nodes = (
(1352,0,l),
(986,0,l),
(1226,1205,l),
(858,1205,l),
(691,540,o),
(589,258,o),
(394,93,cs),
(315,26,o),
(206,-10,o),
(116,-10,cs),
(100,-10,o),
(84,-10,o),
(68,-9,cs),
(28,-6,o),
(-12,-3,o),
(-52,0,c),
(13,329,l),
(27,329,l),
(40,328,o),
(50,326,o),
(70,326,cs),
(352,326,o),
(409,774,o),
(574,1489,c),
(1650,1489,l)
);
}
);
width = 1547;
}
);
unicode = 1051;
},
{
glyphname = afii10033;
layers = (
{
layerId = "F13BA0ED-FC1D-44B0-ADA4-543E9A2824CE";
shapes = (
{
closed = 1;
nodes = (
(1142,0,l),
(948,0,l),
(1210,1313,l),
(539,1313,l),
(276,0,l),
(82,0,l),
(380,1489,l),
(1439,1489,l)
);
}
);
width = 1334;
},
{
layerId = "1D873A00-654D-4240-B6DF-C2B832D3BA68";
shapes = (
{
closed = 1;
nodes = (
(1083,0,l),
(947,0,l),
(1216,1349,l),
(487,1349,l),
(218,0,l),
(81,0,l),
(379,1489,l),
(1381,1489,l)
);
}
);
width = 1274;
},
{
layerId = "6CF7F53B-663E-4569-94B0-B9FCEE5B09F0";
shapes = (
{
closed = 1;
nodes = (
(1376,0,l),
(951,0,l),
(1185,1169,l),
(744,1169,l),
(510,0,l),
(86,0,l),
(384,1489,l),
(1673,1489,l)
);
}
);
width = 1571;
},
{
layerId = "C5AA7147-E6CF-43E6-A817-BB6994C58056";
shapes = (
{
closed = 1;
nodes = (
(1317,0,l),
(950,0,l),
(1191,1205,l),
(692,1205,l),
(452,0,l),
(85,0,l),
(383,1489,l),
(1615,1489,l)
);
}
);
width = 1512;
}
);
unicode = 1055;
},
{
glyphname = afii10037;
layers = (
{
layerId = "F13BA0ED-FC1D-44B0-ADA4-543E9A2824CE";
shapes = (
{
closed = 1;
nodes = (
(1410,1489,l),
(679,313,l),
(545,95,o),
(448,-5,o),
(244,-5,cs),
(198,-5,o),
(99,0,o),
(85,0,c),
(122,185,l),
(136,185,l),
(155,181,o),
(192,178,o),
(255,178,cs),
(318,178,o),
(410,183,o),
(485,307,cs),
(501,333,o),
(518,360,o),
(534,386,c),
(242,1489,l),
(456,1489,l),
(677,613,l),
(1210,1489,l)
);
}
);
width = 1155;
},
{
layerId = "1D873A00-654D-4240-B6DF-C2B832D3BA68";
shapes = (
{
closed = 1;
nodes = (
(1347,1489,l),
(614,318,l),
(497,127,o),
(433,-4,o),
(221,-4,cs),
(185,-4,o),
(94,1,o),
(84,0,c),
(112,141,l),
(123,141,l),
(143,137,o),
(164,138,o),
(226,138,cs),
(295,138,o),
(403,143,o),
(489,304,c),
(496,335,o),
(509,365,o),
(525,391,c),
(241,1489,l),
(395,1489,l),
(632,554,l),
(1207,1489,l)
);
}
);
width = 1092;
},
{
layerId = "6CF7F53B-663E-4569-94B0-B9FCEE5B09F0";
shapes = (
{
closed = 1;
nodes = (
(1661,1489,l),
(938,293,l),
(735,-34,o),
(510,-10,o),
(338,-10,cs),
(251,-10,o),
(117,-3,o),
(88,0,c),
(160,360,l),
(185,360,l),
(201,356,o),
(306,339,o),
(374,339,cs),
(412,339,o),
(438,344,o),
(467,318,c),
(517,324,o),
(552,340,o),
(570,367,c),
(245,1489,l),
(702,1489,l),
(858,850,l),
(1220,1489,l)
);
}
);
width = 1406;
},
{
layerId = "C5AA7147-E6CF-43E6-A817-BB6994C58056";
shapes = (
{
closed = 1;
nodes = (
(1599,1489,l),
(874,298,l),
(689,-2,o),
(494,-9,o),
(314,-9,cs),
(237,-9,o),
(112,-2,o),
(87,0,c),
(150,316,l),
(173,316,l),
(190,312,o),
(278,299,o),
(345,299,cs),
(389,299,o),
(431,304,o),
(471,315,cs),
(512,326,o),
(543,345,o),
(561,372,c),
(244,1489,l),
(640,1489,l),
(813,791,l),
(1217,1489,l)
);
}
);
width = 1343;
}
);
unicode = 1059;
},
{
glyphname = afii10038;
layers = (
{
layerId = "F13BA0ED-FC1D-44B0-ADA4-543E9A2824CE";
shapes = (
{
closed = 1;
nodes = (
(1453,373,o),
(1155,173,o),
(821,165,c),
(785,-16,l),
(592,-16,l),
(628,165,l),
(311,173,o),
(77,358,o),
(157,760,cs),
(227,1111,o),
(497,1336,o),
(864,1348,c),
(897,1513,l),
(1090,1513,l),
(1057,1348,l),
(1429,1340,o),
(1598,1101,o),
(1530,760,cs)
);
},
{
closed = 1;
nodes = (
(1382,1029,o),
(1276,1187,o),
(1027,1195,c),
(851,315,l),
(1128,319,o),
(1279,511,o),
(1330,768,cs)
);
},
{
closed = 1;
nodes = (
(834,1195,l),
(583,1191,o),
(413,1032,o),
(360,768,cs),
(317,552,o),
(357,413,o),
(506,345,cs),
(548,326,o),
(599,314,o),
(658,315,c)
);
}
);
width = 1493;
},
{
layerId = "1D873A00-654D-4240-B6DF-C2B832D3BA68";
shapes = (
{
closed = 1;
nodes = (
(1360,355,o),
(1054,169,o),
(750,170,c),
(713,-17,l),
(577,-17,l),
(614,170,l),
(310,170,o),
(79,354,o),
(160,761,cs),
(231,1116,o),
(503,1342,o),
(849,1346,c),
(883,1516,l),
(1019,1516,l),
(985,1346,l),
(1360,1345,o),
(1507,1091,o),
(1441,761,cs)
);
},
{
closed = 1;
nodes = (
(1356,1055,o),
(1240,1225,o),
(961,1225,c),
(774,288,l),
(1079,280,o),
(1245,498,o),
(1299,770,cs)
);
},
{
closed = 1;
nodes = (
(825,1225,l),
(548,1230,o),
(363,1056,o),
(306,770,cs),
(258,531,o),
(304,384,o),
(472,313,cs),
(518,294,o),
(574,284,o),
(638,288,c)
);
}
);
width = 1406;
},
{
layerId = "6CF7F53B-663E-4569-94B0-B9FCEE5B09F0";
shapes = (
{
closed = 1;
nodes = (
(1823,446,o),
(1560,189,o),
(1104,144,c),
(1073,-11,l),
(651,-11,l),
(682,144,l),
(315,186,o),
(69,375,o),
(145,755,cs),
(212,1090,o),
(474,1313,o),
(925,1356,c),
(954,1501,l),
(1375,1501,l),
(1346,1356,l),
(1705,1319,o),
(1962,1142,o),
(1885,755,cs)
);
},
{
closed = 1;
nodes = (
(1484,925,o),
(1418,1035,o),
(1290,1075,c),
(1160,424,l),
(1324,476,o),
(1412,564,o),
(1451,760,cs)
);
},
{
closed = 1;
nodes = (
(868,1075,l),
(725,1034,o),
(615,935,o),
(580,760,cs),
(555,637,o),
(571,530,o),
(642,474,cs),
(668,454,o),
(703,435,o),
(738,424,c)
);
}
);
width = 1838;
},
{
layerId = "C5AA7147-E6CF-43E6-A817-BB6994C58056";
shapes = (
{
closed = 1;
nodes = (
(1730,428,o),
(1459,185,o),
(1033,149,c),
(1001,-12,l),
(636,-12,l),
(669,149,l),
(315,183,o),
(71,371,o),
(148,756,cs),
(216,1095,o),
(480,1319,o),
(909,1354,c),
(939,1504,l),
(1304,1504,l),
(1274,1354,l),
(1636,1324,o),
(1871,1132,o),
(1796,756,cs)
);
},
{
closed = 1;
nodes = (
(1459,951,o),
(1382,1073,o),
(1224,1105,c),
(1083,397,l),
(1275,437,o),
(1379,551,o),
(1421,762,cs)
);
},
{
closed = 1;
nodes = (
(860,1105,l),
(690,1073,o),
(564,959,o),
(525,762,cs),
(496,616,o),
(518,501,o),
(608,442,cs),
(638,422,o),
(677,405,o),
(718,397,c)
);
}
);
width = 1752;
}
);
unicode = 1060;
},
{
glyphname = afii10040;
layers = (
{
layerId = "F13BA0ED-FC1D-44B0-ADA4-543E9A2824CE";
shapes = (
{
closed = 1;
nodes = (
(1203,-337,l),
(1019,-337,l),
(1086,0,l),
(82,0,l),
(380,1489,l),
(574,1489,l),
(311,174,l),
(973,174,l),
(1235,1489,l),
(1430,1489,l),
(1167,174,l),
(1305,174,l)
);
}
);
width = 1361;
},
{
layerId = "1D873A00-654D-4240-B6DF-C2B832D3BA68";
shapes = (
{
closed = 1;
nodes = (
(1143,-335,l),
(1009,-335,l),
(1076,0,l),
(81,0,l),
(379,1489,l),
(515,1489,l),
(245,138,l),
(963,138,l),
(1233,1489,l),
(1369,1489,l),
(1099,138,l),
(1237,138,l)
);
}
);
width = 1300;
},
{
layerId = "6CF7F53B-663E-4569-94B0-B9FCEE5B09F0";
shapes = (
{
closed = 1;
nodes = (
(1444,-344,l),
(1057,-344,l),
(1126,0,l),
(86,0,l),
(384,1489,l),
(808,1489,l),
(574,319,l),
(1014,319,l),
(1248,1489,l),
(1672,1489,l),
(1438,319,l),
(1577,319,l)
);
}
);
width = 1605;
},
{
layerId = "C5AA7147-E6CF-43E6-A817-BB6994C58056";
shapes = (
{
closed = 1;
nodes = (
(1384,-342,l),
(1048,-342,l),
(1116,0,l),
(85,0,l),
(383,1489,l),
(749,1489,l),
(508,283,l),
(1004,283,l),
(1245,1489,l),
(1612,1489,l),
(1371,283,l),
(1509,283,l)
);
}
);
width = 1544;
}
);
unicode = 1062;
},
{
glyphname = afii10041;
layers = (
{
layerId = "F13BA0ED-FC1D-44B0-ADA4-543E9A2824CE";
shapes = (
{
closed = 1;
nodes = (
(1066,0,l),
(872,0,l),
(998,630,l),
(822,574,o),
(712,550,o),
(575,550,cs),
(329,550,o),
(163,668,o),
(225,977,cs),
(327,1489,l),
(521,1489,l),
(439,1076,ls),
(398,869,o),
(383,732,o),
(649,732,cs),
(753,732,o),
(926,761,o),
(1032,800,c),
(1170,1489,l),
(1364,1489,l)
);
}
);
width = 1258;
},
{
layerId = "1D873A00-654D-4240-B6DF-C2B832D3BA68";
shapes = (
{
closed = 1;
nodes = (
(1012,0,l),
(875,0,l),
(1007,656,l),
(824,593,o),
(696,566,o),
(572,566,cs),
(324,566,o),
(165,682,o),
(227,990,cs),
(326,1489,l),
(462,1489,l),
(376,1056,ls),
(334,847,o),
(322,712,o),
(587,712,cs),
(711,712,o),
(909,748,o),
(1035,797,c),
(1173,1489,l),
(1309,1489,l)
);
}
);
width = 1203;
},
{
layerId = "6CF7F53B-663E-4569-94B0-B9FCEE5B09F0";
shapes = (
{
closed = 1;
nodes = (
(1285,0,l),
(860,0,l),
(965,525,l),
(819,499,o),
(772,486,o),
(586,486,cs),
(347,486,o),
(154,611,o),
(217,926,cs),
(330,1489,l),
(756,1489,l),
(690,1156,ls),
(650,956,o),
(627,813,o),
(897,813,cs),
(918,813,o),
(1001,814,o),
(1023,813,c),
(1158,1489,l),
(1582,1489,l)
);
}
);
width = 1480;
},
{
layerId = "C5AA7147-E6CF-43E6-A817-BB6994C58056";
shapes = (
{
closed = 1;
nodes = (
(1230,0,l),
(863,0,l),
(974,551,l),
(820,518,o),
(757,502,o),
(584,502,cs),
(343,502,o),
(156,625,o),
(219,939,cs),
(329,1489,l),
(697,1489,l),
(627,1136,ls),
(587,934,o),
(566,793,o),
(836,793,cs),
(877,793,o),
(982,801,o),
(1025,810,c),
(1161,1489,l),
(1528,1489,l)
);
}
);
width = 1425;
}
);
unicode = 1063;
},
{
glyphname = afii10042;
layers = (
{
layerId = "F13BA0ED-FC1D-44B0-ADA4-543E9A2824CE";
shapes = (
{
closed = 1;
nodes = (
(1680,0,l),
(82,0,l),
(380,1489,l),
(574,1489,l),
(311,172,l),
(818,172,l),
(1082,1489,l),
(1276,1489,l),
(1012,172,l),
(1520,172,l),
(1783,1489,l),
(1977,1489,l)
);
}
);
width = 1872;
},
{
layerId = "1D873A00-654D-4240-B6DF-C2B832D3BA68";
shapes = (
{
closed = 1;
nodes = (
(1583,0,l),
(81,0,l),
(379,1489,l),
(516,1489,l),
(246,136,l),
(791,136,l),
(1061,1489,l),
(1198,1489,l),
(928,136,l),
(1474,136,l),
(1744,1489,l),
(1880,1489,l)
);
}
);
width = 1774;
},
{
layerId = "6CF7F53B-663E-4569-94B0-B9FCEE5B09F0";
shapes = (
{
closed = 1;
nodes = (
(2067,0,l),
(86,0,l),
(384,1489,l),
(806,1489,l),
(572,317,l),
(928,317,l),
(1163,1489,l),
(1585,1489,l),
(1351,317,l),
(1707,317,l),
(1941,1489,l),
(2364,1489,l)
);
}
);
width = 2262;
},
{
layerId = "C5AA7147-E6CF-43E6-A817-BB6994C58056";
shapes = (
{
closed = 1;
nodes = (
(1970,0,l),
(85,0,l),
(383,1489,l),
(748,1489,l),
(507,281,l),
(901,281,l),
(1142,1489,l),
(1508,1489,l),
(1266,281,l),
(1660,281,l),
(1902,1489,l),
(2267,1489,l)
);
}
);
width = 2164;
}
);
unicode = 1064;
},
{
glyphname = afii10043;
layers = (
{
layerId = "F13BA0ED-FC1D-44B0-ADA4-543E9A2824CE";
shapes = (
{
closed = 1;
nodes = (
(1751,-337,l),
(1566,-337,l),
(1634,0,l),
(82,0,l),
(380,1489,l),
(574,1489,l),
(311,172,l),
(818,172,l),
(1082,1489,l),
(1276,1489,l),
(1012,172,l),
(1520,172,l),
(1783,1489,l),
(1977,1489,l),
(1714,172,l),
(1852,172,l)
);
}
);
width = 1909;
},
{
layerId = "1D873A00-654D-4240-B6DF-C2B832D3BA68";
shapes = (
{
closed = 1;
nodes = (
(1654,-335,l),
(1521,-335,l),
(1588,0,l),
(81,0,l),
(379,1489,l),
(516,1489,l),
(246,136,l),
(791,136,l),
(1061,1489,l),
(1198,1489,l),
(928,136,l),
(1474,136,l),
(1744,1489,l),
(1880,1489,l),
(1610,136,l),
(1748,136,l)
);
}
);
width = 1812;
},
{
layerId = "6CF7F53B-663E-4569-94B0-B9FCEE5B09F0";
shapes = (
{
closed = 1;
nodes = (
(2136,-344,l),
(1749,-344,l),
(1818,0,l),
(86,0,l),
(384,1489,l),
(806,1489,l),
(572,317,l),
(928,317,l),
(1163,1489,l),
(1585,1489,l),
(1351,317,l),
(1707,317,l),
(1941,1489,l),
(2364,1489,l),
(2130,317,l),
(2268,317,l)
);
}
);
width = 2297;
},
{
layerId = "C5AA7147-E6CF-43E6-A817-BB6994C58056";
shapes = (
{
closed = 1;
nodes = (
(2040,-342,l),
(1703,-342,l),
(1772,0,l),
(85,0,l),
(383,1489,l),
(748,1489,l),
(507,281,l),
(901,281,l),
(1142,1489,l),
(1508,1489,l),
(1266,281,l),
(1660,281,l),
(1902,1489,l),
(2267,1489,l),
(2026,281,l),
(2164,281,l)
);
}
);
width = 2200;
}
);
unicode = 1065;
},
{
glyphname = afii10044;
layers = (
{
layerId = "F13BA0ED-FC1D-44B0-ADA4-543E9A2824CE";
shapes = (
{
closed = 1;
nodes = (
(1336,222,o),
(1148,77,o),
(969,28,cs),
(902,9,o),
(819,0,o),
(720,0,cs),
(324,0,l),
(587,1313,l),
(206,1313,l),
(242,1489,l),
(816,1489,l),
(699,905,l),
(907,905,ls),
(1107,905,o),
(1212,894,o),
(1307,804,cs),
(1391,724,o),
(1412,607,o),
(1384,461,c)
);
},
{
closed = 1;
nodes = (
(1212,615,o),
(1146,708,o),
(1009,726,c),
(962,730,o),
(896,734,o),
(812,734,cs),
(665,734,l),
(552,169,l),
(694,169,ls),
(867,169,o),
(946,180,o),
(1030,232,cs),
(1114,284,o),
(1158,349,o),
(1180,457,cs)
);
}
);
width = 1381;
},
{
layerId = "1D873A00-654D-4240-B6DF-C2B832D3BA68";
shapes = (
{
closed = 1;
nodes = (
(1258,216,o),
(1067,75,o),
(894,28,c),
(828,9,o),
(745,0,o),
(644,0,cs),
(314,0,l),
(583,1349,l),
(214,1349,l),
(242,1489,l),
(748,1489,l),
(630,897,l),
(855,897,ls),
(1056,897,o),
(1139,882,o),
(1229,797,cs),
(1312,718,o),
(1335,605,o),
(1306,456,c)
);
},
{
closed = 1;
nodes = (
(1199,639,o),
(1112,734,o),
(975,751,c),
(925,755,o),
(855,760,o),
(759,760,cs),
(603,760,l),
(477,133,l),
(637,133,ls),
(838,133,o),
(911,149,o),
(997,204,cs),
(1090,262,o),
(1138,332,o),
(1162,454,cs)
);
}
);
width = 1302;
},
{
layerId = "6CF7F53B-663E-4569-94B0-B9FCEE5B09F0";
shapes = (
{
closed = 1;
nodes = (
(1645,247,o),
(1470,84,o),
(1266,28,cs),
(1197,9,o),
(1116,0,o),
(1025,0,cs),
(367,0,l),
(601,1169,l),
(179,1169,l),
(243,1489,l),
(1086,1489,l),
(976,938,l),
(1114,938,ls),
(1310,938,o),
(1505,941,o),
(1618,832,cs),
(1706,747,o),
(1719,615,o),
(1692,481,c)
);
},
{
closed = 1;
nodes = (
(1263,519,o),
(1281,603,o),
(1145,625,cs),
(1111,630,o),
(1060,629,o),
(1023,629,cs),
(914,629,l),
(851,312,l),
(923,312,ls),
(986,312,o),
(1089,305,o),
(1162,345,cs),
(1211,372,o),
(1243,418,o),
(1253,468,cs)
);
}
);
width = 1693;
},
{
layerId = "C5AA7147-E6CF-43E6-A817-BB6994C58056";
shapes = (
{
closed = 1;
nodes = (
(1568,241,o),
(1389,82,o),
(1191,28,cs),
(1123,9,o),
(1042,0,o),
(949,0,cs),
(357,0,l),
(597,1205,l),
(186,1205,l),
(243,1489,l),
(1019,1489,l),
(907,930,l),
(1063,930,ls),
(1260,930,o),
(1432,929,o),
(1541,825,cs),
(1628,741,o),
(1642,613,o),
(1615,476,c)
);
},
{
closed = 1;
nodes = (
(1250,543,o),
(1247,629,o),
(1111,650,c),
(1074,655,o),
(1020,655,o),
(971,655,cs),
(852,655,l),
(776,276,l),
(865,276,ls),
(955,276,o),
(1053,274,o),
(1128,317,cs),
(1186,350,o),
(1221,401,o),
(1234,465,cs)
);
}
);
width = 1614;
}
);
unicode = 1066;
},
{
glyphname = afii10045;
layers = (
{
layerId = "F13BA0ED-FC1D-44B0-ADA4-543E9A2824CE";
shapes = (
{
closed = 1;
nodes = (
(1078,164,o),
(821,33,o),
(610,7,cs),
(569,2,o),
(522,0,o),
(473,0,cs),
(82,0,l),
(380,1489,l),
(574,1489,l),
(457,905,l),
(660,905,ls),
(857,905,o),
(965,894,o),
(1060,804,cs),
(1144,724,o),
(1165,607,o),
(1137,461,c)
);
},
{
closed = 1;
nodes = (
(965,615,o),
(900,708,o),
(763,726,c),
(716,730,o),
(649,734,o),
(565,734,cs),
(423,734,l),
(310,169,l),
(447,169,ls),
(620,169,o),
(699,180,o),
(783,232,cs),
(867,284,o),
(911,349,o),
(933,457,cs)
);
},
{
closed = 1;
nodes = (
(1369,0,l),
(1175,0,l),
(1473,1489,l),
(1667,1489,l)
);
}
);
width = 1561;
},
{
layerId = "1D873A00-654D-4240-B6DF-C2B832D3BA68";
shapes = (
{
closed = 1;
nodes = (
(1015,172,o),
(770,44,o),
(592,9,c),
(547,3,o),
(493,0,o),
(437,0,cs),
(81,0,l),
(379,1489,l),
(516,1489,l),
(398,897,l),
(619,897,ls),
(816,897,o),
(904,882,o),
(995,797,cs),
(1077,718,o),
(1101,605,o),
(1072,456,c)
);
},
{
closed = 1;
nodes = (
(965,639,o),
(878,734,o),
(741,751,c),
(688,755,o),
(613,760,o),
(514,760,cs),
(371,760,l),
(245,133,l),
(400,133,ls),
(602,133,o),
(677,149,o),
(763,204,cs),
(856,262,o),
(904,333,o),
(928,454,cs)
);
},
{
closed = 1;
nodes = (
(1256,0,l),
(1118,0,l),
(1416,1489,l),
(1553,1489,l)
);
}
);
width = 1447;
},
{
layerId = "6CF7F53B-663E-4569-94B0-B9FCEE5B09F0";
shapes = (
{
closed = 1;
nodes = (
(1325,133,o),
(1024,-11,o),
(682,-2,c),
(659,-1,o),
(639,0,o),
(618,0,cs),
(86,0,l),
(384,1489,l),
(806,1489,l),
(696,938,l),
(823,938,ls),
(1019,938,o),
(1209,941,o),
(1321,832,cs),
(1410,748,o),
(1422,616,o),
(1395,481,c)
);
},
{
closed = 1;
nodes = (
(966,519,o),
(984,603,o),
(848,625,cs),
(824,629,o),
(797,629,o),
(770,629,cs),
(634,629,l),
(571,312,l),
(635,312,ls),
(697,312,o),
(790,304,o),
(863,344,cs),
(912,372,o),
(945,414,o),
(956,468,cs)
);
},
{
closed = 1;
nodes = (
(1825,0,l),
(1401,0,l),
(1699,1489,l),
(2122,1489,l)
);
}
);
width = 2020;
},
{
layerId = "C5AA7147-E6CF-43E6-A817-BB6994C58056";
shapes = (
{
closed = 1;
nodes = (
(1264,141,o),
(974,0,o),
(664,0,cs),
(637,0,o),
(609,0,o),
(582,0,cs),
(85,0,l),
(383,1489,l),
(748,1489,l),
(637,930,l),
(783,930,ls),
(979,930,o),
(1147,929,o),
(1256,825,cs),
(1343,742,o),
(1359,614,o),
(1331,476,c)
);
},
{
closed = 1;
nodes = (
(966,543,o),
(963,629,o),
(827,650,c),
(797,654,o),
(761,655,o),
(719,655,cs),
(582,655,l),
(506,276,l),
(588,276,ls),
(678,276,o),
(768,273,o),
(843,316,cs),
(901,350,o),
(937,398,o),
(950,465,cs)
);
},
{
closed = 1;
nodes = (
(1711,0,l),
(1344,0,l),
(1642,1489,l),
(2008,1489,l)
);
}
);
width = 1906;
}
);
unicode = 1067;
},
{
glyphname = afii10046;
layers = (
{
layerId = "F13BA0ED-FC1D-44B0-ADA4-543E9A2824CE";
shapes = (
{
closed = 1;
nodes = (
(1110,222,o),
(923,77,o),
(744,28,cs),
(677,9,o),
(594,0,o),
(495,0,cs),
(82,0,l),
(380,1489,l),
(574,1489,l),
(457,905,l),
(682,905,ls),
(882,905,o),
(987,894,o),
(1082,804,cs),
(1166,724,o),
(1186,607,o),
(1158,461,c)
);
},
{
closed = 1;
nodes = (
(987,615,o),
(921,708,o),
(784,726,c),
(737,730,o),
(671,734,o),
(587,734,cs),
(423,734,l),
(310,169,l),
(469,169,ls),
(642,169,o),
(721,180,o),
(805,232,cs),
(889,284,o),
(933,349,o),
(955,457,cs)
);
}
);
width = 1155;
},
{
layerId = "1D873A00-654D-4240-B6DF-C2B832D3BA68";
shapes = (
{
closed = 1;
nodes = (
(1049,215,o),
(857,75,o),
(685,28,c),
(618,9,o),
(535,0,o),
(434,0,cs),
(81,0,l),
(379,1489,l),
(516,1489,l),
(398,897,l),
(645,897,ls),
(846,897,o),
(929,882,o),
(1019,797,cs),
(1102,718,o),
(1125,605,o),
(1097,456,c)
);
},
{
closed = 1;
nodes = (
(988,639,o),
(903,734,o),
(766,751,c),
(713,755,o),
(637,760,o),
(539,760,cs),
(371,760,l),
(245,133,l),
(427,133,ls),
(629,133,o),
(702,150,o),
(788,204,cs),
(881,262,o),
(927,333,o),
(951,454,cs)
);
}
);
width = 1093;
},
{
layerId = "6CF7F53B-663E-4569-94B0-B9FCEE5B09F0";
shapes = (
{
closed = 1;
nodes = (
(1360,251,o),
(1188,85,o),
(980,28,cs),
(912,9,o),
(830,0,o),
(739,0,cs),
(86,0,l),
(384,1489,l),
(806,1489,l),
(696,938,l),
(829,938,ls),
(1025,938,o),
(1220,941,o),
(1333,832,cs),
(1421,748,o),
(1434,616,o),
(1406,481,c)
);
},
{
closed = 1;
nodes = (
(977,518,o),
(995,603,o),
(859,625,c),
(835,630,o),
(806,629,o),
(778,629,cs),
(634,629,l),
(571,312,l),
(637,312,ls),
(699,312,o),
(799,301,o),
(874,344,cs),
(923,372,o),
(956,414,o),
(967,468,cs)
);
}
);
width = 1406;
},
{
layerId = "C5AA7147-E6CF-43E6-A817-BB6994C58056";
shapes = (
{
closed = 1;
nodes = (
(1298,244,o),
(1122,83,o),
(921,28,cs),
(853,9,o),
(771,0,o),
(678,0,cs),
(85,0,l),
(383,1489,l),
(748,1489,l),
(637,930,l),
(792,930,ls),
(989,930,o),
(1161,929,o),
(1270,825,cs),
(1357,742,o),
(1372,614,o),
(1344,476,c)
);
},
{
closed = 1;
nodes = (
(979,542,o),
(976,629,o),
(840,650,c),
(811,655,o),
(773,655,o),
(731,655,cs),
(582,655,l),
(506,276,l),
(595,276,ls),
(685,276,o),
(779,271,o),
(857,316,cs),
(915,350,o),
(951,398,o),
(964,465,cs)
);
}
);
width = 1344;
}
);
unicode = 1068;
},
{
glyphname = afii10047;
layers = (
{
layerId = "F13BA0ED-FC1D-44B0-ADA4-543E9A2824CE";
shapes = (
{
closed = 1;
nodes = (
(1136,277,o),
(804,-27,o),
(411,-27,cs),
(245,-27,o),
(96,11,o),
(-3,64,c),
(41,283,l),
(55,283,l),
(130,197,o),
(275,141,o),
(439,141,cs),
(717,141,o),
(959,369,o),
(1028,712,c),
(317,712,l),
(351,885,l),
(1053,885,l),
(1079,1171,o),
(939,1348,o),
(680,1348,cs),
(519,1348,o),
(361,1293,o),
(243,1204,c),
(229,1204,l),
(273,1424,l),
(384,1471,o),
(559,1516,o),
(721,1516,cs),
(1140,1516,o),
(1328,1237,o),
(1231,750,cs)
);
}
);
width = 1195;
},
{
layerId = "1D873A00-654D-4240-B6DF-C2B832D3BA68";
shapes = (
{
closed = 1;
nodes = (
(1092,279,o),
(761,-26,o),
(388,-26,cs),
(235,-26,o),
(98,0,o),
(-8,57,c),
(28,236,l),
(36,236,l),
(111,147,o),
(265,107,o),
(419,107,cs),
(734,107,o),
(983,381,o),
(1044,737,c),
(290,737,l),
(317,873,l),
(1062,873,l),
(1094,1178,o),
(955,1382,o),
(668,1382,cs),
(519,1382,o),
(367,1351,o),
(236,1251,c),
(229,1251,l),
(265,1431,l),
(367,1473,o),
(541,1515,o),
(690,1515,cs),
(1106,1515,o),
(1284,1241,o),
(1185,745,cs)
);
}
);
width = 1151;
},
{
layerId = "6CF7F53B-663E-4569-94B0-B9FCEE5B09F0";
shapes = (
{
closed = 1;
nodes = (
(1313,268,o),
(973,-30,o),
(504,-30,cs),
(286,-30,o),
(88,55,o),
(18,93,c),
(94,470,l),
(135,470,l),
(208,398,o),
(312,278,o),
(515,278,cs),
(649,278,o),
(867,321,o),
(963,611,c),
(425,611,l),
(489,932,l),
(1019,932,l),
(1020,1143,o),
(871,1211,o),
(727,1211,cs),
(519,1211,o),
(340,1060,o),
(274,1015,c),
(228,1015,l),
(304,1395,l),
(453,1463,o),
(633,1519,o),
(847,1519,cs),
(1278,1519,o),
(1504,1220,o),
(1414,771,cs)
);
}
);
width = 1375;
},
{
layerId = "C5AA7147-E6CF-43E6-A817-BB6994C58056";
shapes = (
{
closed = 1;
nodes = (
(1269,270,o),
(931,-29,o),
(481,-29,cs),
(276,-29,o),
(90,44,o),
(13,86,c),
(80,423,l),
(115,423,l),
(188,348,o),
(303,244,o),
(496,244,cs),
(667,244,o),
(890,333,o),
(979,636,c),
(397,636,l),
(454,920,l),
(1027,920,l),
(1034,1150,o),
(887,1245,o),
(715,1245,cs),
(519,1245,o),
(345,1118,o),
(266,1062,c),
(228,1062,l),
(296,1402,l),
(436,1465,o),
(615,1518,o),
(816,1518,cs),
(1244,1518,o),
(1460,1224,o),
(1368,766,cs)
);
}
);
width = 1331;
}
);
unicode = 1069;
},
